<ttFont>
          <CharString index="0">
            -2 4 4 -1 3 hhcurveto
            18 13 23 23 17 -7 17 -18 10 hvcurveto
            -104 56 rlineto
            3 -6 -5 2 -6 hhcurveto
            -6 -5 -2 -3 -6 hvcurveto
            -104 -56 rlineto
            -18 -10 -7 -17 -17 vvcurveto
            -23 13 -23 18 3 4 1 2 4 vhcurveto
            return
          </CharString>
          <CharString index="1">
            104 hmoveto
            25 20 8 21 6 hvcurveto
            34 12 callsubr
            211 hlineto
            34 -125 rlineto
            -21 6 20 -8 25 hhcurveto
            43 57 27 37 3 -1 4 -1 4 hvcurveto
            -187 610 rlineto
            35 -11 -45 17 -46 hhcurveto
            -46 -45 -17 -35 -11 hvcurveto
            -186 -610 rlineto
            -1 -4 -1 -4 -3 vvcurveto
            -37 57 -27 43 vhcurveto
            117 274 rmoveto
            73 268 73 -268 rlineto
            return
          </CharString>
          <CharString index="2">
            -6 rmoveto
            32 callsubr
            172 -108 64 -138 -46 callgsubr
            vhcurveto
            -59 callgsubr
            vhcurveto
            90 236 rmoveto
            -69 -34 -31 -56 -56 -33 31 69 vhcurveto
            265 vlineto
            69 33 31 56 56 34 -31 -69 vhcurveto
            return
          </CharString>
          <CharString index="3">
            210 595 rmoveto
            268 hlineto
            30 17 32 37 32 -14 35 -33 hvcurveto
            -356 hlineto
            -34 -34 -16 -32 hvcurveto
            -635 vlineto
            -32 34 -16 34 vhcurveto
            356 hlineto
            33 14 35 32 37 -17 32 -30 hvcurveto
            -268 170 150 hlineto
            33 14 32 27 32 -17 29 -30 hvcurveto
            -150 hlineto
            return
          </CharString>
          <CharString index="4">
            399 230 rmoveto
            -68 -36 -32 -60 -60 -36 32 68 vhcurveto
            454 vlineto
            33 -40 14 -38 -40 -38 -10 callgsubr
            -454 vlineto
            -172 110 -64 142 141 111 64 172 vhcurveto
            454 vlineto
            33 -40 14 -38 -40 -38 -10 callgsubr
            return
          </CharString>
          <CharString index="5">
            -99 callgsubr
            endchar
          </CharString>
          <CharString index="6">
            915 656 rmoveto
            1 3 1 5 5 vvcurveto
            34 -56 28 -45 -24 -20 -8 -21 -6 vhcurveto
            -152 -513 -79 338 rlineto
            27 -6 -35 14 -34 hhcurveto
            -34 -35 -14 -27 -6 hvcurveto
            -79 -338 -152 513 rlineto
            21 -6 -20 8 -24 hhcurveto
            -45 -56 -28 -34 -5 1 -5 1 -3 hvcurveto
            199 -610 rlineto
            -35 11 46 -17 46 hhcurveto
            45 48 17 35 8 hvcurveto
            52 237 52 -237 rlineto
            -35 8 48 -17 45 hhcurveto
            46 45 17 35 12 hvcurveto
            return
          </CharString>
          <CharString index="7">
            695 399 rmoveto
            0 callsubr
            7 6 vvcurveto
            38 -64 26 -38 -21 -16 -9 -15 -5 vhcurveto
            -89 -254 -64 215 rlineto
            27 -8 -21 3 -22 hhcurveto
            -23 -20 -3 -27 -8 hvcurveto
            -64 -215 -89 254 rlineto
            17 -6 -17 7 -20 hhcurveto
            -40 -62 -26 -36 -6 1 -5 4 -10 hvcurveto
            154 -385 rlineto
            -20 8 26 -7 25 hhcurveto
            30 29 10 17 6 hvcurveto
            66 174 66 -174 rlineto
            -17 6 28 -10 30 hhcurveto
            26 26 7 20 8 hvcurveto
            return
          </CharString>
          <CharString index="8">
            -41 callgsubr
            2 34 -11 42 hhcurveto
            53 25 14 60 127 -108 72 -143 -131 -109 -64 -172 hvcurveto
            -25 callsubr
            109 -64 131 143 108 76 133 60 -25 14 -54 -40 -34 -10 -37 -3 vhcurveto
            -39 -3 -5 -61 -80 hhcurveto
            -58 -33 32 68 hvcurveto
            265 vlineto
            68 33 32 57 85 3 -64 -26 1 vhcurveto
            return
          </CharString>
          <CharString index="9">
            rmoveto
            4 5 2 6 6 vvcurveto
            19 -23 24 -21 -8 -8 -2 -8 -6 vhcurveto
            -79 -95 rlineto
            -5 -6 -2 -5 -6 vvcurveto
            -20 23 -24 23 10 5 3 8 6 vhcurveto
            return
          </CharString>
          <CharString index="10">
            -33 -30 -37 -62 hhcurveto
            -61 -41 33 49 hvcurveto
            6 193 vlineto
            46 51 4 89 113 -100 77 -115 hvcurveto
            -75 -196 rmoveto
            24 vlineto
            40 36 20 36 37 36 -20 -40 -19 -7 -5 -14 vhcurveto
            return
          </CharString>
          <CharString index="11">
            181 41 rmoveto
            -126 -106 -2 -36 -28 -10 -30 -34 -59 31 -7 40 203 21 126 126 50 vhcurveto
            142 354 rlineto
            3 5 1 7 5 vvcurveto
            43 -71 34 -36 -16 -17 -7 -18 -7 vhcurveto
            -83 -271 -113 271 rlineto
            18 -7 -17 7 -19 hhcurveto
            -40 -65 -34 -40 -8 2 -6 3 -6 hvcurveto
            return
          </CharString>
          <CharString index="12">
            -41 callgsubr
            1 35 -11 42 hhcurveto
            53 25 14 60 127 -108 72 -143 -131 -109 -64 -172 hvcurveto
            -59 callgsubr
            -73 callgsubr
            vhcurveto
            105 vlineto
            26 -17 23 -30 vhcurveto
            -168 hlineto
            -30 -17 -31 -29 -31 17 -29 30 hvcurveto
            59 -34 hlineto
            -68 -34 -32 -56 -56 -33 32 68 vhcurveto
            265 vlineto
            68 33 32 57 85 3 -54 -36 1 vhcurveto
            return
          </CharString>
          <CharString index="13">
            487 hmoveto
            39 39 16 32 hvcurveto
            636 vlineto
            -91 callgsubr
            -340 vlineto
            -162 309 rlineto
            73 -38 -21 5 -56 hhcurveto
            -39 -39 -15 -33 hvcurveto
            -635 vlineto
            -96 callgsubr
            340 vlineto
            190 -346 rlineto
            -35 19 32 -7 36 hhcurveto
            return
          </CharString>
          <CharString index="14">
            48 rmoveto
            -96 callgsubr
            636 vlineto
            -91 callgsubr
            return
          </CharString>
          <CharString index="15">
            257 -20 callgsubr
            -128 -102 -95 -112 hvcurveto
            -73 vlineto
            -127 105 -85 148 113 73 52 38 24 -21 44 -36 vhcurveto
            return
          </CharString>
          <CharString index="16">
            rmoveto
            -20 25 -10 26 25 25 10 20 vhcurveto
            350 vlineto
            19 -24 12 -21 -6 -6 -1 -2 -5 vhcurveto
            -84 -40 rlineto
            -13 -7 -5 -12 -14 vvcurveto
            -19 13 -20 18 4 6 1 2 6 vhcurveto
            return
          </CharString>
          <CharString index="17">
            48 27 -27 71 hhcurveto
            19 66 2 71 10 -7 39 -31 hvcurveto
            -23 -21 -21 -42 hhcurveto
            return
          </CharString>
          <CharString index="18">
            490 635 rmoveto
            11 20 6 19 16 vvcurveto
            24 -15 17 -30 vhcurveto
            -386 hlineto
            -33 -14 -35 -33 -36 17 -32 30 hvcurveto
            232 hlineto
            -282 -499 rlineto
            -11 -19 -6 -20 -16 vvcurveto
            -24 13 -17 32 vhcurveto
            426 hlineto
            30 17 36 32 32 -17 36 -30 hvcurveto
            -272 hlineto
            return
          </CharString>
          <CharString index="19">
            198 366 rmoveto
            113 -31 callsubr
            -113 160 hlineto
            28 -39 19 -39 -36 -41 -19 -28 vhcurveto
            -467 vlineto
            -118 69 -51 127 vhcurveto
            43 hlineto
            45 21 32 33 32 -21 33 -45 hvcurveto
            -43 hlineto
            -31 -10 10 29 hvcurveto
            return
          </CharString>
          <CharString index="20">
            82 19 -38 36 hhcurveto
            44 18 55 27 78 -146 10 -53 -125 -131 -57 -150 hvcurveto
            -234 317 21 -121 vvcurveto
            -48 -51 -18 -46 vhcurveto
            return
          </CharString>
          <CharString index="21">
            -105 callgsubr
            endchar
          </CharString>
          <CharString index="22">
            27 19 9 22 31 10 -18 -13 vhcurveto
            -64 -187 -53 -86 vvcurveto
            -55 vlineto
            -18 26 -12 18 vhcurveto
            213 hlineto
            16 14 21 23 23 -14 20 -16 hvcurveto
            -152 4 hlineto
            42 183 41 117 vvcurveto
            79 -73 39 -70 -69 -69 -39 -72 vhcurveto
            return
          </CharString>
          <CharString index="23">
            -51 -44 -41 -31 -23 -16 13 29 48 53 6 57 vhcurveto
            4 hlineto
            return
          </CharString>
          <CharString index="24">
            438 hmoveto
            30 15 34 34 34 -15 34 -30 hvcurveto
            -228 548 hlineto
            -91 callgsubr
            -636 vlineto
            -32 34 -16 34 vhcurveto
            return
          </CharString>
          <CharString index="25">
            -25 27 -22 41 vhcurveto
            177 hlineto
            -73 callgsubr
            hvcurveto
            259 3 callsubr
            vhcurveto
            -136 vmoveto
            56 34 -32 -68 hvcurveto
            -259 vlineto
            -68 -34 -32 -56 vhcurveto
            -89 return
          </CharString>
          <CharString index="26">
            42 34 35 42 29 -16 25 -24 14 hvcurveto
            25 54 rlineto
            0 callsubr
            5 5 vvcurveto
            25 -29 14 -21 -11 -13 -4 -14 -6 vhcurveto
            -59 -137 -3 -11 -12 vvcurveto
            -41 35 -35 42 vhcurveto
            return
          </CharString>
          <CharString index="27">
            -46 -14 -30 -34 -57 vvcurveto
            -7 vlineto
            -83 66 -32 85 84 65 32 83 vhcurveto
            7 vlineto
            57 -29 34 -46 14 vhcurveto
            return
          </CharString>
          <CharString index="28">
            -84 callsubr
            endchar
          </CharString>
          <CharString index="29">
            131 748 rmoveto
            -45 -49 callgsubr
            -653 vlineto
            -34 callsubr
            45 -40 callgsubr
            653 vlineto
            28 -35 19 -43 vhcurveto
            return
          </CharString>
          <CharString index="30">
            -68 -33 -32 -58 -80 -5 61 39 -3 vhcurveto
            37 -3 -34 10 -40 hhcurveto
            -54 -25 -14 -60 -133 108 -76 143 131 109 64 172 hvcurveto
            453 vlineto
            32 -34 16 -34 vhcurveto
            -175 hlineto
            -33 -14 -35 -32 -37 17 -32 30 hvcurveto
            return
          </CharString>
          <CharString index="31">
            -44 -33 -6 callgsubr
            44 41 35 36 41 42 -35 35 -41 hvcurveto
            return
          </CharString>
          <CharString index="32">
            -22 callgsubr
            320 hlineto
            -72 callgsubr
            -320 -54 callsubr
          </CharString>
          <CharString index="33">
            31 13 15 40 38 vvcurveto
            77 -59 25 -78 -104 -35 -55 -48 -29 5 -9 47 38 9 14 21 return
          </CharString>
          <CharString index="34">
            -31 -10 113 -82 -21 199 75 51 157 -124 124 return
          </CharString>
          <CharString index="35">
            -21 -43 vlineto
            102 184 rlineto
            2 4 1 4 4 vvcurveto
            23 -33 14 -17 -16 -16 -7 -18 -10 vhcurveto
            -137 -248 rlineto
            -4 -7 -1 -6 -5 vvcurveto
            return
          </CharString>
          <CharString index="36">
            464 772 rmoveto
            -18 -16 -8 -17 -8 hvcurveto
            -17 -35 rlineto
            13 -34 -39 6 -41 hhcurveto
            -46 callgsubr
            hvcurveto
            -265 vlineto
            -70 17 -52 30 -37 vhcurveto
            -22 -45 rlineto
            -3 -6 -2 -7 -6 vvcurveto
            -25 22 -28 34 19 19 10 15 7 vhcurveto
            15 31 rlineto
            -11 33 37 -5 39 hhcurveto
            32 callsubr
            66 -16 50 -28 37 vhcurveto
            26 52 rlineto
            0 callsubr
            7 6 vvcurveto
            32 -31 21 -28 vhcurveto
            return
          </CharString>
          <CharString index="37">
            254 -20 callgsubr
            -125 -102 -98 -112 hvcurveto
            -70 vlineto
            -51 22 -49 35 -38 vhcurveto
            -36 -48 rlineto
            -4 -5 -3 -7 -6 vvcurveto
            -16 16 -14 15 6 7 3 5 4 vhcurveto
            39 51 rlineto
            -23 37 43 -14 46 hhcurveto
            122 106 101 111 hvcurveto
            70 vlineto
            53 -23 49 -36 37 vhcurveto
            35 46 rlineto
            5 7 3 7 7 vvcurveto
            17 -15 15 -18 -8 -7 -3 -10 -7 vhcurveto
            -36 -48 rlineto
            21 -36 -42 12 -43 hhcurveto
            return
          </CharString>
          <CharString index="38">
            24 -375 rmoveto
            -38 -39 -23 -40 -40 -39 22 41 24 13 22 27 14 vhcurveto
            62 -7 56 -9 -46 vvcurveto
            return
          </CharString>
          <CharString index="39">
            54 18 -24 24 hhcurveto
            36 24 47 29 44 -71 39 -98 -157 -68 -93 -119 hvcurveto
            -68 vlineto
            -121 68 -91 159 vhcurveto
            return
          </CharString>
          <CharString index="40">
            rmoveto
            28 26 3 18 19 hvcurveto
            -41 vlineto
            -33 -20 -15 -33 -26 -22 7 17 vhcurveto
            hintmask 01111100
            30 -24 6 -28 -32 -15 -9 -31 -45 40 -62 104 88 68 36 99 vhcurveto
            142 vlineto
            99 -66 36 -84 -85 -65 -36 -98 vhcurveto
            -4 vlineto
            -91 58 -28 69 vhcurveto
            73 121 rmoveto
            -32 -20 -13 -29 -32 -18 14 35 vhcurveto
            4 vlineto
            34 18 14 31 31 19 -14 -34 vhcurveto
            endchar
          </CharString>
          <CharString index="41">
            -19 -10 121 -121 158 51 87 84 112 return
          </CharString>
          <CharString index="42">
            -83 callgsubr
            endchar
          </CharString>
          <CharString index="43">
            -39 -22 -28 -34 -48 vvcurveto
            -93 109 -52 119 111 115 45 118 vhcurveto
            return
          </CharString>
          <CharString index="44">
            54 48 rmoveto
            -96 callgsubr
            return
          </CharString>
          <CharString index="45">
            30 99 -41 vlineto
            -144 -218 rlineto
            -3 -5 -1 -5 -6 vvcurveto
            -29 32 -22 32 13 10 4 9 5 vhcurveto
            136 232 rlineto
            11 19 9 26 17 vvcurveto
            return
          </CharString>
          <CharString index="46">
            35 24 24 vhcurveto
            return
          </CharString>
          <CharString index="47">
            -74 -97 -33 -47 -36 18 -41 34 hvcurveto
            return
          </CharString>
          <CharString index="48">
            21 15 0 25 22 19 -4 -29 -40 -24 0 -19 -1 vhcurveto
            return
          </CharString>
          <CharString index="49">
            -6 -55 callgsubr
            return
          </CharString>
          <CharString index="50">
            -21 13 20 -8 21 hhcurveto
            45 49 39 39 9 -3 9 -5 8 hvcurveto
            -207 317 164 206 rlineto
            8 11 2 11 8 vvcurveto
            39 -52 41 -40 -16 -14 -6 -16 -11 vhcurveto
            -187 -265 rlineto
            240 vlineto
            -91 callgsubr
            return
          </CharString>
          <CharString index="51">
            25 13 27 28 27 -13 28 -25 hvcurveto
            return
          </CharString>
          <CharString index="52">
            -19 callgsubr
            -44 callsubr
            return
          </CharString>
          <CharString index="53">
            hlineto
            -28 -19 -28 -36 hvcurveto
            endchar
          </CharString>
          <CharString index="54">
            rmoveto
            104 -56 rlineto
            return
          </CharString>
          <CharString index="55">
            74 21 -45 callsubr
            return
          </CharString>
          <CharString index="56">
            -381 vlineto
            -34 callsubr
            return
          </CharString>
          <CharString index="57">
            -21 347 135 return
          </CharString>
          <CharString index="58">
            20 -6 17 -45 -31 -19 -9 -35 -53 52 -53 99 82 67 36 95 vhcurveto
            11 vlineto
            91 -66 33 -84 vhcurveto
            endchar
          </CharString>
          <CharString index="59">
            rmoveto
            -80 -56 -31 -69 -46 25 -28 36 -11 hvcurveto
            return
          </CharString>
          <CharString index="60">
            255 -10 rmoveto
            97 76 43 45 30 -24 44 -42 hvcurveto
            return
          </CharString>
          <CharString index="61">
            120 169 136 return
          </CharString>
          <CharString index="62">
            -21 154 120 463 -20 return
          </CharString>
          <CharString index="63">
            156 vstem
            return
          </CharString>
          <CharString index="64">
            -30 -22 -21 -22 -37 vvcurveto
            -30 14 -19 22 -13 vhcurveto
            return
          </CharString>
          <CharString index="65">
            -155 rmoveto
            -42 -16 20 28 return
          </CharString>
          <CharString index="66">
            27 8 33 82 hhcurveto
            57 18 -40 -34 hvcurveto
            -10 -36 vlineto
            -138 -96 -33 -118 -91 74 -42 84 63 65 39 55 48 hvcurveto
            -59 44 66 -35 79 hhcurveto
            113 73 52 38 hvcurveto
            return
          </CharString>
          <CharString index="67">
            769 rmoveto
            -83 callgsubr
            return
          </CharString>
          <CharString index="68">
            28 -32 19 -44 vhcurveto
            -228 -476 rmoveto
            38 32 37 41 36 40 -28 -47 vhcurveto
            -83 vlineto
            return
          </CharString>
          <CharString index="69">
            vlineto
            82 -6 rlineto
            24 24 24 35 33 -24 27 -24 hvcurveto
            -82 -6 rlineto
            176 vlineto
            25 -39 22 -39 -43 -35 -22 -25 vhcurveto
            -176 vlineto
            -82 6 rlineto
            -28 -19 -27 -33 return
          </CharString>
          <CharString index="70">
            115 -115 160 187 145 -115 115 return
          </CharString>
          <CharString index="71">
            20 -10 135 351 return
          </CharString>
          <CharString index="72">
            21 -27 callgsubr
            return
          </CharString>
          <CharString index="73">
            -24 32 -24 return
          </CharString>
          <CharString index="74">
            99 18 168 -96 96 -96 111 return
          </CharString>
          <CharString index="75">
            -36 callsubr
            -20 return
          </CharString>
          <CharString index="76">
            hlineto
            -56 callsubr
            return
          </CharString>
          <CharString index="77">
            113 47 113 return
          </CharString>
          <CharString index="78">
            vlineto
            -34 callsubr
            44 44 -61 callsubr
            return
          </CharString>
          <CharString index="79">
            155 -11 callsubr
            return
          </CharString>
          <CharString index="80">
            33 358 rmoveto
            -217 163 -106 141 139 171 104 223 217 -163 106 -141 -139 -171 -104 -223 vhcurveto
            return
          </CharString>
          <CharString index="81">
            -14 callsubr
            vhcurveto
            hintmask 11110100
            -51 callgsubr
            hvcurveto
            return
          </CharString>
          <CharString index="82">
            -265 vlineto
            -172 return
          </CharString>
          <CharString index="83">
            87 -87 144 32 77 18 141 return
          </CharString>
          <CharString index="84">
            -35 callsubr
            248 -20 hstemhm
            return
          </CharString>
          <CharString index="85">
            hvcurveto
            -470 vlineto
            -8 callgsubr
            319 92 vlineto
            -56 callsubr
            -92 48 hlineto
            return
          </CharString>
          <CharString index="86">
            -37 -38 vhcurveto
            return
          </CharString>
          <CharString index="87">
            vlineto
            -41 19 52 -39 59 19 callgsubr
            return
          </CharString>
          <CharString index="88">
            -30 callgsubr
            260 hlineto
            -72 callgsubr
            -260 -54 callsubr
          </CharString>
          <CharString index="89">
            517 -20 callgsubr
            -56 -50 -28 -44 -39 hvcurveto
            44 -35 -51 28 -72 hhcurveto
            -60 callsubr
            return
          </CharString>
          <CharString index="90">
            rmoveto
            -20 25 -10 25 26 25 10 20 vhcurveto
            return
          </CharString>
          <CharString index="91">
            -95 -115 hvcurveto
            -70 vlineto
            -111 return
          </CharString>
          <CharString index="92">
            hstemhm
            28 -50 callgsubr
            return
          </CharString>
          <CharString index="93">
            vvcurveto
            -53 37 -44 88 return
          </CharString>
          <CharString index="94">
            hstemhm
            46 156 return
          </CharString>
          <CharString index="95">
            69 15 2 callgsubr
            return
          </CharString>
          <CharString index="96">
            145 155 return
          </CharString>
          <CharString index="97">
            98 -181 rmoveto
            -51 -44 -49 -54 -54 -43 49 52 51 43 48 54 55 43 -49 -51 vhcurveto
            endchar
          </CharString>
          <CharString index="98">
            rmoveto
            38 32 37 41 36 40 -28 -47 vhcurveto
            -70 vlineto
            -40 -33 -37 -41 -41 -34 37 40 vhcurveto
            endchar
          </CharString>
          <CharString index="99">
            15 15 23 23 23 -10 23 -20 hvcurveto
            return
          </CharString>
          <CharString index="100">
            21 -25 9 -26 -25 -25 -9 -21 vhcurveto
            return
          </CharString>
          <CharString index="101">
            66 -66 139 hstemhm
            return
          </CharString>
          <CharString index="102">
            5 callgsubr
            459 136 return
          </CharString>
          <CharString index="103">
            rmoveto
            -22 -28 0 25 hvcurveto
            return
          </CharString>
          <CharString index="104">
            136 601 return
          </CharString>
          <CharString index="105">
            hintmask 10100000
            48 27 -27 71 hhcurveto
            19 66 2 75 11 -7 42 -31 hvcurveto
            -23 -21 -21 -42 hhcurveto
            return
          </CharString>
          <CharString index="106">
            18 -10 135 -104 -50 callsubr
            266 18 callgsubr
            return
          </CharString>
          <CharString index="107">
            3 6 1 return
          </CharString>
          <CharString index="108">
            148 7 callgsubr
            return
          </CharString>
          <CharString index="109">
            -23 15 -11 18 vhcurveto
            139 hlineto
            return
          </CharString>
          <CharString index="110">
            vlineto
            172 -108 64 -138 return
          </CharString>
          <CharString index="111">
            33 -21 callsubr
            return
          </CharString>
          <CharString index="112">
            -29 callsubr
            93 vlineto
            51 47 121 -179 rlineto
            return
          </CharString>
          <CharString index="113">
            79 107 80 67 79 hstemhm
            20 -18 callgsubr
            hintmask 11101100
            171 return
          </CharString>
          <CharString index="114">
            hlineto
            24 24 22 31 30 -24 24 -24 hvcurveto
            return
          </CharString>
          <CharString index="115">
            411 748 rmoveto
            -44 -35 -19 -28 hvcurveto
            return
          </CharString>
          <CharString index="116">
            150 -126 150 return
          </CharString>
          <CharString index="117">
            240 -155 155 return
          </CharString>
          <CharString index="118">
            73 -73 156 return
          </CharString>
          <CharString index="119">
            125 rlineto
            return
          </CharString>
          <CharString index="120">
            87 -87 150 39 77 59 87 hstemhm
            13 101 98 101 hintmask 10111100
            127 return
          </CharString>
          <CharString index="121">
            13 6 6 13 15 vvcurveto
            29 -25 40 -29 -4 -4 -1 -2 -4 vhcurveto
            return
          </CharString>
          <CharString index="122">
            18 -10 -52 callgsubr
            return
          </CharString>
          <CharString index="123">
            113 96 75 51 157 -124 124 hstemhm
            18 156 return
          </CharString>
          <CharString index="124">
            136 0 77 151 -20 hstemhm
            46 -19 callgsubr
            156 return
          </CharString>
          <CharString index="125">
            30 17 33 38 33 -14 36 -33 hvcurveto
            return
          </CharString>
          <CharString index="126">
            -17 -34 -47 -43 -40 -32 38 39 vhcurveto
            return
          </CharString>
          <CharString index="127">
            405 34 callsubr
            return
          </CharString>
          <CharString index="128">
            -21 411 -20 hstemhm
            1 164 -101 101 hintmask 11100000
            64 return
          </CharString>
          <CharString index="129">
            -294 580 -21 161 -20 hstem
            0 221 vstem
            return
          </CharString>
          <CharString index="130">
            rlineto
            25 44 20 36 33 vvcurveto
            33 -20 36 -25 44 vhcurveto
            return
          </CharString>
          <CharString index="131">
            257 130 rmoveto
            return
          </CharString>
          <CharString index="132">
            413 476 rmoveto
            -41 -30 -19 -28 hvcurveto
            -23 vlineto
            return
          </CharString>
          <CharString index="133">
            -97 vlineto
            -28 -19 -28 -36 -38 19 -25 28 hvcurveto
            97 return
          </CharString>
          <CharString index="134">
            vlineto
            -111 81 -101 93 59 52 39 41 19 vhcurveto
            return
          </CharString>
          <CharString index="135">
            87 238 87 hstem
            27 101 99 100 vstem
            177 return
          </CharString>
          <CharString index="136">
            vlineto
            -17 -31 -47 -44 -39 -35 38 39 vhcurveto
            endchar
          </CharString>
          <CharString index="137">
            -188 -21 230 -21 return
          </CharString>
          <CharString index="138">
            hintmask 11111010
            -28 -19 -24 -31 -31 19 -21 28 hvcurveto
            return
          </CharString>
          <CharString index="139">
            -73 callgsubr
            hvcurveto
            265 vlineto
            return
          </CharString>
          <CharString index="140">
            -252 21 -21 748 -20 return
          </CharString>
          <CharString index="141">
            15 -21 737 -20 return
          </CharString>
          <CharString index="142">
            -157 -20 135 518 135 hstem
            return
          </CharString>
          <CharString index="143">
            -30 -31 -12 -20 -4 hvcurveto
            -26 -136 rlineto
            return
          </CharString>
          <CharString index="144">
            -135 -20 131 526 131 hstemhm
            return
          </CharString>
          <CharString index="145">
            156 hintmask 11110100
            return
          </CharString>
          <CharString index="146">
            hstemhm
            45 155 return
          </CharString>
        <CharString name=".notdef">
          -107 30 -21 454 -20 hstem
          40 95 rmoveto
          -8 -11 -2 -11 -10 vvcurveto
          -31 31 -23 31 17 16 7 16 11 vhcurveto
          68 115 68 -115 rlineto
          -16 11 16 -7 17 hhcurveto
          31 31 23 31 10 -2 11 -8 11 hvcurveto
          -96 141 96 141 rlineto
          8 11 2 11 10 vvcurveto
          31 -31 23 -31 -17 -16 -7 -16 -11 vhcurveto
          -68 -115 -68 115 rlineto
          16 -11 -16 7 -17 hhcurveto
          -31 -31 -23 -31 -10 2 -11 8 -11 hvcurveto
          96 -141 rlineto
          endchar
        </CharString>
        <CharString name="A">
          -52 callsubr
          hstem
          -106 callsubr
          endchar
        </CharString>
        <CharString name="AE">
          302 -70 callgsubr
          hstem
          51 146 177 -44 callsubr
          -71 callgsubr
          endchar
        </CharString>
        <CharString name="AEacute">
          302 -70 callgsubr
          224 -20 hstemhm
          51 146 177 156 -142 221 hintmask 11111100
          -71 callgsubr
          392 437 rmoveto
          hintmask 11111010
          -107 callgsubr
          endchar
        </CharString>
        <CharString name="Aacute">
          -52 callsubr
          242 -20 hstem
          221 221 vstem
          -106 callsubr
          55 593 rmoveto
          -107 callgsubr
          endchar
        </CharString>
        <CharString name="Abreve">
          -52 callsubr
          107 -6 callsubr
          155 80 hintmask 11101100
          -106 callsubr
          -13 689 rmoveto
          hintmask 11110100
          -34 callgsubr
          hintmask 11101100
          -87 callgsubr
          endchar
        </CharString>
        <CharString name="Acircumflex">
          74 21 -21 737 -20 242 -20 hstem
          -106 callsubr
          -73 593 -53 callsubr
          -107 callsubr
          endchar
        </CharString>
        <CharString name="Adieresis">
          -52 callsubr
          93 117 hstem
          159 -30 callsubr
          vstem
          -106 callsubr
          -151 653 rmoveto
          -102 callsubr
        </CharString>
        <CharString name="Agrave">
          -52 callsubr
          242 -20 hstem
          166 221 vstem
          -106 callsubr
          -41 528 -62 callgsubr
          -100 callgsubr
          endchar
        </CharString>
        <CharString name="Amacron">
          -52 callsubr
          122 99 hstem
          -106 callsubr
          -220 614 rmoveto
          -92 callgsubr
          endchar
        </CharString>
        <CharString name="Aogonek">
          74 -218 63 176 -45 callsubr
          hstemhm
          378 11 callsubr
          hintmask 11111000
          509 -42 callsubr
          39 32 50 44 25 hvcurveto
          31 11 27 20 26 vvcurveto
          3 -1 4 -1 4 vhcurveto
          -187 610 rlineto
          35 -11 -45 17 -46 hhcurveto
          -46 -45 -17 -35 -11 hvcurveto
          -186 -610 rlineto
          -1 -4 -1 -4 -3 vvcurveto
          -37 57 -27 43 25 20 8 21 6 vhcurveto
          34 12 callsubr
          211 hlineto
          34 -125 2 -9 5 -7 7 -4 rlinecurve
          -44 -35 -26 -51 -44 -26 callsubr
          -288 429 rmoveto
          73 268 73 -268 rlineto
          endchar
        </CharString>
        <CharString name="Aring">
          -52 callsubr
          87 60 81 63 hstem
          194 59 80 61 vstem
          -106 callsubr
          -74 734 rmoveto
          -65 callsubr
        </CharString>
        <CharString name="Atilde">
          -52 callsubr
          101 101 -74 74 hstemhm
          hintmask 11101000
          -106 callsubr
          -126 571 rmoveto
          hintmask 11110000
          -90 callsubr
          hintmask 11101000
          -90 callgsubr
          endchar
        </CharString>
        <CharString name="B">
          57 5 callgsubr
          200 120 139 136 hstemhm
          54 155 162 156 -138 38 callsubr
          54 47 rmoveto
          -25 26 -22 42 vhcurveto
          222 hlineto
          113 88 57 158 hvcurveto
          21 vlineto
          100 -42 37 -61 23 vhcurveto
          hintmask 11111000
          53 23 32 53 81 vvcurveto
          142 -100 36 -100 vhcurveto
          -205 hlineto
          -34 -34 -16 -32 hvcurveto
          155 -547 rmoveto
          200 100 vlineto
          hintmask 11110100
          50 30 -24 -68 hvcurveto
          -16 vlineto
          -64 -30 -28 -50 vhcurveto
          -100 459 rmoveto
          105 hlineto
          hintmask 11111000
          38 19 -35 -35 -34 -19 -35 -38 hvcurveto
          -105 hlineto
          endchar
        </CharString>
        <CharString name="C">
          47 -58 callsubr
          hstem
          46 -55 callsubr
          -99 callsubr
          endchar
        </CharString>
        <CharString name="CR">
          -515 endchar
        </CharString>
        <CharString name="Cacute">
          47 -58 callsubr
          228 -20 -13 callsubr
          3 221 -45 38 callsubr
          -99 callsubr
          25 362 rmoveto
          hintmask 11111000
          -107 callgsubr
          endchar
        </CharString>
        <CharString name="Ccaron">
          47 -58 callsubr
          240 -20 hstem
          46 -55 callsubr
          -99 callsubr
          -195 463 -106 callgsubr
          endchar
        </CharString>
        <CharString name="Ccedilla">
          47 -15 callgsubr
          42 135 -24 callgsubr
          -13 callsubr
          7 199 -69 69 -27 156 hintmask 1001110010000000
          -41 callgsubr
          2 34 -11 42 hhcurveto
          53 25 14 60 127 -108 72 -143 -131 -109 -64 -172 hvcurveto
          -265 vlineto
          -160 94 -67 119 -8 vhcurveto
          -25 -84 62 -6 rlineto
          hintmask 1001110100000000
          -21 callgsubr
          hintmask 0101111000000000
          -60 callgsubr
          hintmask 0011110010000000
          9 callgsubr
          14 43 rlineto
          125 12 90 73 122 vvcurveto
          60 -25 14 -54 -40 -34 -10 -37 -3 vhcurveto
          -39 -3 -5 -61 -80 hhcurveto
          -58 -33 32 68 hvcurveto
          265 vlineto
          68 33 32 57 85 3 -64 -26 1 vhcurveto
          endchar
        </CharString>
        <CharString name="Ccircumflex">
          47 -6 136 147 181 14 callgsubr
          hintmask 11101110
          -99 callsubr
          -90 362 -53 callsubr
          hintmask 11011110
          -107 callsubr
          endchar
        </CharString>
        <CharString name="Cdotaccent">
          47 -58 callsubr
          79 117 hstem
          46 156 34 113 32 -44 callsubr
          -99 callsubr
          -88 422 rmoveto
          -86 callsubr
        </CharString>
        <CharString name="D">
          75 -5 callsubr
          hstem
          54 -55 callsubr
          122 731 rmoveto
          -41 -27 -22 -25 hvcurveto
          -637 vlineto
          -82 callsubr
          459 hlineto
          endchar
        </CharString>
        <CharString name="Dcaron">
          75 -5 callsubr
          240 -20 hstem
          54 -55 callsubr
          122 731 rmoveto
          -41 -27 -22 -25 hvcurveto
          -637 vlineto
          -82 callsubr
          459 hlineto
          -40 373 -106 callgsubr
          endchar
        </CharString>
        <CharString name="Dcroat">
          -81 callgsubr
        </CharString>
        <CharString name="Delta">
          107 0 -3 callsubr
          -20 hstem
          414 679 rmoveto
          35 -11 -36 23 -56 hhcurveto
          -56 -36 -23 -35 -11 hvcurveto
          -182 -591 rlineto
          -4 -12 -2 -12 -11 vvcurveto
          -32 18 -21 48 vhcurveto
          450 hlineto
          48 18 21 32 11 -2 12 -4 12 hvcurveto
          -397 48 rmoveto
          112 416 112 -416 rlineto
          endchar
        </CharString>
        <CharString name="E">
          24 -70 callgsubr
          hstem
          54 -44 callsubr
          -104 callsubr
          endchar
        </CharString>
        <CharString name="Eacute">
          24 -70 callgsubr
          228 -13 callgsubr
          -7 221 hintmask 11111000
          -104 callsubr
          194 441 rmoveto
          hintmask 11110100
          -107 callgsubr
          endchar
        </CharString>
        <CharString name="Ebreve">
          24 -70 callgsubr
          93 -6 callsubr
          54 156 -61 80 hintmask 11101100
          -104 callsubr
          138 537 rmoveto
          hintmask 11110100
          -34 callgsubr
          hintmask 11101010
          -87 callgsubr
          endchar
        </CharString>
        <CharString name="Ecaron">
          24 -70 callgsubr
          240 -20 hstem
          54 -44 callsubr
          -104 callsubr
          -26 542 -106 callgsubr
          endchar
        </CharString>
        <CharString name="Ecircumflex">
          24 -70 callgsubr
          0 77 151 -13 callgsubr
          hintmask 11101100
          -104 callsubr
          89 441 -53 callsubr
          hintmask 11011100
          -107 callsubr
          endchar
        </CharString>
        <CharString name="Edieresis">
          24 -70 callgsubr
          79 117 -44 callgsubr
          -54 -30 callsubr
          hintmask 11111010
          -104 callsubr
          3 501 rmoveto
          hintmask 11110110
          -102 callsubr
        </CharString>
        <CharString name="Edotaccent">
          24 -70 callgsubr
          79 117 hstem
          54 156 36 113 vstem
          -104 callsubr
          93 501 rmoveto
          -86 callsubr
        </CharString>
        <CharString name="Egrave">
          24 -70 callgsubr
          228 -13 callgsubr
          -37 221 hintmask 11111000
          -104 callsubr
          123 376 -62 callgsubr
          hintmask 11110100
          -100 callgsubr
          endchar
        </CharString>
        <CharString name="Emacron">
          24 -70 callgsubr
          108 99 hstem
          54 -44 callsubr
          -104 callsubr
          -63 462 rmoveto
          -92 callgsubr
          endchar
        </CharString>
        <CharString name="Eng">
          105 -3 callgsubr
          108 -21 731 -13 callgsubr
          115 240 -156 156 hintmask 11111000
          383 -87 rmoveto
          -58 callgsubr
          712 vlineto
          33 -39 14 -39 vhcurveto
          hintmask 11110100
          -39 -39 -14 -33 hvcurveto
          -340 vlineto
          -162 309 rlineto
          73 -38 -21 5 -56 hhcurveto
          -39 -39 -15 -33 hvcurveto
          -635 vlineto
          -96 callgsubr
          340 vlineto
          190 -346 rlineto
          6 -11 3 -9 -14 vvcurveto
          -36 vlineto
          -34 -4 -25 -22 vhcurveto
          endchar
        </CharString>
        <CharString name="Eogonek">
          24 -218 63 155 136 170 -46 callsubr
          -44 callgsubr
          141 11 callsubr
          hintmask 11111100
          482 -42 callsubr
          36 28 46 39 27 hvcurveto
          24 8 10 30 27 vvcurveto
          37 -17 32 -30 vhcurveto
          -268 170 150 hlineto
          33 14 32 27 32 -17 29 -30 hvcurveto
          -150 169 268 hlineto
          30 17 32 37 32 -14 35 -33 hvcurveto
          -356 hlineto
          -34 -34 -16 -32 hvcurveto
          -635 vlineto
          -32 34 -16 34 vhcurveto
          289 hlineto
          -38 -34 -22 -46 -41 -14 callsubr
          vhcurveto
          hintmask 11111010
          -51 callgsubr
          hvcurveto
          endchar
        </CharString>
        <CharString name="Eth">
          -81 callgsubr
        </CharString>
        <CharString name="Euro">
          121 -6 136 86 107 60 107 105 136 hstemhm
          23 243 -156 -19 callgsubr
          156 hintmask 11111010
          266 216 rmoveto
          64 7 callsubr
          -64 60 64 7 callsubr
          -64 5 hlineto
          68 32 32 59 84 4 -65 -25 -31 21 -12 56 56 23 12 58 127 -109 72 -141 vhcurveto
          hintmask 11110110
          -133 -108 -64 -172 hvcurveto
          -5 -40 vlineto
          31 callsubr
          hintmask 11110110
          40 -60 -40 hlineto
          31 callsubr
          40 -4 hlineto
          -123 84 -95 157 141 109 77 131 59 -22 12 -57 -55 -21 -11 -32 -1 vhcurveto
          -39 -1 -7 -61 -79 hhcurveto
          -85 -7 70 12 hvcurveto
          endchar
        </CharString>
        <CharString name="F">
          0 21 -21 306 -46 callsubr
          hstem
          54 -44 callsubr
          -63 callsubr
          258 151 vlineto
          33 14 32 27 32 -17 29 -30 hvcurveto
          -151 169 259 hlineto
          30 17 32 37 32 -14 35 -33 hvcurveto
          -347 hlineto
          -34 -34 -16 -32 hvcurveto
          endchar
        </CharString>
        <CharString name="G">
          58 -6 -16 callgsubr
          hstem
          46 -55 callsubr
          -95 callsubr
          endchar
        </CharString>
        <CharString name="Gbreve">
          58 -6 -16 callgsubr
          93 -6 callsubr
          46 156 -52 80 151 156 hintmask 11101101
          -95 callsubr
          -32 458 rmoveto
          hintmask 11110101
          -34 callgsubr
          hintmask 11101011
          -87 callgsubr
          endchar
        </CharString>
        <CharString name="Gcircumflex">
          58 -6 136 134 120 0 74 14 callgsubr
          hintmask 10110111
          -41 callgsubr
          1 35 -11 42 hhcurveto
          53 25 14 60 127 -108 72 -143 -131 -109 -64 -172 hvcurveto
          -59 callgsubr
          -73 callgsubr
          vhcurveto
          105 vlineto
          26 -17 23 -30 vhcurveto
          -168 hlineto
          -30 -17 -31 -29 hvcurveto
          hintmask 11010111
          -31 17 -29 30 vhcurveto
          59 -34 hlineto
          -68 -34 -32 -56 -56 -33 32 68 vhcurveto
          265 vlineto
          68 33 32 57 85 3 -54 -36 1 vhcurveto
          -105 362 -53 callsubr
          hintmask 11001111
          -107 callsubr
          endchar
        </CharString>
        <CharString name="Gcommaaccent">
          58 -188 -21 203 -16 callgsubr
          -13 callsubr
          -22 221 -20 156 hintmask 11111010
          -95 callsubr
          -645 vmoveto
          hintmask 11110100
          -107 callgsubr
          endchar
        </CharString>
        <CharString name="Gdotaccent">
          58 -6 -16 callgsubr
          79 117 hstem
          46 156 28 113 38 -44 callsubr
          -95 callsubr
          -94 422 rmoveto
          -86 callsubr
        </CharString>
        <CharString name="H">
          104 21 -21 319 120 292 -20 hstem
          54 156 199 -44 callsubr
          409 -93 callsubr
          -245 -199 245 vlineto
          -91 callgsubr
          -636 vlineto
          -96 callgsubr
          271 199 vlineto
          endchar
        </CharString>
        <CharString name="Hbar">
          108 21 -21 319 120 93 98 -98 199 hstemhm
          15 197 -156 156 199 156 -156 196 hintmask 11101010
          411 48 rmoveto
          -96 callgsubr
          484 4 vlineto
          hintmask 11101001
          25 11 23 26 24 -11 25 -25 hvcurveto
          hintmask 11101010
          -4 54 hlineto
          hintmask 11011010
          -91 callgsubr
          hintmask 11101010
          -54 -199 54 vlineto
          hintmask 11010110
          -91 callgsubr
          hintmask 11100110
          -54 -4 vlineto
          hintmask 11101010
          -25 -12 -25 -24 -25 12 -24 25 hvcurveto
          hintmask 11100110
          4 -484 hlineto
          -96 callgsubr
          271 199 vlineto
          -199 120 rmoveto
          93 199 -93 vlineto
          endchar
        </CharString>
        <CharString name="Hcircumflex">
          104 21 -21 319 120 292 77 151 -20 hstem
          54 156 199 -44 callsubr
          409 -93 callsubr
          -245 -199 245 vlineto
          -91 callgsubr
          -636 vlineto
          -96 callgsubr
          271 199 vlineto
          -99 548 -53 callsubr
          -107 callsubr
          endchar
        </CharString>
        <CharString name="I">
          -25 callgsubr
          hstem
          54 -44 callsubr
          54 -93 callsubr
          endchar
        </CharString>
        <CharString name="IJ">
          290 -6 136 -109 -21 595 136 -44 callgsubr
          53 -19 callgsubr
          156 hintmask 01111100
          54 -93 callsubr
          544 -89 rmoveto
          -365 vlineto
          hintmask 10111100
          -77 callsubr
          endchar
        </CharString>
        <CharString name="Iacute">
          -251 -23 callsubr
          31 221 -198 156 hintmask 11101000
          54 -93 callsubr
          178 183 rmoveto
          hintmask 11110000
          -107 callgsubr
          endchar
        </CharString>
        <CharString name="Ibreve">
          -25 callgsubr
          113 -6 callsubr
          -7 80 -19 156 hintmask 11010100
          54 -93 callsubr
          138 279 rmoveto
          hintmask 11101000
          -34 callgsubr
          hintmask 11011000
          -87 callgsubr
          endchar
        </CharString>
        <CharString name="Icircumflex">
          -25 callgsubr
          248 -20 hstem
          54 -44 callsubr
          54 -93 callsubr
          80 183 -53 callsubr
          -107 callsubr
          endchar
        </CharString>
        <CharString name="Idieresis">
          -25 callgsubr
          99 117 hstemhm
          -3 113 -56 156 -53 113 hintmask 11101000
          54 -93 callsubr
          243 vmoveto
          hintmask 11110100
          -31 -26 -27 -31 hvcurveto
          hintmask 11101000
          -31 26 -28 31 vhcurveto
          hintmask 11110100
          31 25 28 31 hvcurveto
          hintmask 11101000
          31 -25 27 -31 vhcurveto
          160 hmoveto
          hintmask 11110100
          -86 callsubr
        </CharString>
        <CharString name="Idotaccent">
          -25 callgsubr
          99 117 -44 callgsubr
          -134 113 hintmask 11110000
          54 -93 callsubr
          79 243 rmoveto
          hintmask 11101000
          -86 callsubr
        </CharString>
        <CharString name="Igrave">
          -251 -23 callsubr
          13 221 -180 156 hintmask 11101000
          54 -93 callsubr
          119 118 -62 callgsubr
          hintmask 11110000
          -100 callgsubr
          endchar
        </CharString>
        <CharString name="Imacron">
          -25 callgsubr
          128 99 hstem
          54 -44 callsubr
          54 -93 callsubr
          -70 204 rmoveto
          -92 callgsubr
          endchar
        </CharString>
        <CharString name="Iogonek">
          -251 -218 63 886 -20 hstemhm
          26 11 callsubr
          -128 156 hintmask 11100000
          157 -42 callsubr
          38 32 51 43 25 hvcurveto
          hintmask 11001000
          21 7 15 14 20 vvcurveto
          636 vlineto
          -91 callgsubr
          -636 vlineto
          -21 16 -14 22 -7 vhcurveto
          hintmask 11010000
          -42 -35 -24 -49 -43 -14 callsubr
          -51 callgsubr
          vhcurveto
          endchar
        </CharString>
        <CharString name="Itilde">
          -25 callgsubr
          107 101 -74 74 -44 callgsubr
          hintmask 11011000
          54 -93 callsubr
          24 161 rmoveto
          hintmask 11101000
          -90 callsubr
          hintmask 11011000
          -90 callgsubr
          endchar
        </CharString>
        <CharString name="J">
          33 -58 callsubr
          hstem
          6 -55 callsubr
          341 595 rmoveto
          -365 vlineto
          -77 callsubr
          endchar
        </CharString>
        <CharString name="Jcircumflex">
          33 -58 callsubr
          0 77 151 -20 hstemhm
          6 -19 callgsubr
          156 hintmask 11011100
          341 595 rmoveto
          -365 vlineto
          -77 callsubr
          20 272 -53 callsubr
          hintmask 10111100
          -107 callsubr
          endchar
        </CharString>
        <CharString name="K">
          51 15 -21 27 -21 731 -13 callgsubr
          hintmask 01110000
          -63 callsubr
          181 vlineto
          42 54 171 -260 rlineto
          hintmask 10110000
          -57 callsubr
          endchar
        </CharString>
        <CharString name="Kcommaaccent">
          51 -188 -21 224 -21 27 -21 731 -13 callgsubr
          -33 221 hintmask 10111000
          -63 callsubr
          181 vlineto
          42 54 171 -260 rlineto
          hintmask 11011000
          -57 callsubr
          324 -824 rmoveto
          hintmask 10110100
          -107 callgsubr
          endchar
        </CharString>
        <CharString name="L">
          -23 5 callgsubr
          595 -20 hstem
          54 -44 callsubr
          -83 callsubr
          endchar
        </CharString>
        <CharString name="Lacute">
          -23 5 callgsubr
          595 -20 248 -13 callgsubr
          -64 221 hintmask 11110000
          -83 callsubr
          225 867 rmoveto
          hintmask 11101000
          -107 callgsubr
          endchar
        </CharString>
        <CharString name="Lcaron">
          -21 5 callgsubr
          351 244 10 -13 callgsubr
          103 153 hintmask 11011000
          -83 callsubr
          hintmask 10111000
          267 741 rmoveto
          -42 -34 -35 -42 -29 16 -25 24 -14 hvcurveto
          -25 -54 rlineto
          -3 -6 -1 -5 -5 vvcurveto
          hintmask 11011000
          -25 29 -14 21 11 13 4 14 6 vhcurveto
          59 137 3 11 12 vvcurveto
          hintmask 10111000
          41 -35 35 -42 vhcurveto
          endchar
        </CharString>
        <CharString name="Lcommaaccent">
          -23 -188 -21 209 136 595 -13 callgsubr
          -60 221 hintmask 11110000
          -83 callsubr
          229 -140 rmoveto
          hintmask 11101000
          -107 callgsubr
          endchar
        </CharString>
        <CharString name="Ldot">
          -22 5 callgsubr
          213 143 239 -20 hstem
          54 156 90 163 vstem
          -83 callsubr
          260 492 rmoveto
          -76 callgsubr
          endchar
        </CharString>
        <CharString name="Lslash">
          -17 5 callgsubr
          595 -20 hstemhm
          -10 226 -156 156 hintmask 11100000
          444 hmoveto
          30 15 34 34 34 -15 34 -30 hvcurveto
          -228 190 hlineto
          92 43 rlineto
          14 callsubr
          -45 -21 rlineto
          236 vlineto
          33 -39 14 -39 vhcurveto
          hintmask 11010000
          -39 -39 -14 -33 hvcurveto
          -309 vlineto
          -52 -24 -2 callgsubr
          5 2 rlineto
          -205 vlineto
          -32 34 -16 34 vhcurveto
          endchar
        </CharString>
        <CharString name="M">
          197 -35 callsubr
          hstem
          54 156 292 -44 callsubr
          502 423 rmoveto
          -375 vlineto
          -96 callgsubr
          605 vlineto
          57 -38 21 -40 -56 -24 -6 -72 -41 vhcurveto
          -103 -180 -103 180 rlineto
          72 -41 -24 6 -56 hhcurveto
          -39 -39 -21 -57 hvcurveto
          -605 vlineto
          -96 callgsubr
          385 vlineto
          95 -174 rlineto
          -23 12 19 -6 18 hhcurveto
          19 20 7 22 13 hvcurveto
          endchar
        </CharString>
        <CharString name="N">
          104 -35 callsubr
          hstem
          54 156 199 -44 callsubr
          -94 callsubr
          endchar
        </CharString>
        <CharString name="Nacute">
          104 -23 callsubr
          54 156 -25 221 3 38 callsubr
          -94 callsubr
          -101 867 rmoveto
          hintmask 11101100
          -107 callgsubr
          endchar
        </CharString>
        <CharString name="Ncaron">
          104 -35 callsubr
          260 -20 hstem
          54 156 199 -44 callsubr
          -94 callsubr
          -281 968 -106 callgsubr
          endchar
        </CharString>
        <CharString name="Ncommaaccent">
          104 30 callsubr
          731 -13 callgsubr
          -11 221 -11 38 callsubr
          -94 callsubr
          -87 -140 rmoveto
          hintmask 11101000
          -107 callgsubr
          endchar
        </CharString>
        <CharString name="Ntilde">
          104 -35 callsubr
          107 101 -74 74 -44 callgsubr
          199 69 -69 156 hintmask 11011010
          -94 callsubr
          -240 845 rmoveto
          hintmask 11101100
          -90 callsubr
          hintmask 11011100
          -90 callgsubr
          endchar
        </CharString>
        <CharString name="O">
          68 -58 callsubr
          hstem
          46 -55 callsubr
          291 -105 callsubr
          endchar
        </CharString>
        <CharString name="OE">
          311 5 callgsubr
          -121 -21 312 -46 callsubr
          hstemhm
          47 -19 callgsubr
          157 hintmask 01111100
          262 -6 rmoveto
          53 63 24 50 25 hvcurveto
          -20 vlineto
          hintmask 10111100
          -32 34 -16 34 vhcurveto
          294 hlineto
          33 14 35 32 37 -17 32 -30 hvcurveto
          -226 170 108 hlineto
          33 14 32 27 32 -17 29 -30 hvcurveto
          -108 169 226 hlineto
          30 17 32 37 32 -14 35 -33 hvcurveto
          -294 hlineto
          -34 -34 -16 -32 hvcurveto
          -26 vlineto
          49 -25 -63 25 -53 hhcurveto
          -126 -89 -64 -172 hvcurveto
          -265 vlineto
          hintmask 01111100
          -172 89 -64 126 vhcurveto
          120 236 rmoveto
          -69 -34 -31 -56 -56 -33 31 69 vhcurveto
          265 vlineto
          69 33 31 56 56 34 -31 -69 vhcurveto
          endchar
        </CharString>
        <CharString name="Oacute">
          68 -58 callsubr
          228 -20 -13 callsubr
          23 221 -65 38 callsubr
          291 -105 callsubr
          45 372 rmoveto
          hintmask 11111000
          -107 callgsubr
          endchar
        </CharString>
        <CharString name="Obreve">
          68 -58 callsubr
          93 -6 callsubr
          46 156 -51 80 150 156 hintmask 11011010
          291 -105 callsubr
          -31 468 rmoveto
          hintmask 11101010
          -34 callgsubr
          hintmask 11010110
          -87 callgsubr
          endchar
        </CharString>
        <CharString name="Ocircumflex">
          68 -6 136 465 17 callsubr
          hintmask 11011100
          291 -105 callsubr
          -90 372 -53 callsubr
          hintmask 10111100
          -107 callsubr
          endchar
        </CharString>
        <CharString name="Odieresis">
          68 -58 callsubr
          79 117 -13 callsubr
          -46 -30 callsubr
          -48 156 hintmask 11110010
          291 -105 callsubr
          -168 432 rmoveto
          hintmask 11101100
          -102 callsubr
        </CharString>
        <CharString name="Ograve">
          68 -58 callsubr
          228 -20 -13 callsubr
          -37 221 -5 38 callsubr
          291 -105 callsubr
          -56 307 -62 callgsubr
          hintmask 11101000
          -100 callgsubr
          endchar
        </CharString>
        <CharString name="Ohungarumlaut">
          68 -58 callsubr
          64 166 hstem
          46 -55 callsubr
          291 -105 callsubr
          -73 406 -98 callsubr
          239 95 -98 callsubr
          endchar
        </CharString>
        <CharString name="Omacron">
          68 -58 callsubr
          108 99 hstem
          46 -55 callsubr
          291 -105 callsubr
          -237 393 rmoveto
          -92 callgsubr
          endchar
        </CharString>
        <CharString name="Omega">
          69 0 135 460 136 hstemhm
          35 229 -217 156 117 217 -217 229 -168 156 hintmask 11100100
          320 hmoveto
          182 hlineto
          28 19 30 38 40 -22 27 -25 hvcurveto
          -97 12 hlineto
          hintmask 11011000
          77 27 55 71 125 vvcurveto
          125 vlineto
          172 -107 64 -138 -46 callgsubr
          vhcurveto
          -125 vlineto
          -126 53 -69 79 -28 vhcurveto
          -12 -97 vlineto
          hintmask 11101000
          -25 -22 -27 -40 -38 19 -30 28 hvcurveto
          182 275 hlineto
          hintmask 11010010
          -41 -20 38 57 hvcurveto
          125 vlineto
          69 33 31 56 56 33 -31 -69 vhcurveto
          -125 vlineto
          hintmask 11100100
          -55 -20 -31 -41 -9 vhcurveto
          endchar
        </CharString>
        <CharString name="Oslash">
          68 -25 -21 40 -55 callgsubr
          41 -20 hstem
          46 -55 callsubr
          -71 callsubr
          -262 -277 15 callgsubr
          0 callgsubr
        </CharString>
        <CharString name="Oslashacute">
          68 -25 -21 40 -55 callgsubr
          228 -20 -13 callsubr
          3 221 -45 156 hintmask 11111010
          -71 callsubr
          -58 95 rmoveto
          hintmask 11111100
          -107 callgsubr
          -64 -307 15 callgsubr
          hintmask 11111010
          0 callgsubr
        </CharString>
        <CharString name="Otilde">
          68 -58 callsubr
          87 101 -74 74 hstemhm
          46 -19 callgsubr
          156 hintmask 11011100
          291 -105 callsubr
          -143 350 rmoveto
          hintmask 11101100
          -90 callsubr
          hintmask 11011100
          -90 callgsubr
          endchar
        </CharString>
        <CharString name="P">
          54 21 -21 264 120 211 136 hstem
          54 156 189 -44 callsubr
          -63 callsubr
          216 99 vlineto
          138 108 64 168 hvcurveto
          5 vlineto
          168 -104 62 -132 vhcurveto
          -207 hlineto
          -35 -23 -22 -25 hvcurveto
          255 -89 rmoveto
          56 34 -32 -68 hvcurveto
          -11 vlineto
          -68 -34 -32 -56 vhcurveto
          -99 211 hlineto
          endchar
        </CharString>
        <CharString name="Q">
          68 -88 -21 704 136 hstem
          46 156 41 96 42 -44 callsubr
          291 -109 rmoveto
          24 24 16 32 hvcurveto
          58 vlineto
          114 14 84 67 152 vvcurveto
          265 vlineto
          173 -108 63 -138 -138 -107 -63 -173 vhcurveto
          -265 vlineto
          -152 83 -67 114 -14 vhcurveto
          -58 vlineto
          -32 24 -16 24 vhcurveto
          90 339 rmoveto
          -46 -16 -29 -26 -15 vhcurveto
          44 vlineto
          33 -24 14 -24 -24 -24 -10 callgsubr
          -44 vlineto
          -27 15 -14 29 46 vvcurveto
          265 vlineto
          68 33 32 56 56 34 -32 -68 vhcurveto
          endchar
        </CharString>
        <CharString name="R">
          -12 callsubr
          -44 callgsubr
          189 156 hintmask 01111100
          -63 callsubr
          241 66 vlineto
          137 -266 rlineto
          hintmask 10111100
          -88 callgsubr
          endchar
        </CharString>
        <CharString name="Racute">
          -12 callsubr
          228 -13 callgsubr
          8 221 -40 156 hintmask 01111110
          -63 callsubr
          241 66 vlineto
          137 -266 rlineto
          hintmask 10111101
          -88 callgsubr
          209 272 rmoveto
          hintmask 01111110
          -107 callgsubr
          endchar
        </CharString>
        <CharString name="Rcaron">
          -12 callsubr
          240 -13 callgsubr
          189 156 hintmask 01111110
          -63 callsubr
          241 66 vlineto
          137 -266 rlineto
          hintmask 10111110
          -88 callgsubr
          -40 373 -106 callgsubr
          endchar
        </CharString>
        <CharString name="Rcommaaccent">
          69 -188 -21 224 2 callgsubr
          -44 callgsubr
          -27 221 -5 156 hintmask 10111101
          -63 callsubr
          241 66 vlineto
          137 -266 rlineto
          hintmask 11011101
          -88 callgsubr
          174 -735 rmoveto
          hintmask 10111010
          -107 callgsubr
          endchar
        </CharString>
        <CharString name="S">
          15 callsubr
          hstemhm
          37 156 161 156 hintmask 10101100
          24 callsubr
          hintmask 01011100
          -82 callgsubr
          hintmask 10101100
          -87 callsubr
          endchar
        </CharString>
        <CharString name="Sacute">
          15 callsubr
          222 -20 hstemhm
          37 156 -15 221 -45 156 hintmask 10101101
          24 callsubr
          hintmask 01011101
          -82 callgsubr
          hintmask 10101101
          -87 callsubr
          122 737 rmoveto
          hintmask 10101010
          -107 callgsubr
          endchar
        </CharString>
        <CharString name="Scaron">
          15 callsubr
          234 -20 hstemhm
          37 156 161 156 hintmask 10101110
          24 callsubr
          hintmask 01011110
          -82 callgsubr
          hintmask 10101110
          -87 callsubr
          -96 838 -106 callgsubr
          endchar
        </CharString>
        <CharString name="Scedilla">
          18 -15 callgsubr
          37 -52 callgsubr
          hstemhm
          37 156 5 199 -69 69 -43 156 hintmask 1001010110000000
          24 callsubr
          hintmask 1000110101000000
          -93 -30 74 -47 hhcurveto
          -38 -30 -50 -34 -64 102 -62 125 -4 hvcurveto
          -23 -79 62 -6 rlineto
          -21 callgsubr
          hintmask 0101010110000000
          -60 callgsubr
          hintmask 0011001100100000
          9 callgsubr
          13 41 rlineto
          119 16 81 75 127 252 -317 -19 100 vvcurveto
          31 29 29 71 vhcurveto
          hintmask 1001010100100000
          -87 callsubr
          endchar
        </CharString>
        <CharString name="Scircumflex">
          18 -10 140 437 170 -132 132 0 71 151 -20 hstemhm
          37 156 161 156 hintmask 10101110
          24 callsubr
          -82 callgsubr
          hintmask 11001110
          -87 callsubr
          7 737 -53 callsubr
          hintmask 10011110
          -107 callsubr
          endchar
        </CharString>
        <CharString name="Scommaaccent">
          18 -188 -21 199 -52 callgsubr
          hstemhm
          37 156 -28 221 -32 156 hintmask 11010101
          24 callsubr
          hintmask 10101101
          -82 callgsubr
          hintmask 11010101
          -87 callsubr
          109 -270 rmoveto
          hintmask 11010010
          -107 callgsubr
          endchar
        </CharString>
        <CharString name="T">
          27 21 -21 591 140 hstem
          193 -44 callsubr
          -66 callgsubr
          endchar
        </CharString>
        <CharString name="Tbar">
          27 21 -21 310 110 171 140 hstem
          193 -44 callsubr
          55 731 rmoveto
          -33 -14 -36 -33 -38 17 -33 30 hvcurveto
          138 -171 -68 hlineto
          -33 callgsubr
          68 -262 hlineto
          -96 callgsubr
          262 67 vlineto
          -23 callgsubr
          -67 171 138 hlineto
          18 callsubr
          endchar
        </CharString>
        <CharString name="Tcaron">
          27 21 -21 591 140 240 -20 hstem
          193 -44 callsubr
          -66 callgsubr
          -321 237 -106 callgsubr
          endchar
        </CharString>
        <CharString name="Tcommaaccent">
          27 30 callsubr
          591 140 hstemhm
          157 221 -185 156 hintmask 11101000
          -66 callgsubr
          -129 -871 rmoveto
          hintmask 11110000
          -107 callgsubr
          endchar
        </CharString>
        <CharString name="Thorn">
          14 21 -21 131 -63 callgsubr
          125 -20 hstem
          54 -50 callgsubr
          vstem
          128 748 rmoveto
          -41 -33 -19 -28 hvcurveto
          -653 -29 callsubr
          163 -20 callsubr
          115 -78 95 -101 -58 -46 -37 -39 -21 vhcurveto
          154 vlineto
          28 -34 19 -47 vhcurveto
          230 -405 -9 callgsubr
        </CharString>
        <CharString name="U">
          -32 callgsubr
          hstem
          51 156 192 -44 callsubr
          -103 callsubr
          endchar
        </CharString>
        <CharString name="Uacute">
          -32 callgsubr
          248 -20 hstemhm
          51 156 13 221 -42 38 callsubr
          -103 callsubr
          22 183 rmoveto
          hintmask 11111000
          -107 callgsubr
          endchar
        </CharString>
        <CharString name="Ubreve">
          -32 callgsubr
          113 -6 callsubr
          51 156 -48 80 160 156 hintmask 11011010
          -103 callsubr
          -41 279 rmoveto
          hintmask 11101010
          -34 callgsubr
          hintmask 11010110
          -87 callgsubr
          endchar
        </CharString>
        <CharString name="Ucircumflex">
          -35 callgsubr
          77 151 -20 hstem
          51 156 192 -44 callsubr
          -103 callsubr
          -103 183 -53 callsubr
          -107 callsubr
          endchar
        </CharString>
        <CharString name="Udieresis">
          -32 callgsubr
          99 117 hstemhm
          51 156 -41 -30 callsubr
          -40 156 hintmask 11110010
          -103 callsubr
          -176 243 rmoveto
          hintmask 11101100
          -102 callsubr
        </CharString>
        <CharString name="Ugrave">
          -32 callgsubr
          248 -20 hstemhm
          51 156 -37 221 8 38 callsubr
          -103 callsubr
          -69 118 -62 callgsubr
          hintmask 11101100
          -100 callgsubr
          endchar
        </CharString>
        <CharString name="Uhungarumlaut">
          -32 callgsubr
          84 166 hstem
          51 156 192 -44 callsubr
          -103 callsubr
          -85 217 -98 callsubr
          239 95 -98 callsubr
          endchar
        </CharString>
        <CharString name="Umacron">
          -32 callgsubr
          128 99 hstem
          51 156 192 -44 callsubr
          -103 callsubr
          -246 204 rmoveto
          -92 callgsubr
          endchar
        </CharString>
        <CharString name="Uogonek">
          91 -218 63 149 -3 callsubr
          -20 hstemhm
          51 156 50 11 callsubr
          -14 156 hintmask 11111010
          388 -42 callsubr
          39 34 52 45 25 hvcurveto
          87 27 59 68 126 vvcurveto
          454 vlineto
          33 -40 14 -38 -40 -38 -10 callgsubr
          -454 vlineto
          -68 -36 -32 -60 -60 -36 32 68 vhcurveto
          454 vlineto
          33 -40 14 -38 -40 -38 -10 callgsubr
          -454 vlineto
          -172 110 -64 142 vhcurveto
          7 hlineto
          -34 -33 -19 -44 -38 -26 callsubr
          endchar
        </CharString>
        <CharString name="Uring">
          -32 callgsubr
          93 60 81 63 hstemhm
          51 156 -5 59 80 61 -3 156 hintmask 11111001
          -103 callsubr
          -98 324 rmoveto
          hintmask 11110110
          -65 callsubr
        </CharString>
        <CharString name="Utilde">
          -32 callgsubr
          107 101 -74 74 hstemhm
          51 156 192 75 -75 156 hintmask 11011010
          -103 callsubr
          -156 161 rmoveto
          hintmask 11101100
          -90 callsubr
          hintmask 11011100
          -90 callgsubr
          endchar
        </CharString>
        <CharString name="V">
          74 34 callsubr
          hstem
          193 46 rmoveto
          -35 11 45 -17 46 hhcurveto
          46 45 17 35 11 hvcurveto
          186 610 rlineto
          1 4 1 4 3 vvcurveto
          37 -57 27 -43 -25 -20 -8 -21 -6 vhcurveto
          -139 -513 -140 513 rlineto
          21 -6 -20 8 -25 hhcurveto
          -43 -57 -27 -37 -3 1 -4 1 -4 hvcurveto
          endchar
        </CharString>
        <CharString name="W">
          20 callsubr
          hstem
          -101 callsubr
          endchar
        </CharString>
        <CharString name="Wacute">
          32 callgsubr
          370 221 vstem
          -101 callsubr
          -145 821 rmoveto
          -107 callgsubr
          endchar
        </CharString>
        <CharString name="Wcircumflex">
          32 callgsubr
          -101 callsubr
          -256 821 -53 callsubr
          -107 callsubr
          endchar
        </CharString>
        <CharString name="Wdieresis">
          20 callsubr
          99 117 hstem
          324 -30 callsubr
          vstem
          -101 callsubr
          -335 881 rmoveto
          -102 callsubr
        </CharString>
        <CharString name="Wgrave">
          32 callgsubr
          330 221 vstem
          -101 callsubr
          -226 756 -62 callgsubr
          -100 callgsubr
          endchar
        </CharString>
        <CharString name="X">
          75 15 -21 743 -20 hstem
          441 10 rmoveto
          -11 6 15 -5 16 hhcurveto
          43 61 34 43 9 -3 9 -6 10 hvcurveto
          -173 267 166 266 rlineto
          7 11 3 10 10 vvcurveto
          42 -57 32 -44 -22 -15 -8 -18 -10 vhcurveto
          -133 -232 -133 232 rlineto
          18 -10 -15 8 -22 hhcurveto
          -44 -57 -32 -42 -10 3 -10 7 -11 hvcurveto
          166 -266 -173 -267 rlineto
          -6 -10 -3 -9 -9 vvcurveto
          -43 61 -34 43 16 14 5 11 7 vhcurveto
          146 248 rlineto
          endchar
        </CharString>
        <CharString name="Y">
          75 -35 callsubr
          hstem
          217 -44 callsubr
          -98 callgsubr
          endchar
        </CharString>
        <CharString name="Yacute">
          75 -23 callsubr
          205 221 -209 156 hintmask 11101000
          -98 callgsubr
          189 568 rmoveto
          hintmask 11110000
          -107 callgsubr
          endchar
        </CharString>
        <CharString name="Ycircumflex">
          75 21 -21 731 77 151 -20 hstem
          217 -44 callsubr
          -98 callgsubr
          78 568 -53 callsubr
          -107 callsubr
          endchar
        </CharString>
        <CharString name="Ydieresis">
          75 -35 callsubr
          99 117 hstemhm
          159 113 -55 156 -54 113 hintmask 11101000
          -98 callgsubr
          -1 628 rmoveto
          hintmask 11110100
          -102 callsubr
        </CharString>
        <CharString name="Ygrave">
          75 -23 callsubr
          164 221 -168 156 hintmask 11101000
          -98 callgsubr
          107 503 -62 callgsubr
          hintmask 11110000
          -100 callgsubr
          endchar
        </CharString>
        <CharString name="Z">
          21 -5 callsubr
          hstem
          -89 callsubr
          endchar
        </CharString>
        <CharString name="Zacute">
          21 -5 callsubr
          228 -20 hstem
          191 221 vstem
          -89 callsubr
          184 731 rmoveto
          -107 callgsubr
          endchar
        </CharString>
        <CharString name="Zcaron">
          21 -5 callsubr
          240 -20 hstem
          -89 callsubr
          -38 832 -106 callgsubr
          endchar
        </CharString>
        <CharString name="Zdotaccent">
          21 -5 callsubr
          79 117 hstem
          226 113 vstem
          -89 callsubr
          75 791 rmoveto
          -86 callsubr
        </CharString>
        <CharString name="a">
          -73 callsubr
          4 callgsubr
          hintmask 10110110
          215 -20 callgsubr
          -60 callsubr
          hintmask 10101110
          -94 callgsubr
          hintmask 01110110
          -85 callgsubr
          hintmask 10110110
          -79 callsubr
        </CharString>
        <CharString name="a.ss01">
          -5 -10 16 callsubr
          114 155 -155 221 hintmask 11101100
          223 -20 callgsubr
          -82 -97 -28 -58 -25 18 -46 32 hvcurveto
          hintmask 11011100
          27 19 33 64 hhcurveto
          71 13 -40 -34 hvcurveto
          -10 -36 vlineto
          -137 -97 -33 -117 -93 62 -41 71 68 56 38 42 36 hvcurveto
          -47 8 54 -33 63 hhcurveto
          hintmask 11101010
          38 35 15 65 39 -9 15 -25 5 hvcurveto
          hintmask 11101100
          -14 2 -18 4 53 vvcurveto
          98 vlineto
          100 -68 96 -152 vhcurveto
          65 -287 rmoveto
          -51 -43 -41 -35 -19 -17 13 28 49 52 6 58 vhcurveto
          4 hlineto
          endchar
        </CharString>
        <CharString name="aacute">
          -73 callsubr
          238 -20 hstemhm
          18 156 -29 221 -78 155 hintmask 1011011010000000
          215 -20 callgsubr
          -60 callsubr
          hintmask 1010111010000000
          -94 callgsubr
          hintmask 0111011010000000
          -85 callgsubr
          hintmask 1011011010000000
          -84 callsubr
          58 429 rmoveto
          hintmask 1011010100000000
          -107 callgsubr
          endchar
        </CharString>
        <CharString name="abreve">
          -73 callsubr
          103 -6 callsubr
          18 156 -80 80 114 85 -85 155 hintmask 1011001101000000
          293 724 rmoveto
          hintmask 1011010101000000
          -34 callgsubr
          hintmask 1011001011000000
          -87 callgsubr
          -158 -242 rmoveto
          -60 callsubr
          hintmask 1010110101000000
          -94 callgsubr
          hintmask 0111010100100000
          -85 callgsubr
          hintmask 1011010101000000
          -79 callsubr
        </CharString>
        <CharString name="acircumflex">
          -31 -10 113 -82 -21 103 96 0 75 0 51 0 157 -124 124 0 87 151 -20 4 callgsubr
          hintmask 1001000111100000
          226 628 -53 callsubr
          -107 callsubr
          93 -90 rmoveto
          -74 -97 -33 -47 hvcurveto
          hintmask 1000101011100000
          -36 18 -41 34 vhcurveto
          -94 callgsubr
          hintmask 0101010011100000
          -85 callgsubr
          hintmask 0110010011100000
          -79 callsubr
        </CharString>
        <CharString name="acute">
          22 callsubr
          201 628 rmoveto
          -107 callgsubr
          endchar
        </CharString>
        <CharString name="adieresis">
          -73 callsubr
          89 117 hstemhm
          18 156 -77 -30 callsubr
          -82 155 hintmask 1011010110000000
          154 688 rmoveto
          -99 callgsubr
          -99 -206 rmoveto
          -60 callsubr
          hintmask 1010111001000000
          -94 callgsubr
          hintmask 0111011001000000
          -85 callgsubr
          hintmask 1011011001000000
          -79 callsubr
        </CharString>
        <CharString name="ae">
          -12 callgsubr
          hstemhm
          17 10 callgsubr
          145 145 hintmask 1010100111000000
          -18 callsubr
          hintmask 1010010111000000
          -41 callsubr
          hintmask 0110100111000000
          24 -21 44 -36 vhcurveto
          hintmask 1010001111000000
          -33 -30 -37 -62 hhcurveto
          -61 -41 33 49 hvcurveto
          6 193 vlineto
          46 51 4 89 113 -100 77 -115 hvcurveto
          hintmask 1001001111000000
          -37 callgsubr
          endchar
        </CharString>
        <CharString name="aeacute">
          -12 callgsubr
          238 -20 hstemhm
          17 10 callgsubr
          -155 213 87 145 hintmask 1010100111010000
          -18 callsubr
          hintmask 1010010111010000
          -41 callsubr
          hintmask 0110100111010000
          24 -21 44 -36 vhcurveto
          hintmask 1010001111010000
          -33 -30 -37 -62 hhcurveto
          -61 -41 33 49 hvcurveto
          6 193 vlineto
          46 51 4 89 113 -100 77 -115 hvcurveto
          hintmask 1001001111010000
          -37 callgsubr
          193 429 rmoveto
          hintmask 1010100110110000
          -107 callgsubr
          endchar
        </CharString>
        <CharString name="agrave">
          -73 callsubr
          238 -20 hstemhm
          18 156 -49 221 -58 155 hintmask 1011010100000000
          285 563 -62 callgsubr
          -100 callgsubr
          70 -146 rmoveto
          -60 callsubr
          hintmask 1010111010000000
          -94 callgsubr
          hintmask 0111011010000000
          -85 callgsubr
          hintmask 1011011010000000
          -79 callsubr
        </CharString>
        <CharString name="amacron">
          -73 callsubr
          118 99 4 callgsubr
          hintmask 10110111
          91 649 rmoveto
          -92 callgsubr
          124 -167 rmoveto
          -60 callsubr
          hintmask 10101111
          -94 callgsubr
          hintmask 01110111
          -85 callgsubr
          hintmask 10110111
          -79 callsubr
        </CharString>
        <CharString name="ampersand">
          140 -10 135 426 197 -124 124 hstemhm
          18 157 -102 144 hintmask 10101000
          324 401 rmoveto
          -40 41 -67 57 57 vvcurveto
          45 35 23 43 vhcurveto
          hintmask 11001000
          76 8 -73 51 hhcurveto
          36 38 36 36 54 -84 71 -126 -123 -98 -68 -117 -62 28 -42 37 -41 hvcurveto
          hintmask 11010000
          -65 -39 -55 -78 -88 vvcurveto
          -118 102 -105 158 84 68 29 44 53 vhcurveto
          54 -55 rlineto
          -14 14 11 -4 13 hhcurveto
          36 36 32 31 8 -2 9 -7 8 hvcurveto
          -76 78 rlineto
          39 62 19 68 54 vvcurveto
          44 -11 27 -55 -107 59 -67 -92 -38 vhcurveto
          -173 -127 rmoveto
          -78 -42 42 59 43 21 34 29 25 hvcurveto
          167 -171 rlineto
          -20 -23 -32 -12 -42 hhcurveto
          endchar
        </CharString>
        <CharString name="aogonek">
          -31 -218 63 145 16 callsubr
          85 11 callsubr
          -127 155 hintmask 1111011000000000
          390 -42 callsubr
          38 31 50 43 25 hvcurveto
          hintmask 1111010010000000
          23 8 14 16 18 vvcurveto
          238 vlineto
          101 -64 95 -164 -74 -97 -33 -47 -36 18 -41 34 vhcurveto
          hintmask 1110110010000000
          -94 callgsubr
          -17 11 -15 19 -8 vhcurveto
          hintmask 1111010100000000
          -44 -35 -25 -50 -44 -14 callsubr
          -51 callgsubr
          vhcurveto
          hintmask 1111010010000000
          -102 350 rmoveto
          -79 callsubr
        </CharString>
        <CharString name="approxequal">
          -71 105 109 -82 82 100 109 -82 82 hstemhm
          hintmask 10010000
          169 341 rmoveto
          -2 callsubr
          hintmask 01010000
          6 callgsubr
          -209 vmoveto
          -2 callsubr
          hintmask 01100000
          6 callgsubr
          endchar
        </CharString>
        <CharString name="aring">
          -73 callsubr
          83 60 81 63 hstemhm
          18 156 -37 59 80 61 -49 155 hintmask 1011011011000000
          236 -40 callsubr
          -61 -185 rmoveto
          -60 callsubr
          hintmask 1010111100100000
          -94 callgsubr
          hintmask 0111011100100000
          -85 callgsubr
          hintmask 1011011100100000
          -79 callsubr
        </CharString>
        <CharString name="arrowdown">
          17 callgsubr
          164 rmoveto
          -11 4 -10 8 -8 vhcurveto
          191 -191 12 -12 11 -6 11 -1 rlinecurve
          10 11 7 12 12 hvcurveto
          191 191 rlineto
          8 8 4 10 11 vvcurveto
          35 -37 37 -36 -11 -10 -3 -8 -8 vhcurveto
          -71 -71 rlineto
          355 vlineto
          28 -25 19 -38 -36 -28 -19 -28 vhcurveto
          -355 vlineto
          -71 71 rlineto
          8 -8 -10 3 -11 hhcurveto
          -36 -37 -37 -35 hvcurveto
          endchar
        </CharString>
        <CharString name="arrowleft">
          27 callgsubr
          309 477 rmoveto
          -11 -10 -4 -8 -8 hvcurveto
          -191 -191 rlineto
          -13 -13 -6 -11 -10 vvcurveto
          -10 7 -11 12 -12 vhcurveto
          191 -191 rlineto
          -8 8 10 -4 11 hhcurveto
          35 37 37 36 11 -3 10 -8 8 hvcurveto
          -71 71 rlineto
          355 hlineto
          28 19 25 38 36 -19 28 -28 hvcurveto
          -355 hlineto
          71 71 rlineto
          8 8 3 10 11 vvcurveto
          36 -37 37 -35 vhcurveto
          endchar
        </CharString>
        <CharString name="arrowright">
          27 callgsubr
          462 477 rmoveto
          -35 -37 -37 -36 -11 3 -10 8 -8 hvcurveto
          71 -71 rlineto
          -355 8 callgsubr
          355 hlineto
          -71 -71 rlineto
          -8 -8 -3 -10 -11 vvcurveto
          -36 37 -37 35 11 10 4 8 8 vhcurveto
          191 191 rlineto
          12 12 7 11 10 vvcurveto
          11 -7 10 -12 13 vhcurveto
          -191 191 rlineto
          8 -8 -10 4 -11 hhcurveto
          endchar
        </CharString>
        <CharString name="arrowup">
          17 callgsubr
          317 rmoveto
          -35 37 -37 36 11 10 3 8 8 vhcurveto
          71 71 rlineto
          -355 vlineto
          -28 28 -19 36 38 25 19 28 vhcurveto
          355 vlineto
          71 -71 rlineto
          -8 8 10 -3 11 hhcurveto
          36 37 37 35 11 -4 10 -8 8 hvcurveto
          -191 191 rlineto
          12 -12 -11 7 -10 hhcurveto
          -11 -1 -11 -6 -12 -12 -191 -191 rcurveline
          -8 -8 -4 -10 -11 vvcurveto
          endchar
        </CharString>
        <CharString name="asciicircum">
          -223 590 -21 151 -20 hstem
          146 628 -53 callsubr
          -107 callsubr
          endchar
        </CharString>
        <CharString name="asciitilde">
          -104 192 101 -74 74 hstemhm
          hintmask 01000000
          152 219 rmoveto
          hintmask 10000000
          -90 callsubr
          hintmask 01000000
          -90 callgsubr
          endchar
        </CharString>
        <CharString name="asterisk">
          -24 325 -21 427 -20 hstem
          194 103 vstem
          332 488 rmoveto
          102 24 rlineto
          24 5 10 19 20 vvcurveto
          29 -21 33 -31 -5 -5 -1 -2 -5 vhcurveto
          -106 -36 4 104 rlineto
          33 -1 -24 15 -28 hhcurveto
          -28 -25 -15 -33 -1 hvcurveto
          5 -102 -105 34 rlineto
          3 -7 -5 0 -3 hhcurveto
          -32 -23 -29 -26 -26 11 -20 23 -5 hvcurveto
          104 -30 -66 -94 rlineto
          -7 -8 -5 -11 -13 vvcurveto
          -33 39 -19 24 14 12 3 15 9 vhcurveto
          66 101 65 -100 rlineto
          -17 11 16 -2 11 hhcurveto
          29 32 22 32 11 -3 12 -5 6 hvcurveto
          endchar
        </CharString>
        <CharString name="at">
          238 -143 84 -84 108 42 71 112 62 49 131 -103 103 59 84 hstemhm
          35 97 80 122 108 110 82 96 hintmask 1011101111100000
          234 358 rmoveto
          -19 15 -38 20 vhcurveto
          hintmask 0111011111100000
          18 22 28 59 hhcurveto
          51 23 -21 -43 hvcurveto
          -13 -27 vlineto
          -114 -89 -32 -95 -81 66 -37 59 54 40 30 43 32 hvcurveto
          -44 8 40 -32 60 hhcurveto
          108 51 106 130 204 -127 131 -215 -238 -115 -161 -208 -235 147 -114 158 59 126 15 49 15 -12 29 -25 hvcurveto
          hintmask 1011101111100000
          -23 -28 -24 -78 hhcurveto
          -177 -50 124 142 152 57 132 200 170 75 -97 -179 -44 -4 -93 -50 -15 -7 10 37 -6 hvcurveto
          171 vlineto
          91 -84 45 -85 -72 -77 -33 -41 vhcurveto
          214 -190 rmoveto
          -42 -43 -40 -37 -21 -13 15 26 41 33 22 63 vhcurveto
          18 hlineto
          endchar
        </CharString>
        <CharString name="atilde">
          -73 callsubr
          97 101 -74 74 4 callgsubr
          hintmask 1011001110000000
          182 606 rmoveto
          hintmask 1011010110000000
          -90 callsubr
          hintmask 1011001110000000
          -90 callgsubr
          33 -124 rmoveto
          -60 callsubr
          hintmask 1010110110000000
          -94 callgsubr
          hintmask 0111010110000000
          -85 callgsubr
          hintmask 1011010110000000
          -79 callsubr
        </CharString>
        <CharString name="b">
          18 0 125 -114 -21 357 135 266 -20 hstemhm
          46 -50 callgsubr
          hintmask 10111100
          122 748 rmoveto
          -44 -49 callgsubr
          -653 vlineto
          -34 callsubr
          44 38 31 24 24 vhcurveto
          22 vlineto
          hintmask 01111100
          -41 20 56 -39 64 19 callgsubr
          115 -79 95 -98 -61 -45 -37 -39 -21 vhcurveto
          295 vlineto
          28 -35 19 -44 vhcurveto
          228 -546 rmoveto
          hintmask 10111100
          -39 -32 -38 -40 -43 -34 47 17 vhcurveto
          83 30 callgsubr
        </CharString>
        <CharString name="b.ss02">
          12 -10 -63 callgsubr
          266 -20 hstem
          41 -50 callgsubr
          vstem
          500 272 rmoveto
          115 -79 95 -98 -61 -45 -37 -39 -21 vhcurveto
          295 vlineto
          28 -35 19 -44 -44 -32 -19 -28 vhcurveto
          -499 vlineto
          -112 106 -100 123 123 107 101 111 vhcurveto
          -155 hmoveto
          -40 -34 -37 -41 -41 -33 37 40 vhcurveto
          70 30 callgsubr
        </CharString>
        <CharString name="backslash">
          -133 20 -21 756 -20 hstem
          261 31 rmoveto
          -19 7 18 -13 21 hhcurveto
          30 26 27 27 5 0 4 -2 5 hvcurveto
          -240 658 rlineto
          21 -8 -18 9 -19 hhcurveto
          -32 -26 -25 -26 -5 1 -5 2 -5 hvcurveto
          endchar
        </CharString>
        <CharString name="bar">
          -260 0 -21 789 -20 hstem
          50 155 vstem
          127 768 rmoveto
          -45 -49 callgsubr
          -694 vlineto
          -34 callsubr
          45 -40 callgsubr
          694 vlineto
          28 -35 19 -43 vhcurveto
          endchar
        </CharString>
        <CharString name="braceleft">
          37 callsubr
          17 201 -156 156 -141 156 hintmask 11100000
          17 387 rmoveto
          hintmask 11001000
          -71 60 28 -43 vvcurveto
          hintmask 11010000
          -22 -15 -100 -35 vvcurveto
          -96 112 -68 105 58 31 21 45 25 -10 40 -37 -35 -68 10 43 vhcurveto
          hintmask 11001000
          20 15 111 25 vvcurveto
          31 -22 29 -14 4 vhcurveto
          12 4 24 31 30 vvcurveto
          hintmask 11010000
          24 -15 75 24 vvcurveto
          54 73 11 30 32 15 34 29 32 -18 36 -69 -106 -113 -84 -91 vhcurveto
          hintmask 11001000
          -33 15 -70 -21 vvcurveto
          hintmask 11100000
          -41 -60 29 -70 vvcurveto
          endchar
        </CharString>
        <CharString name="braceright">
          37 callsubr
          147 156 -156 216 -201 156 hintmask 11010000
          363 387 rmoveto
          hintmask 11100000
          70 -60 -29 41 vvcurveto
          hintmask 11001000
          21 15 70 33 vvcurveto
          91 -113 84 -106 -69 -18 -36 -32 -29 15 -34 32 30 73 -11 -54 vhcurveto
          hintmask 11100000
          -24 -15 -75 -24 vvcurveto
          -30 24 -31 12 -4 vhcurveto
          -14 -4 -22 -29 -31 vvcurveto
          hintmask 11001000
          -25 15 -111 -20 vvcurveto
          -43 -68 -10 -35 -37 -10 -40 -25 -45 31 -21 58 105 112 68 96 vhcurveto
          hintmask 11100000
          35 -15 100 22 vvcurveto
          hintmask 11010000
          43 60 -28 71 vvcurveto
          endchar
        </CharString>
        <CharString name="bracketleft">
          37 callgsubr
          50 -44 callsubr
          206 632 rmoveto
          88 hlineto
          30 17 32 37 32 -14 35 -33 hvcurveto
          -176 hlineto
          -34 -34 -16 -32 hvcurveto
          -693 vlineto
          -32 34 -16 34 vhcurveto
          176 hlineto
          33 14 35 32 37 -17 32 -30 hvcurveto
          -88 hlineto
          endchar
        </CharString>
        <CharString name="bracketright">
          37 callgsubr
          149 -44 callsubr
          149 115 rmoveto
          -88 hlineto
          -30 -17 -32 -37 -32 14 -35 33 hvcurveto
          176 hlineto
          34 34 16 32 hvcurveto
          693 vlineto
          32 -34 16 -34 vhcurveto
          -176 hlineto
          -33 -14 -35 -32 -37 17 -32 30 hvcurveto
          88 hlineto
          endchar
        </CharString>
        <CharString name="breve">
          -236 585 -6 callsubr
          0 80 hintmask 01100000
          199 724 rmoveto
          hintmask 10100000
          -34 callgsubr
          hintmask 01100000
          -87 callgsubr
          endchar
        </CharString>
        <CharString name="brokenbar">
          -260 0 -21 789 -20 hstem
          50 155 vstem
          127 768 rmoveto
          -45 -49 callgsubr
          -241 vlineto
          -34 callsubr
          45 -40 callgsubr
          241 vlineto
          28 -35 19 -43 vhcurveto
          -453 vmoveto
          -45 -49 callgsubr
          -241 vlineto
          -34 callsubr
          45 -40 callgsubr
          241 vlineto
          28 -35 19 -43 vhcurveto
          endchar
        </CharString>
        <CharString name="bullet">
          -180 185 -21 271 -20 hstem
          168 435 rmoveto
          -76 -66 -63 -72 -73 66 -63 76 75 66 63 73 72 -66 63 -75 hvcurveto
          endchar
        </CharString>
        <CharString name="c">
          -45 callgsubr
          hstemhm
          28 155 hintmask 01101000
          -47 callsubr
          hintmask 10011000
          -65 callgsubr
          hintmask 01101000
          -68 callsubr
          endchar
        </CharString>
        <CharString name="cacute">
          -45 callgsubr
          238 -20 hstemhm
          28 155 -42 221 hintmask 01101010
          -47 callsubr
          hintmask 10011100
          -65 callgsubr
          hintmask 10101010
          54 18 -24 24 hhcurveto
          36 24 47 29 44 -71 39 -98 hvcurveto
          hintmask 01101100
          -157 -68 -93 -119 hvcurveto
          -68 vlineto
          -121 68 -91 159 vhcurveto
          87 638 rmoveto
          hintmask 10101010
          -107 callgsubr
          endchar
        </CharString>
        <CharString name="caron">
          -223 602 -21 151 -20 hstem
          42 729 -106 callgsubr
          endchar
        </CharString>
        <CharString name="caron.alt">
          -362 34 callgsubr
          0 153 vstem
          76 741 rmoveto
          -43 callgsubr
        </CharString>
        <CharString name="ccaron">
          -45 callgsubr
          250 -20 hstemhm
          28 155 hintmask 01101100
          -47 callsubr
          hintmask 10011100
          -65 callgsubr
          hintmask 01101100
          -68 callsubr
          -124 739 -106 callgsubr
          endchar
        </CharString>
        <CharString name="ccedilla">
          -73 -15 callgsubr
          370 159 -135 135 hstemhm
          28 155 -13 199 -69 69 hintmask 10001101
          428 78 rmoveto
          30 -24 44 -42 vhcurveto
          -65 callgsubr
          hintmask 10010101
          54 18 -24 24 hhcurveto
          36 24 47 29 44 -71 39 -98 -157 -68 -93 -119 hvcurveto
          -68 vlineto
          -112 58 -86 133 -12 vhcurveto
          -24 -81 62 -6 rlineto
          -21 callgsubr
          hintmask 01010010
          -60 callgsubr
          hintmask 00110101
          9 callgsubr
          13 38 rlineto
          84 7 62 39 41 vvcurveto
          endchar
        </CharString>
        <CharString name="ccircumflex">
          -73 -10 135 27 195 -24 159 0 87 151 -20 hstemhm
          28 155 hintmask 11011100
          -47 callsubr
          -65 callgsubr
          hintmask 10101100
          -68 callsubr
          -13 638 -53 callsubr
          hintmask 11011100
          -107 callsubr
          endchar
        </CharString>
        <CharString name="cdotaccent">
          -45 callgsubr
          89 117 hstemhm
          28 155 -2 113 hintmask 01101100
          -47 callsubr
          hintmask 10011100
          -65 callgsubr
          hintmask 01101100
          -68 callsubr
          -17 698 rmoveto
          hintmask 10101010
          -86 callsubr
        </CharString>
        <CharString name="cedilla">
          -316 -15 callgsubr
          -172 228 hstemhm
          0 199 -69 69 hintmask 00010100
          118 9 rmoveto
          -64 hlineto
          -29 -98 62 -6 rlineto
          30 -3 13 -14 -17 vvcurveto
          hintmask 10001000
          -21 -19 -10 -27 vhcurveto
          hintmask 01001000
          -60 callgsubr
          hintmask 00101000
          9 callgsubr
          endchar
        </CharString>
        <CharString name="cent">
          -67 60 -21 656 -20 hstemhm
          23 135 59 87 -87 206 hintmask 11110000
          260 695 rmoveto
          -24 -19 -16 -24 hvcurveto
          -64 vlineto
          -135 -12 -59 -88 -111 vvcurveto
          -18 vlineto
          -112 58 -87 136 -12 vhcurveto
          -70 vlineto
          -21 19 -21 24 23 21 21 21 vhcurveto
          73 vlineto
          hintmask 11101000
          69 13 50 35 36 vvcurveto
          30 -24 40 -42 vhcurveto
          hintmask 11110000
          -18 -13 -15 -10 -22 hvcurveto
          177 vlineto
          -9 23 14 -13 16 hhcurveto
          36 24 42 29 35 -45 32 -68 11 hvcurveto
          68 vlineto
          24 -21 16 -23 vhcurveto
          -102 -315 rmoveto
          42 17 29 42 11 vhcurveto
          -182 vlineto
          -42 11 -17 28 43 vvcurveto
          endchar
        </CharString>
        <CharString name="circumflex">
          -223 590 -21 151 -20 hstem
          146 628 -53 callsubr
          -107 callsubr
          endchar
        </CharString>
        <CharString name="colon">
          -290 -6 154 120 154 hstem
          36 153 vstem
          113 1 callsubr
          274 vmoveto
          -76 callsubr
          endchar
        </CharString>
        <CharString name="comma">
          -316 -85 -14 callgsubr
          vstem
          99 148 rmoveto
          -43 callgsubr
        </CharString>
        <CharString name="commaaccent">
          -258 -188 -21 161 -20 hstem
          14 221 vstem
          215 -140 rmoveto
          -107 callgsubr
          endchar
        </CharString>
        <CharString name="copyright">
          165 35 70 66 73 -73 155 87 150 -73 73 52 70 hstemhm
          33 70 113 81 93 81 106 70 hintmask 1011011111000000
          -27 callsubr
          544 4 -17 callgsubr
          -187 77 rmoveto
          -19 1 18 -7 22 hhcurveto
          27 13 8 32 70 -56 40 -74 -68 -57 -35 -96 hvcurveto
          -130 vlineto
          -96 57 -35 68 74 56 42 73 32 -13 8 -28 -21 -18 -5 -20 -1 vhcurveto
          hintmask 1100111111000000
          -22 -2 -2 -35 -42 hhcurveto
          -30 -17 18 40 hvcurveto
          130 vlineto
          40 17 18 30 44 1 -36 -15 1 vhcurveto
          endchar
        </CharString>
        <CharString name="currency">
          -75 290 81 200 81 hstem
          43 80 195 80 vstem
          220 652 rmoveto
          -41 -38 -15 -24 -30 hvcurveto
          -24 22 rlineto
          4 -5 -5 1 -4 hhcurveto
          -16 -15 -16 -15 -5 2 -4 4 -4 hvcurveto
          26 -24 rlineto
          -20 -29 -11 -35 -36 vvcurveto
          -36 11 -35 20 -29 vhcurveto
          -26 -24 rlineto
          -4 -4 -2 -4 -5 vvcurveto
          -15 15 -16 16 4 5 1 4 5 vhcurveto
          24 21 rlineto
          -25 31 38 -15 40 hhcurveto
          40 38 15 26 31 hvcurveto
          24 -22 rlineto
          -4 5 5 -1 4 hhcurveto
          16 15 16 15 5 -2 4 -4 4 hvcurveto
          -26 24 rlineto
          20 29 12 35 37 vvcurveto
          36 -12 35 -20 28 vhcurveto
          26 24 rlineto
          4 4 2 4 5 vvcurveto
          15 -15 16 -16 -4 -5 -1 -4 -5 vhcurveto
          -24 -22 rlineto
          24 -31 -38 15 -40 hhcurveto
          -10 callsubr
        </CharString>
        <CharString name="d">
          -1 callsubr
          hintmask 10111100
          8 callsubr
          -295 vlineto
          -56 callgsubr
          81 -101 93 64 56 39 41 20 vhcurveto
          -22 vlineto
          hintmask 01111100
          -24 31 -24 38 44 32 24 24 vhcurveto
          653 vlineto
          -39 callsubr
          hintmask 10111100
          19 callsubr
          endchar
        </CharString>
        <CharString name="dagger">
          -62 0 -21 419 113 220 -20 hstem
          148 -44 callsubr
          19 454 rmoveto
          -35 19 -24 28 vhcurveto
          82 6 rlineto
          -365 38 callgsubr
          365 -38 callsubr
          hvcurveto
          endchar
        </CharString>
        <CharString name="daggerdbl">
          -52 0 -21 206 113 100 113 220 -20 hstem
          153 -44 callsubr
          24 241 rmoveto
          -35 19 -24 28 vhcurveto
          82 6 rlineto
          -152 38 callgsubr
          152 vlineto
          82 -6 rlineto
          24 24 24 35 33 -24 27 -24 hvcurveto
          -82 -6 rlineto
          106 -38 callsubr
          -35 19 -24 28 hvcurveto
          82 6 rlineto
          -106 vlineto
          -82 6 rlineto
          -28 -19 -27 -33 hvcurveto
          endchar
        </CharString>
        <CharString name="dcaron">
          -1 callsubr
          47 153 hintmask 10111110
          8 callsubr
          -295 vlineto
          -56 callgsubr
          81 -101 93 64 56 39 41 20 vhcurveto
          -22 vlineto
          hintmask 01111110
          -24 31 -24 38 44 32 24 24 vhcurveto
          653 vlineto
          -39 callsubr
          hintmask 10111110
          19 callsubr
          427 539 rmoveto
          -43 callgsubr
        </CharString>
        <CharString name="dcroat">
          18 -10 135 -104 -50 callsubr
          63 110 -110 203 -15 callsubr
          -155 215 hintmask 10101110
          8 callsubr
          hintmask 10110110
          -46 -61 vlineto
          -33 callgsubr
          61 -139 hlineto
          -56 callgsubr
          81 -101 93 64 56 39 41 20 vhcurveto
          -22 vlineto
          hintmask 01110110
          -24 31 -24 38 44 32 24 24 vhcurveto
          497 22 vlineto
          hintmask 10110101
          -23 callgsubr
          hintmask 10110110
          -22 46 hlineto
          hintmask 10101110
          -39 callsubr
          19 callsubr
          endchar
        </CharString>
        <CharString name="degree">
          -126 406 81 200 81 hstem
          17 80 195 80 vstem
          194 768 rmoveto
          -97 -80 -84 -96 -96 82 -86 95 95 83 86 97 97 -83 82 -95 hvcurveto
          -10 callsubr
        </CharString>
        <CharString name="dieresis">
          -242 571 117 hstem
          0 -30 callsubr
          vstem
          57 688 rmoveto
          -102 callsubr
        </CharString>
        <CharString name="divide">
          -60 2 127 50 119 50 127 hstem
          157 133 cntrmask 11100000
          20 238 rmoveto
          -36 20 -23 29 vhcurveto
          316 hlineto
          25 25 23 36 34 -25 26 -25 hvcurveto
          -316 hlineto
          -29 -20 -26 -34 hvcurveto
          204 -109 rmoveto
          -35 -32 -26 -37 -34 32 -30 35 32 34 30 34 37 -34 26 -32 hvcurveto
          346 vmoveto
          -35 -32 -29 -35 -36 32 -27 35 32 34 27 36 35 -34 29 -32 hvcurveto
          endchar
        </CharString>
        <CharString name="dollar">
          26 -31 -21 52 214 333 169 -132 132 -132 184 hstemhm
          42 146 54 76 51 146 hintmask 11010111
          242 -25 rmoveto
          -14 16 -13 22 19 19 13 14 vhcurveto
          29 vlineto
          117 19 80 75 124 vvcurveto
          135 -106 47 -91 34 vhcurveto
          146 vlineto
          hintmask 11100111
          -5 65 19 -32 33 hhcurveto
          44 18 55 27 69 -117 16 -62 2 hvcurveto
          25 vlineto
          hintmask 11001111
          14 -19 13 -19 -22 -16 -13 -14 vhcurveto
          -28 vlineto
          -106 -15 -94 -61 -127 vvcurveto
          -128 108 -43 92 -35 vhcurveto
          -162 vlineto
          13 -74 -34 59 -42 hhcurveto
          -38 -30 -50 -34 -64 98 -62 120 -4 hvcurveto
          127 206 rmoveto
          -36 -27 -19 -34 -8 vhcurveto
          134 vlineto
          36 -17 25 -21 -33 vvcurveto
          -181 319 rmoveto
          24 19 23 45 9 vhcurveto
          -119 vlineto
          -38 16 -26 18 29 vvcurveto
          endchar
        </CharString>
        <CharString name="dotaccent">
          -328 571 117 hstem
          40 113 vstem
          97 688 rmoveto
          -86 callsubr
        </CharString>
        <CharString name="dotlessi">
          -5 callgsubr
          hstem
          45 155 vstem
          122 476 rmoveto
          -45 -49 callgsubr
          -51 callsubr
          45 -40 callgsubr
          381 vlineto
          28 -35 19 -43 vhcurveto
          endchar
        </CharString>
        <CharString name="dotlessj">
          -270 -3 callgsubr
          563 -20 hstemhm
          -40 10 callsubr
          hintmask 11010000
          121 476 -36 callgsubr
          hintmask 11100000
          -58 callgsubr
          457 vlineto
          28 -35 19 -44 vhcurveto
          endchar
        </CharString>
        <CharString name="e">
          -66 callsubr
          24 callgsubr
          hintmask 01111100
          -92 callsubr
          hintmask 10111100
          -97 callsubr
          endchar
        </CharString>
        <CharString name="eacute">
          -66 callsubr
          -4 callgsubr
          -34 221 -42 145 hintmask 01111101
          -92 callsubr
          hintmask 10111101
          -97 callsubr
          43 342 rmoveto
          hintmask 10111010
          -107 callgsubr
          endchar
        </CharString>
        <CharString name="ebreve">
          -66 callsubr
          103 -6 callsubr
          27 155 -67 80 132 145 hintmask 0111101010000000
          -92 callsubr
          hintmask 1011011010000000
          -97 callsubr
          8 438 rmoveto
          hintmask 1011101010000000
          -34 callgsubr
          hintmask 1011010110000000
          -87 callgsubr
          endchar
        </CharString>
        <CharString name="ecaron">
          -66 callsubr
          250 -20 24 callgsubr
          hintmask 01111110
          -92 callsubr
          hintmask 10111110
          -97 callsubr
          -153 443 -106 callgsubr
          endchar
        </CharString>
        <CharString name="ecircumflex">
          -19 -10 121 37 51 87 84 0 112 0 87 151 -20 24 callgsubr
          hintmask 11010111
          -92 callsubr
          -33 -30 -37 -62 hhcurveto
          -61 -41 33 49 hvcurveto
          6 193 vlineto
          46 51 4 89 113 -100 77 -115 hvcurveto
          hintmask 11101111
          -75 -196 rmoveto
          24 vlineto
          40 36 20 36 37 36 -20 -40 -19 -7 -5 -14 vhcurveto
          -51 342 -53 callsubr
          -107 callsubr
          endchar
        </CharString>
        <CharString name="edieresis">
          -66 callsubr
          89 117 40 callgsubr
          -65 -30 callsubr
          -63 145 hintmask 0111110100000000
          -92 callsubr
          hintmask 1011110010000000
          -97 callsubr
          -132 402 rmoveto
          hintmask 1011101100000000
          -102 callsubr
        </CharString>
        <CharString name="edotaccent">
          -66 callsubr
          89 117 40 callgsubr
          16 113 16 145 hintmask 01111111
          -92 callsubr
          hintmask 10111111
          -97 callsubr
          -51 402 rmoveto
          -86 callsubr
        </CharString>
        <CharString name="egrave">
          -66 callsubr
          -4 callgsubr
          -54 221 -22 145 hintmask 01111101
          -92 callsubr
          hintmask 10111101
          -97 callsubr
          -18 277 -62 callgsubr
          hintmask 10111010
          -100 callgsubr
          endchar
        </CharString>
        <CharString name="eight">
          30 -6 125 217 125 145 125 hstemhm
          27 156 -131 150 142 150 -132 132 -132 156 hintmask 11101100
          273 731 rmoveto
          -129 -92 -53 -125 -83 40 -50 59 -20 hvcurveto
          hintmask 11110001
          -74 -25 -50 -60 -103 vvcurveto
          -12 vlineto
          -149 108 -57 138 138 107 57 149 vhcurveto
          12 vlineto
          103 -49 60 -74 25 vhcurveto
          hintmask 11110010
          59 20 40 50 83 vvcurveto
          125 -92 53 -129 vhcurveto
          89 -512 rmoveto
          -67 -32 -33 -57 -55 -35 31 69 vhcurveto
          22 vlineto
          65 34 30 56 56 33 -30 -65 vhcurveto
          -89 365 rmoveto
          hintmask 11101100
          45 26 -22 -51 -52 -26 -20 -45 -45 -26 20 52 51 26 22 45 hvcurveto
          endchar
        </CharString>
        <CharString name="eightinferior">
          -174 -3 6 callsubr
          22 callgsubr
          hintmask 11110010
          -80 callsubr
          hintmask 11110100
          -95 callgsubr
          endchar
        </CharString>
        <CharString name="eightsuperior">
          -174 319 6 callsubr
          731 -48 callsubr
          hintmask 11110010
          -80 callsubr
          hintmask 11110100
          -95 callgsubr
          endchar
        </CharString>
        <CharString name="ellipsis">
          77 -6 154 hstem
          23 153 44 153 43 153 vstem
          100 1 callsubr
          197 hmoveto
          -76 callsubr
          196 hmoveto
          -76 callsubr
          endchar
        </CharString>
        <CharString name="emacron">
          -66 callsubr
          118 99 24 callgsubr
          hintmask 01111110
          -92 callsubr
          hintmask 10111110
          -97 callsubr
          -197 363 rmoveto
          -92 callgsubr
          endchar
        </CharString>
        <CharString name="emdash">
          242 177 127 hstem
          31 240 -22 callgsubr
          601 hlineto
          -72 callgsubr
          -601 -54 callsubr
        </CharString>
        <CharString name="endash">
          -39 177 127 hstem
          31 240 -75 callsubr
        </CharString>
        <CharString name="eng">
          20 -3 callgsubr
          108 -50 callsubr
          -6 -20 39 callsubr
          54 10 callsubr
          hintmask 11101100
          324 -20 callgsubr
          -67 -48 -37 -39 -19 hvcurveto
          23 vlineto
          hintmask 11011100
          28 -31 19 -37 -45 -32 -19 -28 vhcurveto
          -51 callsubr
          45 42 -11 callgsubr
          224 vlineto
          hintmask 11101010
          11 callgsubr
          40 32 -21 callsubr
          -300 vlineto
          -34 -3 -25 -24 vhcurveto
          hintmask 11101100
          -58 callgsubr
          300 1 callgsubr
          -79 95 -91 vhcurveto
          endchar
        </CharString>
        <CharString name="eogonek">
          -19 -218 63 145 121 88 87 84 112 40 callgsubr
          56 11 callsubr
          -67 145 hintmask 11111101
          369 -42 callsubr
          39 34 52 45 25 hvcurveto
          48 18 28 29 24 vvcurveto
          24 -21 44 -36 vhcurveto
          -33 -30 -37 -62 hhcurveto
          -61 -41 33 49 hvcurveto
          6 193 vlineto
          46 51 4 89 113 -100 77 -115 -128 -102 -95 -112 hvcurveto
          -73 vlineto
          -127 105 -85 148 vhcurveto
          7 hlineto
          -31 -33 -18 -41 -37 -14 callsubr
          vhcurveto
          hintmask 11111010
          -51 callgsubr
          hvcurveto
          -187 441 rmoveto
          24 vlineto
          40 36 20 36 vhcurveto
          hintmask 11111101
          37 36 -20 -40 -19 -7 -5 -14 hvcurveto
          endchar
        </CharString>
        <CharString name="equal">
          -67 72 127 76 127 hstem
          47 135 -22 callgsubr
          260 hlineto
          -72 callgsubr
          -260 hlineto
          -28 -19 -28 -36 hvcurveto
          203 vmoveto
          -19 callsubr
        </CharString>
        <CharString name="estimated">
          48 -10 101 -101 158 61 67 117 89 hstemhm
          30 185 145 175 hintmask 01111100
          290 -20 callgsubr
          -145 -115 -105 -122 hvcurveto
          -33 vlineto
          -139 117 -93 166 131 85 52 38 24 -18 44 -22 vhcurveto
          hintmask 10111100
          -25 -17 -57 -136 hhcurveto
          -90 -6 45 67 hvcurveto
          6 223 vlineto
          47 50 4 79 113 -114 77 -131 hvcurveto
          -75 -206 rmoveto
          24 vlineto
          80 26 13 46 47 26 -15 -78 -19 -8 -5 -13 vhcurveto
          endchar
        </CharString>
        <CharString name="eth">
          10 -10 -63 callgsubr
          24 243 hstem
          27 -50 callgsubr
          vstem
          470 641 rmoveto
          11 7 5 10 12 vvcurveto
          27 -26 33 -26 -5 -5 -1 -3 -5 vhcurveto
          -49 -30 rlineto
          33 -28 -33 20 -37 hhcurveto
          -57 -18 -48 -26 -25 17 -13 14 -14 hvcurveto
          3 -3 4 -2 2 -3 -33 -20 rcurveline
          -11 -7 -5 -10 -11 vvcurveto
          -28 28 -33 25 5 5 1 3 4 vhcurveto
          41 25 rlineto
          20 -38 15 -45 -46 vvcurveto
          -56 callgsubr
          107 -101 123 123 106 100 112 vhcurveto
          141 vlineto
          77 -22 107 -41 85 vhcurveto
          -241 -340 -9 callsubr
        </CharString>
        <CharString name="exclam">
          -286 -6 154 583 -20 28 callgsubr
          hintmask 11001000
          187 670 rmoveto
          39 -33 22 -39 vhcurveto
          hintmask 11100000
          -41 -32 -22 -39 hvcurveto
          hintmask 11010000
          -119 14 -171 -119 vvcurveto
          -31 27 -13 32 24 34 13 31 vhcurveto
          hintmask 11001000
          119 14 171 119 vvcurveto
          -71 -522 7 callgsubr
          endchar
        </CharString>
        <CharString name="exclamdown">
          -286 15 -21 583 154 28 callgsubr
          hintmask 11100000
          42 55 rmoveto
          -39 33 -22 39 vhcurveto
          hintmask 11001000
          41 32 22 39 hvcurveto
          hintmask 11010000
          119 -14 171 119 vvcurveto
          31 -27 13 -32 -24 -34 -13 -31 vhcurveto
          hintmask 11100000
          -119 -14 -171 -119 vvcurveto
          71 522 rmoveto
          44 33 35 42 41 -33 36 -44 -41 -35 -36 -41 -42 35 -35 41 hvcurveto
          endchar
        </CharString>
        <CharString name="f">
          -161 21 -21 366 110 142 130 hstem
          46 155 vstem
          201 564 rmoveto
          37 23 17 32 vhcurveto
          38 hlineto
          39 19 32 33 32 -19 33 -39 hvcurveto
          -72 hlineto
          -96 -80 -85 -116 hvcurveto
          -500 vlineto
          -8 callgsubr
          319 113 vlineto
          -56 callsubr
          -113 hlineto
          endchar
        </CharString>
        <CharString name="fi">
          75 21 -21 366 110 106 166 -130 130 hstemhm
          46 155 190 155 hintmask 11011100
          467 476 rmoveto
          -44 -49 callgsubr
          -381 -29 callsubr
          381 vlineto
          28 -35 19 -44 vhcurveto
          -158 142 rmoveto
          hintmask 11101100
          79 17 -36 28 hhcurveto
          38 16 72 19 45 -90 30 -88 -162 -101 -103 -128 -22 callsubr
          hintmask 11011100
          74 50 20 58 vhcurveto
          endchar
        </CharString>
        <CharString name="five">
          6 -6 136 211 120 134 136 hstem
          13 156 178 -44 callsubr
          193 461 rmoveto
          10 134 rlineto
          219 hlineto
          30 15 34 34 34 -15 34 -30 hvcurveto
          -319 hlineto
          -17 -8 -18 -30 -3 hvcurveto
          -27 -252 rlineto
          -1 -11 -1 -8 -10 vvcurveto
          -38 14 -23 46 vhcurveto
          152 hlineto
          55 34 -32 -66 hvcurveto
          -19 vlineto
          -65 -34 -29 -57 -49 -38 21 40 32 -10 26 -68 -49 -29 -15 -54 -94 86 -92 161 134 109 63 167 vhcurveto
          19 vlineto
          160 -107 58 -138 vhcurveto
          endchar
        </CharString>
        <CharString name="fiveeighths">
          296 31 callgsubr
          56 90 -90 150 39 77 59 87 41 -20 hstemhm
          21 101 98 101 166 -18 callgsubr
          hintmask 1111011111011000
          638 22 callgsubr
          hintmask 1111011111100100
          -80 callsubr
          hintmask 1111011111101000
          -95 callgsubr
          -56 -47 callgsubr
          -447 -187 -78 callgsubr
          hintmask 1110111111101000
          -49 callsubr
        </CharString>
        <CharString name="fiveinferior">
          -187 -3 13 callsubr
          263 -78 callgsubr
          hintmask 01111100
          -49 callsubr
        </CharString>
        <CharString name="fivesuperior">
          -187 319 13 callsubr
          585 -78 callgsubr
          hintmask 01111100
          -49 callsubr
        </CharString>
        <CharString name="fl">
          87 21 -21 366 110 143 129 hstem
          46 155 192 155 vstem
          393 48 rmoveto
          -34 callsubr
          44 44 -61 callsubr
          639 vlineto
          41 -43 -101 20 -75 hhcurveto
          -150 -133 -81 -150 -22 callsubr
          65 61 30 60 27 30 -6 -8 14 vhcurveto
          endchar
        </CharString>
        <CharString name="florin">
          -80 -137 144 340 110 176 135 hstem
          294 560 rmoveto
          47 7 21 26 41 hhcurveto
          61 hlineto
          27 23 29 41 36 -18 29 -27 hvcurveto
          -65 hlineto
          -111 -99 -93 -115 -15 hvcurveto
          -64 -478 rlineto
          -42 -6 -13 -33 -20 hhcurveto
          -23 hlineto
          -29 -22 -34 -42 -36 17 -32 29 hvcurveto
          26 hlineto
          119 57 103 116 16 hvcurveto
          37 265 rlineto
          132 -31 callsubr
          -116 hlineto
          endchar
        </CharString>
        <CharString name="four">
          10 21 -21 154 144 433 -20 hstemhm
          281 156 -156 247 hintmask 11110000
          281 48 rmoveto
          -96 callgsubr
          106 43 vlineto
          hintmask 11101000
          24 24 36 36 36 -16 36 -32 hvcurveto
          hintmask 11110000
          -43 70 hlineto
          -91 callgsubr
          -70 -86 vlineto
          177 355 rlineto
          3 7 2 6 6 vvcurveto
          36 -51 23 -27 -25 -25 -11 -29 -15 vhcurveto
          -231 -453 rlineto
          -6 -11 -2 -11 -8 vvcurveto
          -35 23 -19 29 vhcurveto
          234 hlineto
          endchar
        </CharString>
        <CharString name="fourinferior">
          -188 0 -1 callgsubr
          30 -69 callgsubr
        </CharString>
        <CharString name="foursuperior">
          -187 322 -1 callgsubr
          352 -69 callgsubr
        </CharString>
        <CharString name="fraction">
          -317 -25 -21 818 -20 hstem
          268 772 -104 callgsubr
          endchar
        </CharString>
        <CharString name="g">
          -28 callgsubr
          46 -20 -42 callgsubr
          122 9 callsubr
          hintmask 1111010100000000
          -93 callgsubr
          hintmask 1111001100000000
          -43 callsubr
          hintmask 1111100010000000
          -64 callsubr
          hintmask 1111010100000000
          -86 callgsubr
          hintmask 1111100010000000
          -69 callsubr
          endchar
        </CharString>
        <CharString name="g.ss03">
          18 -237 133 -133 163 74 135 212 135 -6 18 callgsubr
          hintmask 10101110
          25 callsubr
          hintmask 10110110
          29 callgsubr
          -60 27 callsubr
          -68 vlineto
          -42 -14 -74 -103 vhcurveto
          hintmask 01101110
          -66 -38 30 -28 hhcurveto
          -28 -27 -32 -39 -75 98 -17 78 199 84 110 125 hvcurveto
          431 vlineto
          28 -33 19 -41 vhcurveto
          -230 -204 rmoveto
          hintmask 10110110
          38 34 37 42 36 37 -28 -47 vhcurveto
          -73 29 callsubr
        </CharString>
        <CharString name="gbreve">
          -28 callgsubr
          103 66 -66 139 -42 callgsubr
          -75 75 122 82 -82 9 callsubr
          hintmask 1111001000100000
          -93 callgsubr
          hintmask 1111000101000000
          -43 callsubr
          hintmask 1111010000010000
          -64 callsubr
          hintmask 1111000011000000
          -86 callgsubr
          hintmask 1110110000010000
          -69 callsubr
          -22 782 rmoveto
          hintmask 1111010001000000
          -34 callgsubr
          hintmask 1110100011000000
          -87 callgsubr
          endchar
        </CharString>
        <CharString name="gcircumflex">
          -28 callgsubr
          46 41 151 -20 -42 callgsubr
          122 9 callsubr
          hintmask 1111101010000000
          -93 callgsubr
          hintmask 1111100110000000
          -43 callsubr
          hintmask 1111110001000000
          -64 callsubr
          hintmask 1111101010000000
          -86 callgsubr
          hintmask 1111110001000000
          -69 callsubr
          -81 686 -53 callsubr
          -107 callsubr
          endchar
        </CharString>
        <CharString name="gcommaaccent">
          -28 callgsubr
          518 -20 -42 callgsubr
          -23 221 -202 153 -27 9 callsubr
          hintmask 1111010001000000
          -93 callgsubr
          hintmask 1111001001000000
          -43 callsubr
          hintmask 1111100000100000
          -64 callsubr
          hintmask 1111010001000000
          -86 callgsubr
          hintmask 1111100000100000
          -69 callsubr
          -73 804 rmoveto
          hintmask 1111100010000000
          -81 callsubr
          105 -118 rmoveto
          hintmask 1111000100000000
          -107 callgsubr
          endchar
        </CharString>
        <CharString name="gdotaccent">
          -28 callgsubr
          89 117 -42 callgsubr
          8 113 1 9 callsubr
          hintmask 1111010110000000
          -93 callgsubr
          hintmask 1111001110000000
          -43 callsubr
          hintmask 1111100101000000
          -64 callsubr
          hintmask 1111010110000000
          -86 callgsubr
          hintmask 1111100101000000
          -69 callsubr
          -81 746 rmoveto
          -86 callsubr
        </CharString>
        <CharString name="germandbls">
          102 -20 131 -111 111 255 110 157 135 hstemhm
          -1 242 -155 155 51 208 -126 126 -58 152 hintmask 1011100010000000
          359 -20 rmoveto
          126 109 84 150 hvcurveto
          11 1 callgsubr
          -87 78 -73 13 vhcurveto
          hintmask 1011010100000000
          41 22 25 65 64 vvcurveto
          128 -93 58 -114 -152 -55 -97 -111 vhcurveto
          -84 -49 vlineto
          hintmask 1011101000000000
          -33 callgsubr
          hintmask 0111010100000000
          49 -319 hlineto
          -8 callgsubr
          513 vlineto
          37 13 36 51 52 17 -38 -48 -29 -5 -39 -34 -10 vhcurveto
          hintmask 1011101000000000
          -28 -8 -15 -5 -43 vvcurveto
          -46 17 -9 25 -8 vhcurveto
          hintmask 1011100010000000
          54 -18 54 -21 -100 vvcurveto
          -11 vlineto
          -56 -30 -33 -52 vhcurveto
          -28 -20 9 -14 hhcurveto
          -26 -10 -46 -27 -65 46 -2 51 hvcurveto
          endchar
        </CharString>
        <CharString name="grave">
          22 callsubr
          160 563 -62 callgsubr
          -100 callgsubr
          endchar
        </CharString>
        <CharString name="greater">
          -88 72 -21 452 -20 hstem
          408 277 rmoveto
          17 -8 24 -23 15 vhcurveto
          -254 165 rlineto
          4 -5 -7 1 -7 hhcurveto
          -30 -38 -32 -41 -17 7 -15 11 -7 hvcurveto
          176 -114 -176 -114 rlineto
          -11 -7 -7 -15 -17 vvcurveto
          -41 38 -32 30 7 7 1 4 5 vhcurveto
          254 165 rlineto
          23 15 8 24 17 vvcurveto
          endchar
        </CharString>
        <CharString name="greaterequal">
          -73 21 127 403 -20 hstem
          67 293 rmoveto
          -18 -8 -7 -15 -16 vvcurveto
          -34 32 -41 35 6 7 2 3 6 vhcurveto
          254 12 callsubr
          25 12 6 27 17 vvcurveto
          17 -6 27 -25 12 vhcurveto
          -254 12 callsubr
          3 -6 -7 2 -6 hhcurveto
          -35 -32 -41 -34 -16 7 -15 18 -8 hvcurveto
          168 -72 rlineto
          178 -281 rmoveto
          36 -19 28 -28 vhcurveto
          -277 hlineto
          -24 -24 -28 -36 -38 24 -25 24 hvcurveto
          277 hlineto
          28 19 25 38 hvcurveto
          endchar
        </CharString>
        <CharString name="guillemotleft">
          22 95 -21 406 -20 hstem
          194 277 -77 callgsubr
          191 111 -77 callgsubr
          endchar
        </CharString>
        <CharString name="guillemotright">
          22 95 -21 406 -20 hstem
          284 166 rmoveto
          -2 -4 -1 -5 -5 vvcurveto
          -31 46 -47 52 20 16 7 12 6 vhcurveto
          67 12 callsubr
          16 30 12 10 18 vvcurveto
          18 -12 12 -16 30 vhcurveto
          -67 12 callsubr
          12 -6 -16 7 -20 hhcurveto
          -52 -46 -47 -31 -5 1 -5 2 -4 hvcurveto
          59 -111 rlineto
          -309 -111 rmoveto
          -2 -4 -1 -5 -5 vvcurveto
          -31 46 -47 52 20 16 7 12 6 vhcurveto
          67 12 callsubr
          16 30 12 10 18 vvcurveto
          18 -12 12 -16 30 vhcurveto
          -67 12 callsubr
          12 -6 -16 7 -20 hhcurveto
          -52 -46 -47 -31 -5 1 -5 2 -4 hvcurveto
          59 -111 rlineto
          endchar
        </CharString>
        <CharString name="guilsinglleft">
          -228 95 -21 406 -20 hstem
          194 277 -77 callgsubr
          endchar
        </CharString>
        <CharString name="guilsinglright">
          -228 95 -21 406 -20 hstem
          34 166 rmoveto
          -2 -4 -1 -5 -5 vvcurveto
          -31 46 -47 52 20 16 7 12 6 vhcurveto
          67 12 callsubr
          16 30 12 10 18 vvcurveto
          18 -12 12 -16 30 vhcurveto
          -67 12 callsubr
          12 -6 -16 7 -20 hhcurveto
          -52 -46 -47 -31 -5 1 -5 2 -4 hvcurveto
          59 -111 rlineto
          endchar
        </CharString>
        <CharString name="h">
          20 21 -50 callsubr
          266 -64 callgsubr
          endchar
        </CharString>
        <CharString name="hbar">
          20 21 -50 callsubr
          63 99 -99 203 hstemhm
          -24 225 -155 155 -155 225 69 155 hintmask 11101001
          -24 594 rmoveto
          -29 19 -20 28 vhcurveto
          hintmask 11100101
          23 -497 hlineto
          -34 callsubr
          45 42 -11 callgsubr
          224 vlineto
          11 callgsubr
          39 4 callsubr
          -224 vlineto
          -32 41 -16 36 39 39 16 32 vhcurveto
          224 1 callgsubr
          -79 95 -91 -62 -44 -37 -39 -18 vhcurveto
          139 22 vlineto
          hintmask 11100011
          24 24 20 29 28 -24 22 -24 hvcurveto
          hintmask 11101001
          -22 57 hlineto
          hintmask 11010101
          28 -36 19 -42 -45 -32 -19 -28 vhcurveto
          hintmask 11100101
          -57 -23 vlineto
          hintmask 11101001
          -28 -19 -22 -28 hvcurveto
          endchar
        </CharString>
        <CharString name="hcircumflex">
          20 21 -50 callsubr
          266 -20 247 -64 callgsubr
          -81 835 -53 callsubr
          -107 callsubr
          endchar
        </CharString>
        <CharString name="hungarumlaut">
          -203 556 166 hstem
          146 662 -98 callsubr
          239 95 -98 callsubr
          endchar
        </CharString>
        <CharString name="hyphen">
          -99 177 127 hstem
          31 240 rmoveto
          -19 callsubr
        </CharString>
        <CharString name="i">
          -5 callgsubr
          112 143 hstem
          45 155 vstem
          122 476 rmoveto
          -45 -49 callgsubr
          -51 callsubr
          45 -40 callgsubr
          381 vlineto
          28 -35 19 -43 vhcurveto
          235 vmoveto
          -76 callgsubr
          endchar
        </CharString>
        <CharString name="iacute">
          -5 callgsubr
          264 -20 hstemhm
          33 221 -209 155 hintmask 11101000
          122 476 rmoveto
          -45 -49 callgsubr
          -51 callsubr
          45 -40 callgsubr
          381 vlineto
          28 -35 19 -43 vhcurveto
          112 152 rmoveto
          hintmask 11110000
          -107 callgsubr
          endchar
        </CharString>
        <CharString name="ibreve">
          -5 callgsubr
          129 -6 callsubr
          -17 80 -18 155 hintmask 11010100
          122 476 rmoveto
          -45 -49 callgsubr
          -51 callsubr
          45 -40 callgsubr
          381 vlineto
          28 -35 19 -43 vhcurveto
          60 248 rmoveto
          hintmask 11101000
          -34 callgsubr
          hintmask 11011000
          -87 callgsubr
          endchar
        </CharString>
        <CharString name="icircumflex">
          -5 callgsubr
          264 -20 hstem
          45 155 vstem
          122 476 rmoveto
          -45 -49 callgsubr
          -51 callsubr
          45 -40 callgsubr
          381 vlineto
          28 -35 19 -43 vhcurveto
          1 152 -53 callsubr
          -107 callsubr
          endchar
        </CharString>
        <CharString name="idieresis">
          -5 callgsubr
          115 117 hstemhm
          -10 113 -58 155 -50 113 hintmask 11101000
          122 476 rmoveto
          -45 -49 callgsubr
          -51 callsubr
          45 -40 callgsubr
          381 vlineto
          28 -35 19 -43 vhcurveto
          -75 212 rmoveto
          hintmask 11110100
          -102 callsubr
        </CharString>
        <CharString name="igrave">
          -5 callgsubr
          264 -20 hstemhm
          -7 221 -169 155 hintmask 11101000
          122 476 rmoveto
          -45 -49 callgsubr
          -51 callsubr
          45 -40 callgsubr
          381 vlineto
          28 -35 19 -43 vhcurveto
          31 87 -62 callgsubr
          hintmask 11110000
          -100 callgsubr
          endchar
        </CharString>
        <CharString name="ij">
          -52 -3 callgsubr
          108 12 callgsubr
          112 143 39 callsubr
          -22 10 callsubr
          hintmask 11111010
          122 476 rmoveto
          -45 -49 callgsubr
          -51 callsubr
          45 -40 callgsubr
          381 vlineto
          28 -35 19 -43 vhcurveto
          235 vmoveto
          -76 callgsubr
          218 hmoveto
          -76 callgsubr
          -1 -235 -36 callgsubr
          hintmask 11110100
          -58 callgsubr
          457 vlineto
          28 -35 19 -44 vhcurveto
          endchar
        </CharString>
        <CharString name="imacron">
          -5 callgsubr
          144 99 hstem
          45 155 vstem
          122 476 rmoveto
          -45 -49 callgsubr
          -51 callsubr
          45 -40 callgsubr
          381 vlineto
          28 -35 19 -43 vhcurveto
          -146 173 rmoveto
          -92 callgsubr
          endchar
        </CharString>
        <CharString name="infinity">
          402 19 126 182 126 hstem
          32 136 581 136 vstem
          261 453 rmoveto
          -118 -111 -72 -145 -145 111 -72 118 73 78 44 74 46 hvcurveto
          -74 47 77 -44 73 hhcurveto
          119 111 72 145 145 -111 72 -118 -74 -77 -45 -74 -47 hvcurveto
          74 -46 -78 45 -73 hhcurveto
          248 -217 rmoveto
          61 32 63 30 51 hhcurveto
          50 44 -29 -62 -62 -44 -29 -50 -51 -63 30 61 -32 hvcurveto
          -101 hmoveto
          -61 -32 -63 -30 -51 hhcurveto
          -50 -44 29 62 62 44 29 50 51 63 -30 -61 32 hvcurveto
          endchar
        </CharString>
        <CharString name="integral">
          -151 -200 121 710 117 hstem
          104 -44 callsubr
          323 748 rmoveto
          -178 -41 -79 -103 hvcurveto
          -570 vlineto
          -51 -11 -24 -47 -33 -18 -32 -31 -30 24 -28 35 176 30 104 93 vhcurveto
          563 vlineto
          58 13 13 50 36 11 37 23 35 -28 22 -19 vhcurveto
          endchar
        </CharString>
        <CharString name="iogonek">
          -218 63 631 -20 112 143 hstemhm
          13 11 callsubr
          -124 155 hintmask 11110000
          144 -42 callsubr
          39 33 52 45 24 hvcurveto
          hintmask 11100100
          21 9 15 15 16 vvcurveto
          381 vlineto
          28 -35 19 -43 -45 -32 -19 -28 vhcurveto
          -381 vlineto
          -16 14 -16 22 -9 vhcurveto
          hintmask 11101000
          -43 -34 -25 -50 -44 -14 callsubr
          -51 callgsubr
          vhcurveto
          -22 866 rmoveto
          -76 callgsubr
          endchar
        </CharString>
        <CharString name="itilde">
          -5 callgsubr
          123 101 -74 74 39 callsubr
          hintmask 11011000
          122 476 rmoveto
          -45 -49 callgsubr
          -51 callsubr
          45 -40 callgsubr
          381 vlineto
          28 -35 19 -43 vhcurveto
          -52 130 rmoveto
          hintmask 11101000
          -90 callsubr
          hintmask 11011000
          -90 callgsubr
          endchar
        </CharString>
        <CharString name="j">
          -270 -3 callgsubr
          563 -20 112 143 hstemhm
          -40 10 callsubr
          hintmask 11101000
          122 711 rmoveto
          -76 callgsubr
          -1 -235 -36 callgsubr
          hintmask 11110000
          -58 callgsubr
          457 vlineto
          28 -35 19 -44 vhcurveto
          endchar
        </CharString>
        <CharString name="jcircumflex">
          -270 -3 callgsubr
          563 -20 264 -20 hstemhm
          -40 10 callsubr
          hintmask 11101000
          121 476 -36 callgsubr
          hintmask 11110000
          -58 callgsubr
          457 vlineto
          28 -35 19 -44 vhcurveto
          2 152 -53 callsubr
          -107 callsubr
          endchar
        </CharString>
        <CharString name="k">
          -6 11 23 callgsubr
          hintmask 01111000
          -57 callgsubr
          hintmask 10111000
          -39 callgsubr
          endchar
        </CharString>
        <CharString name="kcommaaccent">
          -6 -188 -21 220 23 callgsubr
          -59 221 hintmask 10111100
          -57 callgsubr
          hintmask 11011010
          -39 callgsubr
          -11 -423 rmoveto
          -107 callgsubr
          endchar
        </CharString>
        <CharString name="kgreenlandic">
          -7 11 -21 31 12 callgsubr
          26 -20 39 callsubr
          hintmask 01011000
          459 381 rmoveto
          8 8 4 9 10 vvcurveto
          33 -41 41 -34 -11 -11 -4 -8 -8 vhcurveto
          -166 -161 rlineto
          120 vlineto
          hintmask 01101000
          28 -35 19 -44 -44 -32 -19 -28 vhcurveto
          -381 5 callsubr
          hintmask 10011000
          -39 callgsubr
          endchar
        </CharString>
        <CharString name="l">
          33 callsubr
          hstem
          54 155 vstem
          -78 callsubr
          endchar
        </CharString>
        <CharString name="lacute">
          33 callsubr
          222 -20 hstemhm
          54 155 -155 218 hintmask 11110000
          -78 callsubr
          121 110 rmoveto
          hintmask 11101000
          -107 callgsubr
          endchar
        </CharString>
        <CharString name="lcaron">
          33 callsubr
          hstem
          54 155 49 153 vstem
          -78 callsubr
          203 -7 rmoveto
          -43 callgsubr
        </CharString>
        <CharString name="lcommaaccent">
          -252 30 callsubr
          748 -20 hstemhm
          21 221 -188 155 hintmask 11101000
          -78 callsubr
          91 -888 rmoveto
          hintmask 11110000
          -107 callgsubr
          endchar
        </CharString>
        <CharString name="ldot">
          -123 21 -21 228 143 377 -20 hstem
          54 155 26 163 vstem
          -78 callsubr
          186 -377 rmoveto
          -76 callgsubr
          endchar
        </CharString>
        <CharString name="less">
          -88 72 -21 452 -20 hstem
          19 277 rmoveto
          -17 8 -24 23 -15 vhcurveto
          254 -165 rlineto
          -4 5 7 -1 7 hhcurveto
          30 38 32 41 17 -7 15 -11 7 hvcurveto
          -176 114 176 114 rlineto
          11 7 7 15 17 vvcurveto
          41 -38 32 -30 -7 -7 -1 -4 -5 vhcurveto
          -254 -165 rlineto
          -23 -15 -8 -24 -17 vvcurveto
          endchar
        </CharString>
        <CharString name="lessequal">
          -73 21 127 403 -20 hstem
          207 365 rmoveto
          168 72 rlineto
          18 8 7 15 16 vvcurveto
          34 -32 41 -35 -6 -7 -2 -3 -6 vhcurveto
          -254 -125 rlineto
          -25 -12 -6 -27 -17 vvcurveto
          -17 6 -27 25 -12 vhcurveto
          254 -125 rlineto
          -3 6 7 -2 6 hhcurveto
          35 32 41 34 16 -7 15 -18 8 hvcurveto
          -346 -209 -22 callgsubr
          277 hlineto
          -72 callgsubr
          -277 -54 callsubr
        </CharString>
        <CharString name="logicalnot">
          -11 63 241 -127 127 hstemhm
          307 155 hintmask 01100000
          26 240 -22 callgsubr
          234 -66 hlineto
          hintmask 10100000
          -34 callsubr
          45 -40 callgsubr
          129 vlineto
          36 -24 28 -24 vhcurveto
          -341 -54 callsubr
        </CharString>
        <CharString name="lozenge">
          19 12 -21 750 -20 hstem
          336 711 rmoveto
          18 -11 -29 12 -29 hhcurveto
          -29 -29 -11 -19 -11 hvcurveto
          -133 -232 rlineto
          -25 -44 -20 -36 -33 vvcurveto
          -33 20 -36 25 -44 vhcurveto
          133 -232 rlineto
          -19 11 29 -11 29 hhcurveto
          29 29 11 19 11 hvcurveto
          133 232 23 callsubr
          -202 92 rmoveto
          107 -205 -107 -195 -107 195 rlineto
          endchar
        </CharString>
        <CharString name="lslash">
          -179 21 -21 748 -20 hstemhm
          13 232 -155 155 -155 234 hintmask 11010000
          167 748 rmoveto
          -45 -49 callgsubr
          -323 vlineto
          -59 -27 -2 callgsubr
          12 5 rlineto
          -208 vlineto
          -34 callsubr
          45 -40 callgsubr
          281 vlineto
          60 28 rlineto
          hintmask 11001000
          14 callsubr
          hintmask 11100000
          -13 -6 rlineto
          250 vlineto
          28 -35 19 -43 vhcurveto
          endchar
        </CharString>
        <CharString name="m">
          298 21 -21 348 134 -6 -20 39 callsubr
          131 155 131 155 cntrmask 00011100
          hintmask 11011100
          331 47 rmoveto
          -33 41 -14 36 39 39 14 33 vhcurveto
          225 vlineto
          51 32 25 32 34 33 -26 -50 vhcurveto
          -224 vlineto
          -24 36 -24 41 -40 callgsubr
          224 vlineto
          134 -88 76 -94 -57 -58 -32 -68 -35 vhcurveto
          59 -20 -44 41 -54 hhcurveto
          -66 -44 -37 -39 -22 hvcurveto
          23 vlineto
          hintmask 10111100
          28 -31 19 -37 -45 -32 -19 -28 vhcurveto
          -51 callsubr
          45 42 -11 callgsubr
          224 vlineto
          51 31 24 32 34 34 -26 -50 vhcurveto
          endchar
        </CharString>
        <CharString name="m.ss04">
          296 21 -50 callsubr
          hstem
          40 155 133 155 133 155 cntrmask 00111000
          570 -20 callgsubr
          -63 -57 -21 -40 -45 hvcurveto
          40 -45 -56 21 -62 hhcurveto
          -111 -91 -99 -111 hvcurveto
          -224 vlineto
          -24 35 -24 43 41 -11 callgsubr
          224 vlineto
          38 31 37 36 36 30 -29 callgsubr
          38 31 37 36 36 30 -29 callgsubr
          112 -91 98 -110 vhcurveto
          endchar
        </CharString>
        <CharString name="macron">
          -220 600 99 hstem
          649 vmoveto
          -92 callgsubr
          endchar
        </CharString>
        <CharString name="minus">
          -25 221 127 hstem
          38 284 -75 callsubr
        </CharString>
        <CharString name="mu">
          14 -196 -21 207 135 351 -20 hstemhm
          51 135 -135 -28 callsubr
          hintmask 11101100
          279 -10 rmoveto
          124 103 98 112 hvcurveto
          229 vlineto
          25 -32 22 -45 -42 -36 -22 -25 vhcurveto
          -229 vlineto
          -38 -32 -37 -40 -40 -33 37 38 vhcurveto
          228 vlineto
          24 -36 24 -41 -43 -35 -24 -24 vhcurveto
          -597 vlineto
          -34 callsubr
          44 vhcurveto
          hintmask 11110100
          32 27 24 24 hvcurveto
          188 vlineto
          -18 28 32 -11 33 hhcurveto
          endchar
        </CharString>
        <CharString name="multiply">
          -105 125 -21 339 -20 hstem
          375 176 rmoveto
          11 -4 11 -8 8 vhcurveto
          -79 69 78 67 rlineto
          7 7 4 11 12 vvcurveto
          35 -36 36 -36 -11 -11 -4 -7 -7 vhcurveto
          -68 -68 -67 68 rlineto
          7 -8 -10 4 -12 hhcurveto
          -35 -36 -36 -36 -11 4 -11 7 -7 hvcurveto
          78 -67 -79 -69 rlineto
          -8 -8 -4 -10 -11 vvcurveto
          -34 40 -39 32 11 11 4 8 8 vhcurveto
          68 69 69 -69 rlineto
          -8 8 10 -4 11 hhcurveto
          35 38 38 34 hvcurveto
          endchar
        </CharString>
        <CharString name="n">
          19 21 -50 callsubr
          -6 -20 39 callsubr
          139 155 hintmask 11011000
          200 272 rmoveto
          11 callgsubr
          40 32 -21 callsubr
          -224 vlineto
          -32 41 -16 36 39 39 16 32 vhcurveto
          224 1 callgsubr
          -79 95 -91 -67 -48 -37 -39 -19 vhcurveto
          23 vlineto
          hintmask 10111000
          28 -31 19 -37 -45 -32 -19 -28 vhcurveto
          -51 callsubr
          45 42 -11 callgsubr
          endchar
        </CharString>
        <CharString name="n.ss04">
          14 21 -50 callsubr
          hstem
          40 155 139 155 vstem
          265 -20 callgsubr
          -123 -102 -99 -111 hvcurveto
          -224 vlineto
          -24 35 -24 43 41 -11 callgsubr
          224 vlineto
          38 32 37 38 38 31 -29 callgsubr
          112 -102 98 -122 vhcurveto
          endchar
        </CharString>
        <CharString name="nacute">
          19 21 -50 callsubr
          -6 -20 264 -20 39 callsubr
          -34 221 -48 155 hintmask 11011010
          200 272 rmoveto
          11 callgsubr
          40 32 -21 callsubr
          -224 vlineto
          -32 41 -16 36 39 39 16 32 vhcurveto
          224 1 callgsubr
          -79 95 -91 -67 -48 -37 -39 -19 vhcurveto
          23 vlineto
          hintmask 10111010
          28 -31 19 -37 -45 -32 -19 -28 vhcurveto
          -51 callsubr
          45 42 -11 callgsubr
          167 580 rmoveto
          hintmask 11010100
          -107 callgsubr
          endchar
        </CharString>
        <CharString name="ncaron">
          19 21 -50 callsubr
          -6 -20 276 -20 39 callsubr
          139 155 hintmask 11011100
          160 729 -106 callgsubr
          -64 -401 rmoveto
          11 callgsubr
          40 32 -21 callsubr
          -224 vlineto
          -32 41 -16 36 39 39 16 32 vhcurveto
          224 1 callgsubr
          -79 95 -91 -67 -48 -37 -39 -19 vhcurveto
          23 vlineto
          hintmask 10111100
          28 -31 19 -37 -45 -32 -19 -28 vhcurveto
          -51 callsubr
          45 42 -11 callgsubr
          endchar
        </CharString>
        <CharString name="ncommaaccent">
          19 30 callsubr
          347 135 -6 -20 39 callsubr
          -42 221 -40 155 hintmask 11101010
          200 272 rmoveto
          11 callgsubr
          40 32 -21 callsubr
          -224 vlineto
          -32 41 -16 36 39 39 16 32 vhcurveto
          224 1 callgsubr
          -79 95 -91 -67 -48 -37 -39 -19 vhcurveto
          23 vlineto
          hintmask 11011010
          28 -31 19 -37 -45 -32 -19 -28 vhcurveto
          -51 callsubr
          45 42 -11 callgsubr
          159 -188 rmoveto
          hintmask 11100100
          -107 callgsubr
          endchar
        </CharString>
        <CharString name="nine">
          48 -6 136 146 120 209 126 hstem
          33 -55 callsubr
          243 276 rmoveto
          48 45 9 35 32 hvcurveto
          -90 vlineto
          -69 -35 -31 -59 -47 -40 20 38 46 -38 11 -43 -50 -23 -15 -48 -83 67 -105 169 144 111 64 172 vhcurveto
          265 3 callsubr
          -46 callgsubr
          vhcurveto
          -9 vlineto
          -160 96 -50 114 vhcurveto
          125 212 rmoveto
          -66 -35 -26 -54 -57 -33 28 73 vhcurveto
          9 vlineto
          69 33 30 56 56 34 -30 -69 vhcurveto
          endchar
        </CharString>
        <CharString name="nineinferior">
          -165 -3 87 -87 147 8 76 101 80 hstemhm
          23 101 99 100 hintmask 10111100
          150 152 -67 callsubr
        </CharString>
        <CharString name="ninesuperior">
          -166 319 87 -87 147 8 76 101 80 hstemhm
          22 101 99 100 hintmask 10111100
          149 474 -67 callsubr
        </CharString>
        <CharString name="notequal">
          -1 -1 -21 94 127 76 127 -127 246 hstemhm
          hintmask 11010000
          433 469 rmoveto
          3 5 2 5 5 vvcurveto
          20 -23 17 -19 -9 -9 -3 -9 -5 vhcurveto
          hintmask 11100000
          -65 -107 rlineto
          -231 8 callgsubr
          154 hlineto
          -46 -76 rlineto
          -108 8 callgsubr
          32 hlineto
          -27 -44 rlineto
          -3 -5 -2 -5 -5 vvcurveto
          -19 22 -16 18 8 7 3 7 4 vhcurveto
          52 84 rlineto
          249 hlineto
          -72 callgsubr
          -171 hlineto
          47 76 rlineto
          124 hlineto
          -72 callgsubr
          -46 hlineto
          endchar
        </CharString>
        <CharString name="ntilde">
          19 21 -50 callsubr
          -6 -20 123 101 -74 74 39 callsubr
          139 155 hintmask 11001110
          213 606 rmoveto
          hintmask 11010110
          -90 callsubr
          hintmask 11001110
          -90 callgsubr
          -13 -334 rmoveto
          11 callgsubr
          40 32 -21 callsubr
          -224 vlineto
          -32 41 -16 36 39 39 16 32 vhcurveto
          224 1 callgsubr
          -79 95 -91 -67 -48 -37 -39 -19 vhcurveto
          23 vlineto
          hintmask 10110110
          28 -31 19 -37 -45 -32 -19 -28 vhcurveto
          -51 callsubr
          45 42 -11 callgsubr
          endchar
        </CharString>
        <CharString name="numbersign">
          202 49 -21 179 115 108 115 168 -20 hstem
          291 713 rmoveto
          36 callsubr
          -93 hlineto
          -26 -17 -26 -33 -34 16 -22 26 hvcurveto
          71 hlineto
          -21 -108 rlineto
          -92 hlineto
          -25 -18 -26 -33 -34 17 -22 25 hvcurveto
          70 hlineto
          -22 -122 rlineto
          -38 43 -19 33 24 32 15 19 4 vhcurveto
          28 145 rlineto
          101 hlineto
          -23 -122 rlineto
          -38 44 -19 33 25 31 15 19 4 vhcurveto
          28 145 rlineto
          91 hlineto
          22 23 23 35 32 -22 25 -22 hvcurveto
          -70 hlineto
          22 108 rlineto
          90 hlineto
          22 22 24 34 32 -21 25 -22 hvcurveto
          -70 hlineto
          22 111 rlineto
          42 -1 -35 15 -35 hhcurveto
          36 callsubr
          -103 hlineto
          21 111 rlineto
          42 -35 15 -35 vhcurveto
          27 -283 rmoveto
          102 hlineto
          -21 -108 rlineto
          -102 hlineto
          endchar
        </CharString>
        <CharString name="o">
          -6 -10 -63 callgsubr
          hstem
          27 -31 callgsubr
          -102 callgsubr
          endchar
        </CharString>
        <CharString name="oacute">
          -6 -10 -63 callgsubr
          -4 callgsubr
          -34 221 -42 155 hintmask 11110100
          -102 callgsubr
          22 356 rmoveto
          hintmask 11101000
          -107 callgsubr
          endchar
        </CharString>
        <CharString name="obreve">
          -6 -10 -63 callgsubr
          103 -6 callsubr
          27 155 -66 80 131 155 hintmask 11011010
          -102 callgsubr
          -12 452 rmoveto
          hintmask 11101010
          -34 callgsubr
          hintmask 11010110
          -87 callgsubr
          endchar
        </CharString>
        <CharString name="ocircumflex">
          -6 -10 -63 callgsubr
          0 87 151 -20 hstemhm
          27 -28 callsubr
          hintmask 11011100
          -102 callgsubr
          -73 356 -53 callsubr
          hintmask 10111100
          -107 callsubr
          endchar
        </CharString>
        <CharString name="odieresis">
          -6 -10 -63 callgsubr
          89 117 40 callgsubr
          -63 -30 callsubr
          -65 155 hintmask 11110010
          -102 callgsubr
          -151 416 rmoveto
          hintmask 11101100
          -102 callsubr
        </CharString>
        <CharString name="oe">
          281 -10 121 -121 135 -135 158 51 87 61 135 -112 112 hstemhm
          27 -28 callsubr
          145 145 hintmask 1001101110000000
          254 -20 callgsubr
          -125 -102 -98 -112 hvcurveto
          -70 vlineto
          -112 105 -100 122 62 55 28 44 41 vhcurveto
          -46 42 59 -26 67 hhcurveto
          113 73 52 38 hvcurveto
          hintmask 0011101110000000
          24 -21 44 -36 vhcurveto
          hintmask 1001101110000000
          -33 -30 -37 -62 hhcurveto
          -61 -41 33 49 hvcurveto
          6 193 vlineto
          46 51 4 89 113 -100 77 -115 -56 -50 -28 -44 -39 hvcurveto
          44 -39 -57 28 -62 hhcurveto
          73 -280 rmoveto
          hintmask 0101101110000000
          -40 -33 -37 -40 -40 -32 37 40 vhcurveto
          70 vlineto
          38 32 37 40 40 4 callsubr
          155 14 rmoveto
          24 vlineto
          hintmask 1001011110000000
          40 36 20 36 37 36 -20 -40 -19 -7 -5 -14 vhcurveto
          endchar
        </CharString>
        <CharString name="ogonek">
          -359 -218 63 183 -20 hstemhm
          0 11 callsubr
          hintmask 11100000
          131 -42 callsubr
          39 34 52 45 25 hvcurveto
          -53 19 rlineto
          -61 -34 -38 -62 -53 -14 callsubr
          vhcurveto
          hintmask 11010000
          -51 callgsubr
          hvcurveto
          endchar
        </CharString>
        <CharString name="ograve">
          -6 -10 -63 callgsubr
          -4 callgsubr
          -54 221 -22 155 hintmask 11110100
          -102 callgsubr
          -39 291 -62 callgsubr
          hintmask 11101000
          -100 callgsubr
          endchar
        </CharString>
        <CharString name="ohungarumlaut">
          -6 -10 -63 callgsubr
          242 -20 hstem
          27 -31 callgsubr
          -102 callgsubr
          -52 392 -98 callsubr
          239 95 -98 callsubr
          endchar
        </CharString>
        <CharString name="omacron">
          -6 -10 -63 callgsubr
          118 99 hstem
          27 -31 callgsubr
          -102 callgsubr
          -220 377 rmoveto
          -92 callgsubr
          endchar
        </CharString>
        <CharString name="one">
          -207 21 -21 733 -20 hstem
          101 -44 callsubr
          101 48 rmoveto
          -96 callgsubr
          636 vlineto
          -26 callgsubr
          endchar
        </CharString>
        <CharString name="one.lnum">
          -98 5 callgsubr
          597 -20 hstem
          138 -44 callsubr
          12 68 rmoveto
          -38 21 -30 27 vhcurveto
          309 hlineto
          24 24 30 38 38 -24 30 -24 hvcurveto
          -75 548 hlineto
          -26 callgsubr
          -421 -78 vlineto
          -27 -21 -30 -38 hvcurveto
          endchar
        </CharString>
        <CharString name="oneeighth">
          175 31 callgsubr
          59 25 callgsubr
          181 -18 callgsubr
          hintmask 1111111010100000
          84 352 -91 callsubr
          hintmask 1111110101100000
          16 4 rlineto
          433 -216 -48 callsubr
          hintmask 1111111010010000
          -80 callsubr
          hintmask 1111111010100000
          -95 callgsubr
          -56 -47 callgsubr
          endchar
        </CharString>
        <CharString name="onehalf">
          159 -25 -21 46 87 160 162 -87 25 callgsubr
          175 105 82 101 hintmask 1101111011000000
          84 352 -91 callsubr
          hintmask 1110110111000000
          16 4 rlineto
          283 -327 -7 callgsubr
          -85 callsubr
          94 474 -104 callgsubr
          endchar
        </CharString>
        <CharString name="oneinferior">
          -314 21 21 callsubr
          30 -91 callsubr
          hintmask 11010000
          16 4 rlineto
          endchar
        </CharString>
        <CharString name="onequarter">
          176 -25 -21 46 176 -92 92 -92 143 506 -20 59 -20 hstemhm
          23 164 -101 101 330 101 -101 156 hintmask 1100111010000000
          86 352 -91 callsubr
          hintmask 1100110110000000
          16 4 rlineto
          393 147 -104 callgsubr
          38 -742 -17 callsubr
          hintmask 1010111010000000
          54 25 vlineto
          hintmask 1100111001000000
          -8 callsubr
          hintmask 1100111010000000
          -25 21 hlineto
          hintmask 1001111010000000
          -7 callsubr
          hintmask 1100111010000000
          -72 callsubr
          hintmask 1010111010000000
          2 callsubr
          endchar
        </CharString>
        <CharString name="onesuperior">
          -314 343 21 callsubr
          352 -91 callsubr
          hintmask 11010000
          16 4 rlineto
          endchar
        </CharString>
        <CharString name="onethird">
          177 -25 -21 43 -24 callsubr
          -87 25 callgsubr
          183 -33 callsubr
          hintmask 1101011110110000
          84 352 -91 callsubr
          hintmask 1101101101110000
          16 4 rlineto
          377 147 -104 callgsubr
          56 -688 -4 callsubr
          hintmask 1011101110100100
          -79 callgsubr
          hintmask 1101101110101000
          -74 callsubr
          -59 callsubr
          hintmask 1101101110110000
          -74 callgsubr
          endchar
        </CharString>
        <CharString name="ordfeminine">
          -177 434 73 69 50 39 103 hstemhm
          21 101 83 100 vstemhm
          153 768 rmoveto
          -49 -65 -22 -31 -23 12 -27 22 hvcurveto
          hintmask 11111000
          18 6 22 55 hhcurveto
          40 13 -29 -25 hvcurveto
          -7 -25 vlineto
          -94 -65 -23 -79 -61 40 -28 46 -1 hvcurveto
          11 11 1 3 10 hvcurveto
          31 8 23 20 19 22 rrcurveto
          -17 vlineto
          -17 19 -14 25 29 20 14 17 vhcurveto
          163 vlineto
          69 -42 65 -110 vhcurveto
          52 -198 rmoveto
          -35 -30 -28 -24 -17 -12 9 22 29 30 9 35 vhcurveto
          18 hlineto
          endchar
        </CharString>
        <CharString name="ordmasculine">
          -166 433 88 159 88 hstem
          22 100 105 100 vstem
          174 768 rmoveto
          -84 -68 -66 -76 hvcurveto
          -50 vlineto
          -75 70 -68 82 82 71 68 75 vhcurveto
          50 vlineto
          78 -71 64 -82 vhcurveto
          53 -192 rmoveto
          -29 -24 -26 -29 -29 -23 26 29 vhcurveto
          50 vlineto
          28 23 26 29 29 24 -26 -28 vhcurveto
          endchar
        </CharString>
        <CharString name="oslash">
          -6 -11 -21 22 -63 callgsubr
          28 -20 hstem
          27 -31 callgsubr
          -70 callsubr
          73 -280 -38 callgsubr
        </CharString>
        <CharString name="oslashacute">
          -6 -11 -21 22 -63 callgsubr
          -4 callgsubr
          9 221 -85 155 hintmask 11111010
          -70 callsubr
          138 146 rmoveto
          hintmask 11111100
          -107 callgsubr
          hintmask 11111010
          75 -361 -38 callgsubr
        </CharString>
        <CharString name="otilde">
          -6 -10 -63 callgsubr
          97 101 -74 74 hstemhm
          27 -28 callsubr
          hintmask 11011100
          -102 callgsubr
          -125 334 rmoveto
          hintmask 11101100
          -90 callsubr
          hintmask 11011100
          -90 callgsubr
          endchar
        </CharString>
        <CharString name="p">
          18 -196 -21 207 -63 callgsubr
          -6 -20 hstemhm
          46 -50 callgsubr
          hintmask 11011100
          120 476 rmoveto
          -41 -33 -19 -28 hvcurveto
          -598 -29 callsubr
          239 -20 callsubr
          hintmask 11101100
          115 -78 95 -101 -63 -49 -37 -39 -23 vhcurveto
          23 vlineto
          hintmask 11011100
          28 -30 19 -41 vhcurveto
          230 -274 rmoveto
          -39 -35 -38 -39 -44 -31 47 17 vhcurveto
          83 vlineto
          hintmask 11101100
          47 37 28 36 42 34 -21 callsubr
          endchar
        </CharString>
        <CharString name="paragraph">
          57 21 -21 665 66 hstem
          236 96 85 96 vstem
          218 731 rmoveto
          -110 -86 -56 -150 hvcurveto
          -12 vlineto
          -150 86 -57 110 vhcurveto
          18 -258 hlineto
          -32 24 -16 24 24 24 16 32 vhcurveto
          617 85 -618 vlineto
          -33 24 -14 24 24 24 14 33 vhcurveto
          636 vlineto
          32 -24 16 -24 vhcurveto
          endchar
        </CharString>
        <CharString name="parenleft">
          35 callsubr
          43 -44 callsubr
          263 -20 rmoveto
          70 11 27 39 34 -8 35 -39 -43 -55 10 48 hvcurveto
          388 vlineto
          35 35 37 63 28 19 27 41 37 -15 30 -62 -101 -123 -78 -129 vhcurveto
          -388 vlineto
          -139 122 -54 98 vhcurveto
          endchar
        </CharString>
        <CharString name="parenright">
          35 callsubr
          159 -44 callsubr
          95 -20 rmoveto
          98 122 54 139 hvcurveto
          388 vlineto
          129 -123 78 -101 -62 -15 -30 -37 -41 19 -27 28 63 35 -37 -35 vhcurveto
          -388 vlineto
          -48 -55 -10 -43 -39 -8 -35 -34 -39 11 -27 70 vhcurveto
          endchar
        </CharString>
        <CharString name="partialdiff">
          9 -10 -63 callgsubr
          111 155 -132 132 -15 callsubr
          hintmask 11101100
          332 406 rmoveto
          -56 callgsubr
          108 -101 121 125 105 108 112 vhcurveto
          143 vlineto
          313 -150 82 -125 -90 -77 -42 -31 -19 20 -63 36 vhcurveto
          hintmask 11011100
          25 24 23 50 hhcurveto
          83 39 -52 -158 10 hvcurveto
          -149 -134 -9 callsubr
        </CharString>
        <CharString name="percent">
          292 -25 -21 43 87 235 90 235 87 41 -20 hstem
          24 101 99 100 159 101 99 100 vstem
          174 319 -97 callgsubr
          409 -599 -97 callgsubr
          -108 498 -104 callgsubr
          endchar
        </CharString>
        <CharString name="period">
          -316 -6 154 hstem
          23 153 vstem
          100 1 callsubr
          endchar
        </CharString>
        <CharString name="periodcentered">
          -302 228 143 hstem
          25 163 vstem
          107 371 rmoveto
          -76 callgsubr
          endchar
        </CharString>
        <CharString name="perthousand">
          641 -25 -21 43 87 235 90 235 87 41 -20 hstem
          24 101 99 100 159 101 99 100 49 101 99 100 vstem
          174 319 -97 callgsubr
          409 -599 -97 callgsubr
          -108 498 -104 callgsubr
          407 -775 -54 callgsubr
        </CharString>
        <CharString name="pi">
          46 21 -21 340 136 hstem
          45 156 159 -44 callsubr
          113 476 rmoveto
          -34 -34 -16 -32 hvcurveto
          -381 vlineto
          -33 39 -14 39 39 39 14 33 vhcurveto
          293 159 -293 vlineto
          -33 39 -14 39 39 39 14 33 vhcurveto
          381 vlineto
          32 -34 16 -34 vhcurveto
          endchar
        </CharString>
        <CharString name="plus">
          -60 54 -21 144 127 144 -20 hstem
          164 127 vstem
          228 33 rmoveto
          38 25 19 28 hvcurveto
          97 96 vlineto
          -72 callgsubr
          -96 96 36 callgsubr
          -96 26 callsubr
          -97 hlineto
          -28 28 -19 36 vhcurveto
          endchar
        </CharString>
        <CharString name="plusminus">
          -42 22 127 163 127 134 -20 hstem
          173 127 vstem
          237 178 rmoveto
          38 25 19 28 hvcurveto
          87 96 vlineto
          -72 callgsubr
          -96 86 36 callgsubr
          -86 26 callsubr
          -87 hlineto
          -28 28 -19 36 vhcurveto
          -208 -93 -75 callsubr
        </CharString>
        <CharString name="product">
          84 21 -21 595 136 hstem
          54 -55 callsubr
          122 731 rmoveto
          -34 -34 -16 -32 hvcurveto
          -636 vlineto
          -33 39 -14 39 39 39 14 33 vhcurveto
          548 179 -548 vlineto
          -33 39 -14 39 39 39 14 33 vhcurveto
          636 vlineto
          32 -34 16 -34 vhcurveto
          endchar
        </CharString>
        <CharString name="q">
          18 -196 -21 207 -63 callgsubr
          -6 18 callgsubr
          hintmask 11011100
          25 callsubr
          hintmask 11101100
          29 callgsubr
          -70 27 callsubr
          26 callgsubr
          598 vlineto
          hintmask 11011100
          28 -33 19 -41 vhcurveto
          -230 -204 rmoveto
          hintmask 11101100
          38 34 37 42 36 37 -28 -47 vhcurveto
          -83 29 callsubr
        </CharString>
        <CharString name="q.ss02">
          12 -196 -21 207 -63 callgsubr
          hstem
          27 -50 callgsubr
          vstem
          201 -10 rmoveto
          59 52 39 41 19 hvcurveto
          26 callgsubr
          441 1 callgsubr
          -107 95 -123 -126 -103 -98 -112 vhcurveto
          -70 vlineto
          -111 81 -101 93 vhcurveto
          55 135 rmoveto
          -39 -35 38 39 hvcurveto
          70 vlineto
          38 33 37 41 41 34 -21 callsubr
          -83 vlineto
          -17 -31 -47 -44 vhcurveto
          endchar
        </CharString>
        <CharString name="question">
          -62 -6 154 392 191 -114 114 hstemhm
          128 153 -133 114 42 126 hintmask 11010100
          430 566 rmoveto
          94 -85 71 -128 -135 -62 -80 -54 -39 33 -18 27 vhcurveto
          hintmask 10101100
          54 -22 77 102 hhcurveto
          50 40 -22 -46 -54 -56 -31 -33 -28 hvcurveto
          -29 -25 -38 -41 -86 vvcurveto
          -52 14 -15 41 49 10 22 19 52 1 30 55 43 vhcurveto
          27 21 85 68 94 vvcurveto
          -226 -418 rmoveto
          hintmask 11010100
          -42 -34 -6 callgsubr
          43 43 34 36 41 42 -35 35 -42 hvcurveto
          endchar
        </CharString>
        <CharString name="questiondown">
          -63 -6 114 -114 191 392 154 hstemhm
          22 126 23 133 -133 153 -134 114 hintmask 01111000
          22 159 rmoveto
          -94 85 -71 128 135 62 80 54 39 -33 18 -27 vhcurveto
          hintmask 10110010
          -54 22 -77 -102 hhcurveto
          -50 -40 22 46 54 56 31 33 28 hvcurveto
          29 25 38 41 86 vvcurveto
          52 -14 15 -41 -49 -10 -22 -19 -52 -1 -30 -55 -43 vhcurveto
          -27 -21 -85 -68 -94 vvcurveto
          226 418 rmoveto
          hintmask 10110100
          42 34 35 42 41 -33 36 -43 -43 -34 -36 -41 -42 35 -35 42 hvcurveto
          endchar
        </CharString>
        <CharString name="quotedbl">
          -200 559 209 hstem
          28 99 61 99 vstem
          77 768 rmoveto
          -53 callgsubr
          160 hmoveto
          -53 callgsubr
          endchar
        </CharString>
        <CharString name="quotedblbase">
          -116 -85 -14 callgsubr
          47 153 vstem
          299 148 -68 callgsubr
        </CharString>
        <CharString name="quotedblleft">
          -124 34 callgsubr
          16 153 47 153 vstem
          93 487 rmoveto
          -81 callsubr
          200 hmoveto
          -81 callsubr
          endchar
        </CharString>
        <CharString name="quotedblright">
          -125 508 -14 callgsubr
          47 153 vstem
          299 741 -68 callgsubr
        </CharString>
        <CharString name="quoteleft">
          -324 34 callgsubr
          16 153 vstem
          93 487 rmoveto
          -81 callsubr
          endchar
        </CharString>
        <CharString name="quoteright">
          -325 508 -14 callgsubr
          vstem
          99 741 rmoveto
          -43 callgsubr
        </CharString>
        <CharString name="quotesinglbase">
          -316 -85 -14 callgsubr
          vstem
          99 148 rmoveto
          -43 callgsubr
        </CharString>
        <CharString name="quotesingle">
          -360 559 209 hstem
          28 99 vstem
          77 768 rmoveto
          -53 callgsubr
          endchar
        </CharString>
        <CharString name="r">
          -121 21 -50 callsubr
          -6 -20 39 callsubr
          hintmask 11010000
          -61 callgsubr
          hintmask 10110000
          28 -31 19 -38 -44 -32 -19 -28 vhcurveto
          -381 -29 callsubr
          150 vlineto
          hintmask 11010000
          35 callgsubr
          endchar
        </CharString>
        <CharString name="r.ss04">
          -131 21 -50 callsubr
          hstem
          35 155 vstem
          328 347 rmoveto
          29 26 31 37 36 -20 31 -39 hvcurveto
          -56 hlineto
          -157 -76 -147 -135 hvcurveto
          -152 -29 callsubr
          150 vlineto
          35 callgsubr
          endchar
        </CharString>
        <CharString name="racute">
          -121 21 -50 callsubr
          -6 -20 264 -20 39 callsubr
          -84 221 hintmask 11011000
          -61 callgsubr
          hintmask 10111000
          28 -31 19 -38 -44 -32 -19 -28 vhcurveto
          -381 -29 callsubr
          150 vlineto
          hintmask 11010100
          35 callgsubr
          8 281 rmoveto
          -107 callgsubr
          endchar
        </CharString>
        <CharString name="radical">
          197 -14 -21 352 127 197 127 hstem
          -4 380 -22 callgsubr
          28 hlineto
          101 -300 rlineto
          -35 12 44 -17 46 hhcurveto
          46 45 17 35 11 hvcurveto
          190 624 rlineto
          108 hlineto
          -72 callgsubr
          -200 hlineto
          -20 -18 -16 -19 -5 hvcurveto
          -157 -593 -64 249 rlineto
          26 -7 -13 29 -27 hhcurveto
          -120 -54 callsubr
        </CharString>
        <CharString name="rcaron">
          -121 21 -50 callsubr
          -6 -20 276 -20 39 callsubr
          hintmask 11011000
          -61 callgsubr
          hintmask 10111000
          28 -31 19 -38 -44 -32 -19 -28 vhcurveto
          -381 -29 callsubr
          150 vlineto
          hintmask 11011000
          35 callgsubr
          -206 382 -106 callgsubr
          endchar
        </CharString>
        <CharString name="rcommaaccent">
          -121 30 callsubr
          347 135 -6 -20 hstemhm
          11 221 -187 155 hintmask 11101000
          -61 callgsubr
          hintmask 11010100
          28 -31 19 -38 -44 -32 -19 -28 vhcurveto
          -381 -29 callsubr
          150 vlineto
          hintmask 11101000
          35 callgsubr
          -97 -487 rmoveto
          -107 callgsubr
          endchar
        </CharString>
        <CharString name="registered">
          165 35 70 77 206 92 67 68 70 hstem
          33 70 125 76 97 75 101 70 vstem
          -27 callsubr
          195 -150 rmoveto
          -17 20 -9 20 20 16 10 16 vhcurveto
          116 42 vlineto
          63 -126 rlineto
          -12 6 7 -5 10 hhcurveto
          19 22 20 21 2 0 3 -1 2 hvcurveto
          -59 108 rlineto
          36 14 27 34 54 vvcurveto
          81 -57 27 -65 vhcurveto
          -101 hlineto
          -15 -10 -12 -13 hvcurveto
          126 -42 rmoveto
          30 17 -12 -37 -30 -17 -13 -30 hvcurveto
          -50 92 hlineto
          273 -118 -17 callgsubr
          endchar
        </CharString>
        <CharString name="ring">
          -315 565 60 81 63 hstem
          0 59 80 61 vstem
          99 -40 callsubr
          endchar
        </CharString>
        <CharString name="s">
          -86 -10 -37 callsubr
          hstemhm
          35 133 101 135 hintmask 10101100
          207 105 rmoveto
          hintmask 01011100
          -80 callgsubr
          hintmask 10101100
          -84 callgsubr
          endchar
        </CharString>
        <CharString name="sacute">
          -86 -10 -37 callsubr
          238 -20 hstemhm
          35 133 -51 221 -69 135 hintmask 10101101
          207 105 rmoveto
          hintmask 01011101
          -80 callgsubr
          hintmask 10101101
          -84 callgsubr
          111 523 rmoveto
          hintmask 10101010
          -107 callgsubr
          endchar
        </CharString>
        <CharString name="scaron">
          -86 -10 -37 callsubr
          250 -20 hstemhm
          35 133 101 135 hintmask 10101110
          207 105 rmoveto
          hintmask 01011110
          -80 callgsubr
          hintmask 10101110
          -84 callgsubr
          -94 624 -106 callgsubr
          endchar
        </CharString>
        <CharString name="scedilla">
          -86 -15 callgsubr
          38 114 -114 159 187 145 -115 115 hstemhm
          35 133 -29 199 -69 69 -69 135 hintmask 1001010101000000
          207 105 rmoveto
          hintmask 1000110101000000
          -80 -23 45 -32 hhcurveto
          -31 -20 -44 -24 -46 72 -39 94 -6 hvcurveto
          -23 -80 62 -6 rlineto
          -21 callgsubr
          hintmask 0101010010000000
          -60 callgsubr
          hintmask 0011001100100000
          9 callgsubr
          13 40 rlineto
          99 11 54 56 84 176 -236 -41 56 vvcurveto
          15 17 17 40 vhcurveto
          hintmask 1001010101000000
          -84 callgsubr
          endchar
        </CharString>
        <CharString name="schwa">
          -19 -10 112 84 87 51 158 -121 121 hstemhm
          24 145 -11 callsubr
          hintmask 11101100
          239 -10 rmoveto
          128 102 95 112 hvcurveto
          73 vlineto
          127 -105 85 -148 -113 -73 -52 -38 -24 21 -44 36 vhcurveto
          hintmask 11011100
          33 30 37 62 hhcurveto
          61 41 -33 -49 hvcurveto
          -6 -193 vlineto
          -46 -51 -4 -89 -113 100 -77 115 hvcurveto
          75 196 rmoveto
          -24 vlineto
          -40 -36 -20 -36 -37 -36 20 40 19 7 5 14 vhcurveto
          endchar
        </CharString>
        <CharString name="scircumflex">
          -86 -10 115 45 217 -30 145 0 87 151 -20 hstemhm
          35 133 101 135 hintmask 11011110
          207 105 rmoveto
          -80 callgsubr
          hintmask 10101110
          -84 callgsubr
          6 523 -53 callsubr
          hintmask 11011110
          -107 callsubr
          endchar
        </CharString>
        <CharString name="scommaaccent">
          -86 -188 -21 199 -37 callsubr
          hstemhm
          35 133 -61 221 -59 135 hintmask 11010101
          207 105 rmoveto
          hintmask 10101101
          -80 callgsubr
          hintmask 11010101
          -84 callgsubr
          101 -245 rmoveto
          hintmask 11010010
          14 7 6 13 14 vvcurveto
          26 -20 32 -27 -4 -5 -1 -2 -5 vhcurveto
          -140 -65 rlineto
          -14 -7 -6 -13 -15 vvcurveto
          -26 20 -32 26 vhcurveto
          hintmask 11010101
          5 5 2 2 5 hvcurveto
          endchar
        </CharString>
        <CharString name="section">
          -30 -69 127 -127 228 344 228 -124 124 hstemhm
          38 127 -127 142 115 156 -142 122 -105 125 hintmask 1010101000000000
          38 417 rmoveto
          -241 257 37 -103 vvcurveto
          -26 -17 -26 -49 -55 -5 34 26 vhcurveto
          hintmask 0101011000000000
          22 -16 19 -50 -41 -24 -13 -47 -77 64 -91 135 91 123 41 173 vhcurveto
          100 vlineto
          241 -271 -37 103 vvcurveto
          26 18 29 49 vhcurveto
          hintmask 1010100100000000
          50 12 -31 -26 -24 14 -23 51 35 22 11 48 79 -61 90 -128 -87 -117 -41 -173 hvcurveto
          hintmask 1010100010000000
          288 -269 rmoveto
          -49 39 -112 5 92 vvcurveto
          18 vlineto
          49 -39 112 -5 -92 vvcurveto
          endchar
        </CharString>
        <CharString name="semicolon">
          -290 -85 -21 374 154 hstem
          33 153 vstem
          109 148 rmoveto
          -101 callgsubr
          7 274 7 callgsubr
          endchar
        </CharString>
        <CharString name="seven">
          -3 15 -21 486 -20 135 136 hstem
          12 -55 callsubr
          503 683 rmoveto
          24 -38 24 -30 vhcurveto
          -355 hlineto
          -34 -34 -24 -24 hvcurveto
          -155 vlineto
          -27 35 -21 42 41 38 21 27 vhcurveto
          67 179 -70 vlineto
          -246 -426 rlineto
          -5 -9 -2 -8 -9 vvcurveto
          -45 50 -34 49 21 15 6 15 8 vhcurveto
          234 448 rlineto
          16 30 16 39 26 vvcurveto
          endchar
        </CharString>
        <CharString name="seveneighths">
          296 31 callgsubr
          67 79 175 147 -87 87 41 -20 hstemhm
          21 101 365 -18 callgsubr
          hintmask 1111101110100000
          321 701 -48 callgsubr
          hintmask 1111011101100000
          -62 callsubr
          317 -216 -48 callsubr
          hintmask 1111101110010000
          -80 callsubr
          hintmask 1111101110100000
          -95 callgsubr
          -106 -47 callgsubr
          endchar
        </CharString>
        <CharString name="seveninferior">
          -196 17 21 callgsubr
          379 -48 callgsubr
          hintmask 10110000
          -62 callsubr
          endchar
        </CharString>
        <CharString name="sevensuperior">
          -196 339 21 callgsubr
          701 -48 callgsubr
          hintmask 10110000
          -62 callsubr
          endchar
        </CharString>
        <CharString name="six">
          47 -6 126 209 120 31 -20 135 136 hstem
          39 -55 callsubr
          320 449 rmoveto
          -48 -45 -9 -35 -32 hvcurveto
          90 vlineto
          69 35 31 59 47 40 -20 -38 -46 38 -11 43 50 23 15 48 83 -67 105 -169 -144 -111 -64 -172 vhcurveto
          -25 callsubr
          108 -64 138 138 107 64 172 vhcurveto
          9 vlineto
          160 -96 50 -114 vhcurveto
          -125 -212 rmoveto
          66 35 26 54 57 33 -28 -73 vhcurveto
          -9 vlineto
          -69 -33 -30 -56 -56 -34 30 69 vhcurveto
          endchar
        </CharString>
        <CharString name="sixinferior">
          -165 -3 80 101 76 8 147 -87 87 hstemhm
          27 101 99 100 hintmask 11011100
          201 254 -67 callgsubr
        </CharString>
        <CharString name="sixsuperior">
          -164 319 80 101 76 8 147 -87 87 hstemhm
          28 101 99 100 hintmask 11011100
          202 576 -67 callgsubr
        </CharString>
        <CharString name="slash">
          -24 -25 -21 818 -20 hstem
          415 772 -104 callgsubr
          endchar
        </CharString>
        <CharString name="space">
          -315 endchar
        </CharString>
        <CharString name="sterling">
          50 5 callgsubr
          230 110 157 135 hstem
          489 136 rmoveto
          -220 hlineto
          33 230 rlineto
          123 -31 callsubr
          -107 hlineto
          10 69 rlineto
          51 7 31 37 71 hhcurveto
          47 hlineto
          32 18 35 33 33 -18 34 -32 hvcurveto
          -42 hlineto
          -130 -120 -91 -132 -19 hvcurveto
          -10 -69 rlineto
          -63 hlineto
          -33 callgsubr
          47 hlineto
          -32 -230 rlineto
          -50 hlineto
          -30 -15 -34 -34 -34 15 -34 30 hvcurveto
          424 hlineto
          30 15 34 34 34 -15 34 -30 hvcurveto
          endchar
        </CharString>
        <CharString name="summation">
          25 -227 136 686 136 hstem
          237 252 rmoveto
          -196 -356 rlineto
          -8 -15 -10 -26 -24 vvcurveto
          -30 15 -28 50 vhcurveto
          383 hlineto
          30 17 36 32 32 -17 36 -30 hvcurveto
          -257 hlineto
          132 230 23 callsubr
          -132 230 rlineto
          257 hlineto
          30 17 36 32 32 -17 36 -30 hvcurveto
          -383 hlineto
          -50 -15 -28 -30 -24 10 -26 8 -15 hvcurveto
          endchar
        </CharString>
        <CharString name="t">
          -151 0 130 236 110 207 -20 hstem
          43 155 vstem
          -88 callsubr
          endchar
        </CharString>
        <CharString name="tbar">
          -149 0 130 64 110 62 110 207 -20 hstem
          43 155 vstem
          -88 callsubr
          25 113 vlineto
          -23 callgsubr
          -113 hlineto
          endchar
        </CharString>
        <CharString name="tcaron">
          -151 0 130 236 110 292 -20 hstem
          43 155 33 153 vstem
          -88 callsubr
          109 599 rmoveto
          -43 callgsubr
        </CharString>
        <CharString name="tcommaaccent">
          -151 -188 -21 209 130 236 110 207 -20 hstemhm
          43 155 -131 221 hintmask 11111000
          -88 callsubr
          70 -309 rmoveto
          hintmask 11110100
          -107 callgsubr
          endchar
        </CharString>
        <CharString name="thorn">
          18 -196 -21 207 -63 callgsubr
          266 -20 hstem
          46 -50 callgsubr
          vstem
          120 748 rmoveto
          -41 -33 -19 -28 hvcurveto
          -870 -29 callsubr
          239 -20 callsubr
          115 -78 95 -101 -58 -46 -37 -39 -21 vhcurveto
          295 vlineto
          28 -34 19 -47 vhcurveto
          230 -546 -9 callgsubr
        </CharString>
        <CharString name="three">
          19 -6 136 -136 246 79 120 50 242 -134 134 hstemhm
          16 154 -139 154 148 149 -131 156 hintmask 1011010100000000
          259 130 rmoveto
          -45 -44 11 47 hvcurveto
          hintmask 0111010010000000
          38 -16 14 -64 -55 -19 -12 -45 -84 66 -105 172 140 113 62 164 vhcurveto
          19 vlineto
          81 -43 44 -59 22 vhcurveto
          hintmask 1011001100000000
          50 23 27 68 73 vvcurveto
          135 -96 46 -127 -172 -56 -101 -78 -48 9 -15 72 58 15 23 34 vhcurveto
          hintmask 1010110100000000
          39 25 12 49 41 33 -14 -58 -81 -40 -5 -38 -34 -11 -30 -30 -30 11 -30 34 vhcurveto
          hintmask 1011010010000000
          55 41 -13 -67 hvcurveto
          -19 vlineto
          -65 -24 -25 -68 vhcurveto
          endchar
        </CharString>
        <CharString name="threeeighths">
          296 31 callgsubr
          56 90 -90 144 32 77 18 141 -85 85 41 -20 hstemhm
          22 -33 callsubr
          166 -18 callgsubr
          hintmask 111101101110001100000000
          639 22 callgsubr
          hintmask 111101101110010010000000
          -80 callsubr
          hintmask 111101101110010100000000
          -95 callgsubr
          -56 -47 callgsubr
          -412 -366 -4 callsubr
          hintmask 111011101100110100000000
          -79 callgsubr
          hintmask 111101101101010100000000
          -74 callsubr
          vhcurveto
          hintmask 111101011101010100000000
          -59 callsubr
          hintmask 111101101110010100000000
          -74 callgsubr
          endchar
        </CharString>
        <CharString name="threeinferior">
          -179 -3 -24 callsubr
          -85 85 hstemhm
          15 -33 callsubr
          hintmask 1011011000000000
          164 84 -75 callgsubr
        </CharString>
        <CharString name="threequarters">
          311 -25 -21 46 176 -92 92 -92 143 92 -24 callsubr
          -85 85 41 -20 hstemhm
          27 -33 callsubr
          325 101 -101 156 hintmask 1100101101110010
          176 406 -4 callsubr
          hintmask 1100011101100110
          -79 callgsubr
          hintmask 1100101101101010
          -74 callsubr
          vhcurveto
          hintmask 1100101011101010
          -59 callsubr
          hintmask 1100101101110010
          -74 callgsubr
          476 -376 -17 callsubr
          hintmask 1010101101110010
          54 25 vlineto
          hintmask 1100101101110001
          -8 callsubr
          hintmask 1100101101110010
          -25 21 hlineto
          hintmask 1001101101110010
          -7 callsubr
          hintmask 1100101101110010
          -72 callsubr
          hintmask 1010101101110010
          2 callsubr
          -44 688 -104 callgsubr
          endchar
        </CharString>
        <CharString name="threesuperior">
          -179 319 -24 callsubr
          -85 85 hstemhm
          15 -33 callsubr
          hintmask 1011011000000000
          164 406 -75 callgsubr
        </CharString>
        <CharString name="tilde">
          -160 579 101 -74 74 hstemhm
          hintmask 01000000
          124 606 rmoveto
          hintmask 10000000
          -90 callsubr
          hintmask 01000000
          -90 callgsubr
          endchar
        </CharString>
        <CharString name="trademark">
          178 497 -21 217 75 hstemhm
          39 177 -81 81 -81 177 17 81 152 80 hintmask 11100110
          63 768 rmoveto
          -17 -7 -19 -18 -20 9 -18 15 hvcurveto
          hintmask 11010110
          72 -191 hlineto
          -17 20 -9 21 20 20 9 17 vhcurveto
          191 72 vlineto
          hintmask 11001110
          15 9 18 20 18 -7 19 -17 hvcurveto
          274 -164 rmoveto
          -102 vlineto
          -17 20 -9 20 20 20 9 17 vhcurveto
          225 vlineto
          30 -19 11 -21 -29 -13 -3 -39 -20 vhcurveto
          -54 -107 -55 107 rlineto
          39 -20 -13 3 -29 hhcurveto
          -20 -20 -11 -30 hvcurveto
          -225 vlineto
          -17 20 -9 20 20 21 9 17 vhcurveto
          106 vlineto
          49 -103 rlineto
          -13 6 10 -3 10 hhcurveto
          10 10 4 12 6 hvcurveto
          endchar
        </CharString>
        <CharString name="two">
          2 5 callgsubr
          454 141 hstemhm
          23 164 -152 152 151 156 hintmask 11101000
          35 539 rmoveto
          -63 30 -18 40 51 31 28 29 55 35 20 40 56 20 -39 -32 vhcurveto
          -127 -315 -90 -157 vvcurveto
          -97 vlineto
          -29 40 -19 28 vhcurveto
          356 hlineto
          25 22 33 36 36 -22 31 -25 hvcurveto
          -262 9 hlineto
          91 309 71 217 vvcurveto
          134 -117 73 -116 vhcurveto
          hintmask 11011000
          -114 -112 -70 -122 hvcurveto
          endchar
        </CharString>
        <CharString name="twoinferior">
          -189 0 16 callgsubr
          298 -7 callgsubr
          vhcurveto
          hintmask 10111000
          -85 callsubr
          endchar
        </CharString>
        <CharString name="twosuperior">
          -189 322 16 callgsubr
          620 -7 callgsubr
          vhcurveto
          hintmask 10111000
          -85 callsubr
          endchar
        </CharString>
        <CharString name="twothirds">
          290 -25 -21 43 -24 callsubr
          -87 87 160 162 -90 90 41 -20 hstemhm
          25 105 82 101 170 -33 callsubr
          hintmask 1101101011111000
          32 620 -7 callgsubr
          vhcurveto
          hintmask 1101010111111000
          -85 callsubr
          600 -536 -4 callsubr
          hintmask 1011101011110010
          -79 callgsubr
          hintmask 1101101011110100
          -74 callsubr
          -59 callsubr
          hintmask 1101101011111000
          -74 callgsubr
          -47 688 -104 callgsubr
          endchar
        </CharString>
        <CharString name="u">
          -32 callsubr
          hstem
          40 -31 callgsubr
          -103 callgsubr
          endchar
        </CharString>
        <CharString name="u.ss04">
          25 0 125 -114 -21 486 -20 hstemhm
          40 -28 callsubr
          hintmask 01111000
          214 -10 rmoveto
          62 55 39 41 19 hvcurveto
          -22 vlineto
          hintmask 10111000
          -24 31 -24 38 44 32 24 24 vhcurveto
          381 vlineto
          28 -32 19 -44 -44 -35 -19 -28 vhcurveto
          -240 vlineto
          -17 -32 -47 -41 -40 -32 38 39 vhcurveto
          227 vlineto
          28 -32 19 -44 -44 -35 -19 -28 vhcurveto
          -227 vlineto
          hintmask 01111000
          -111 81 -101 93 vhcurveto
          endchar
        </CharString>
        <CharString name="uacute">
          -32 callsubr
          264 -20 hstemhm
          40 155 -24 221 -52 155 hintmask 11110100
          -103 callgsubr
          104 638 rmoveto
          hintmask 11101000
          -107 callgsubr
          endchar
        </CharString>
        <CharString name="ubreve">
          -32 callsubr
          129 -6 callsubr
          40 155 -65 80 130 69 -69 155 hintmask 11011001
          -103 callgsubr
          61 734 rmoveto
          hintmask 11101010
          -34 callgsubr
          hintmask 11010110
          -87 callgsubr
          endchar
        </CharString>
        <CharString name="ucircumflex">
          -36 callsubr
          93 151 -20 hstem
          40 -31 callgsubr
          -103 callgsubr
          1 638 -53 callsubr
          -107 callsubr
          endchar
        </CharString>
        <CharString name="udieresis">
          -32 callsubr
          115 117 hstemhm
          40 155 -63 -30 callsubr
          -65 155 hintmask 11110010
          -103 callgsubr
          -79 698 rmoveto
          hintmask 11101100
          -102 callsubr
        </CharString>
        <CharString name="ugrave">
          -32 callsubr
          264 -20 hstemhm
          40 155 -54 221 -22 155 hintmask 11110100
          -103 callgsubr
          33 573 -62 callgsubr
          hintmask 11101000
          -100 callgsubr
          endchar
        </CharString>
        <CharString name="uhungarumlaut">
          -32 callsubr
          100 166 hstem
          40 -31 callgsubr
          -103 callgsubr
          15 672 -98 callsubr
          239 95 -98 callsubr
          endchar
        </CharString>
        <CharString name="umacron">
          -32 callsubr
          144 99 hstem
          40 -31 callgsubr
          -103 callgsubr
          -145 659 rmoveto
          -92 callgsubr
          endchar
        </CharString>
        <CharString name="underscore">
          -209 -127 127 hstem
          -54 -64 -75 callsubr
        </CharString>
        <CharString name="uni00A0">
          -315 endchar
        </CharString>
        <CharString name="uni00AD">
          -39 177 127 hstem
          31 240 -75 callsubr
        </CharString>
        <CharString name="uogonek">
          20 -218 63 145 135 351 -20 hstemhm
          40 155 12 11 callsubr
          -23 155 hintmask 11111010
          338 -42 callsubr
          38 32 50 43 25 hvcurveto
          82 33 58 76 85 vvcurveto
          229 vlineto
          25 -32 22 -45 -42 -36 -22 -25 vhcurveto
          -229 vlineto
          -38 -32 -37 -40 -40 -33 37 38 vhcurveto
          228 vlineto
          24 -36 24 -41 -43 -35 -24 -24 vhcurveto
          -228 vlineto
          -108 96 -96 120 -6 vhcurveto
          -31 -33 -18 -41 -37 -26 callsubr
          endchar
        </CharString>
        <CharString name="uring">
          -32 callsubr
          109 60 81 63 hstemhm
          40 155 -28 59 80 61 -27 155 hintmask 11111001
          -103 callgsubr
          -2 779 rmoveto
          hintmask 11110110
          -65 callsubr
        </CharString>
        <CharString name="utilde">
          -32 callsubr
          123 101 -74 74 hstemhm
          40 -28 callsubr
          hintmask 11011100
          -103 callgsubr
          -53 616 rmoveto
          hintmask 11101100
          -90 callsubr
          hintmask 11011100
          -90 callgsubr
          endchar
        </CharString>
        <CharString name="v">
          -12 8 -21 496 -20 hstem
          182 14 rmoveto
          -18 8 31 -9 31 hhcurveto
          30 32 9 18 8 hvcurveto
          176 385 rlineto
          3 7 1 4 7 vvcurveto
          36 -73 30 -32 -19 -16 -7 -18 -7 vhcurveto
          -103 -261 -103 261 rlineto
          18 -7 -17 7 -19 hhcurveto
          -40 -65 -29 -36 -5 2 -9 3 -5 hvcurveto
          endchar
        </CharString>
        <CharString name="w">
          20 callgsubr
          hstem
          -100 callsubr
          endchar
        </CharString>
        <CharString name="wacute">
          33 callgsubr
          270 221 vstem
          -100 callsubr
          -70 614 rmoveto
          -107 callgsubr
          endchar
        </CharString>
        <CharString name="wcircumflex">
          33 callgsubr
          -100 callsubr
          -190 614 -53 callsubr
          -107 callsubr
          endchar
        </CharString>
        <CharString name="wdieresis">
          20 callgsubr
          109 117 hstem
          215 -30 callsubr
          vstem
          -100 callsubr
          -269 674 rmoveto
          -102 callsubr
        </CharString>
        <CharString name="wgrave">
          33 callgsubr
          210 221 vstem
          -100 callsubr
          -171 549 -62 callgsubr
          -100 callgsubr
          endchar
        </CharString>
        <CharString name="x">
          -22 11 -21 492 -20 hstem
          18 67 rmoveto
          -36 68 -41 32 11 18 5 11 8 vhcurveto
          91 138 92 -138 rlineto
          -12 8 15 -4 12 hhcurveto
          41 61 44 33 10 -5 11 -4 5 hvcurveto
          -114 149 103 137 rlineto
          7 10 3 7 8 vvcurveto
          35 -67 43 -36 -11 -16 -4 -13 -8 vhcurveto
          -81 -130 -80 131 rlineto
          15 -9 -18 1 -6 hhcurveto
          -40 -65 -43 -35 -10 6 -10 4 -5 hvcurveto
          102 -136 -113 -150 rlineto
          -5 -7 -4 -10 -9 vvcurveto
          endchar
        </CharString>
        <CharString name="y">
          -19 -3 callgsubr
          570 -20 hstem
          -96 callsubr
          endchar
        </CharString>
        <CharString name="yacute">
          -19 -3 callgsubr
          807 -20 hstem
          181 227 vstem
          -96 callsubr
          382 239 rmoveto
          -107 callgsubr
          endchar
        </CharString>
        <CharString name="ycircumflex">
          -19 -3 callgsubr
          570 86 151 -20 hstem
          -96 callsubr
          256 239 -53 callsubr
          -107 callsubr
          endchar
        </CharString>
        <CharString name="ydieresis">
          -19 -3 callgsubr
          658 117 hstem
          124 -30 callsubr
          vstem
          -96 callsubr
          175 299 rmoveto
          -102 callsubr
        </CharString>
        <CharString name="yen">
          72 0 250 -107 107 60 107 321 -20 hstemhm
          216 156 hintmask 10111000
          88 362 rmoveto
          -31 19 -21 28 vhcurveto
          81 -60 -81 hlineto
          -28 -19 -24 -31 hvcurveto
          hintmask 01111000
          -31 19 -21 28 vhcurveto
          81 -95 hlineto
          hintmask 10111000
          -96 callgsubr
          hintmask 01111000
          95 83 vlineto
          24 24 22 31 30 -24 24 -24 hvcurveto
          -83 60 83 7 callsubr
          -49 hlineto
          156 239 rlineto
          3 5 2 8 6 vvcurveto
          28 -54 35 -40 -22 -9 -16 -20 -11 vhcurveto
          -137 -251 -138 251 rlineto
          20 -11 -9 16 -22 hhcurveto
          -40 -54 -33 -31 -4 1 -9 4 -5 hvcurveto
          156 -239 rlineto
          -46 hlineto
          -28 -19 -24 -31 hvcurveto
          endchar
        </CharString>
        <CharString name="ygrave">
          -19 -3 callgsubr
          807 -20 hstem
          107 221 vstem
          -96 callsubr
          261 174 -62 callgsubr
          -100 callgsubr
          endchar
        </CharString>
        <CharString name="z">
          3 callgsubr
          hstem
          -89 callgsubr
          endchar
        </CharString>
        <CharString name="zacute">
          3 callgsubr
          244 -20 hstem
          161 221 vstem
          -89 callgsubr
          -28 503 rmoveto
          -107 callgsubr
          endchar
        </CharString>
        <CharString name="zcaron">
          3 callgsubr
          256 -20 hstem
          -89 callgsubr
          -265 604 -106 callgsubr
          endchar
        </CharString>
        <CharString name="zdotaccent">
          3 callgsubr
          95 117 hstem
          171 113 vstem
          -89 callgsubr
          -162 563 rmoveto
          -86 callsubr
        </CharString>
        <CharString name="zero">
          54 -6 136 181 101 183 136 hstem
          39 156 39 101 39 156 cntrmask 00011100
          284 -105 callsubr
          -89 -83 rmoveto
          -32 -19 -19 -31 -30 19 -21 32 31 19 21 30 31 -19 19 -31 hvcurveto
          endchar
        </CharString>
        <CharString name="zeroinferior">
          -161 -3 28 callsubr
          -3 -54 callgsubr
        </CharString>
        <CharString name="zerosuperior">
          -161 319 28 callsubr
          319 -54 callgsubr
        </CharString>
      <CharString index="0">
        14 7 6 13 14 vvcurveto
        26 -20 32 -27 -4 -5 -1 -2 -5 vhcurveto
        -140 -65 rlineto
        -14 -7 -6 -13 -15 vvcurveto
        -26 20 -32 26 5 5 2 2 5 vhcurveto
        return
      </CharString>
      <CharString index="1">
        rmoveto
        2 -4 -4 1 -3 hhcurveto
        -18 -13 -23 -23 -17 7 -17 18 -10 hvcurveto
        104 -56 rlineto
        -3 6 5 -2 6 hhcurveto
        6 5 2 3 6 hvcurveto
        104 56 rlineto
        18 10 7 17 17 vvcurveto
        23 -13 23 -18 -3 -4 -1 -2 -4 vhcurveto
        -104 -56 rlineto
        return
      </CharString>
      <CharString index="2">
        -31 -26 -27 -31 -31 26 -28 31 31 25 28 31 31 -25 27 -31 hvcurveto
        return
      </CharString>
      <CharString index="3">
        rmoveto
        -18 -16 -8 -17 -8 hvcurveto
        -351 -721 rlineto
        -3 -6 -2 -7 -6 vvcurveto
        -25 22 -28 34 19 19 10 15 7 vhcurveto
        352 721 rlineto
        0 callsubr
        7 6 vvcurveto
        32 -31 21 -28 vhcurveto
        return
      </CharString>
      <CharString index="4">
        268 -10 rmoveto
        124 103 98 112 hvcurveto
        229 vlineto
        25 -32 22 -45 -42 -36 -22 -25 vhcurveto
        -229 vlineto
        -38 -32 -37 -40 -40 -33 37 38 vhcurveto
        228 vlineto
        24 -36 24 -41 -43 -35 -24 -24 vhcurveto
        -228 vlineto
        -111 103 -99 125 vhcurveto
        return
      </CharString>
      <CharString index="5">
        254 -20 callgsubr
        -125 -102 -98 -112 hvcurveto
        -70 vlineto
        -112 105 -100 122 122 106 101 111 vhcurveto
        39 callgsubr
        -106 95 -122 vhcurveto
        73 -280 rmoveto
        -40 -33 -37 -40 -40 -32 37 40 vhcurveto
        70 vlineto
        38 32 37 40 40 4 callsubr
        return
      </CharString>
      <CharString index="6">
        -42 -34 -35 -42 -29 16 -25 24 -14 hvcurveto
        -25 -54 rlineto
        -3 -6 -1 -5 -5 vvcurveto
        -25 29 -14 21 11 13 4 14 6 vhcurveto
        59 137 3 11 12 vvcurveto
        41 -35 35 -42 vhcurveto
        return
      </CharString>
      <CharString index="7">
        26 20 32 26 15 -6 13 -14 7 hvcurveto
        -140 65 rlineto
        2 -5 -5 1 -4 hhcurveto
        -27 -20 -32 -26 -14 6 -13 14 -7 hvcurveto
        return
      </CharString>
      <CharString index="8">
        -105 callgsubr
        160 hmoveto
        -105 callgsubr
        return
      </CharString>
      <CharString index="9">
        217 48 rmoveto
        -96 callgsubr
        251 vlineto
        6 2 5 2 3 vhcurveto
        206 343 rlineto
        2 4 0 4 3 vvcurveto
        37 -63 27 -43 -25 -10 -10 -19 -10 vhcurveto
        -139 -257 -140 257 rlineto
        19 -11 -9 10 -25 hhcurveto
        -43 -63 -27 -37 -3 0 -4 2 -4 hvcurveto
        207 -343 rlineto
        2 -3 2 -5 -6 vvcurveto
        return
      </CharString>
      <CharString index="10">
        rmoveto
        84 66 36 99 hvcurveto
        142 vlineto
        99 -66 36 -84 -85 -65 -36 -99 vhcurveto
        -142 vlineto
        -99 65 -36 85 vhcurveto
        50 135 rmoveto
        -33 -19 -15 -31 -31 -18 15 33 vhcurveto
        142 vlineto
        33 18 15 31 31 19 -15 -33 vhcurveto
        return
      </CharString>
      <CharString index="11">
        -32 39 -16 39 39 39 16 32 vhcurveto
        return
      </CharString>
      <CharString index="12">
        36 11 25 28 46 vvcurveto
        69 -56 31 -79 vhcurveto
        49 -284 rmoveto
        -33 -18 -16 -32 -30 -19 15 34 vhcurveto
        13 vlineto
        31 18 14 32 31 18 -14 -31 vhcurveto
        -49 192 rmoveto
        24 14 -11 -23 -24 -14 -9 -24 -25 -14 9 24 23 14 11 25 hvcurveto
        return
      </CharString>
      <CharString index="13">
        27 8 33 82 hhcurveto
        57 18 -40 -34 hvcurveto
        -10 -36 vlineto
        -138 -96 -33 -118 -91 59 -42 69 70 46 38 42 36 hvcurveto
        -22 vlineto
        return
      </CharString>
      <CharString index="14">
        234 135 rmoveto
        122 86 71 96 hvcurveto
        15 vlineto
        38 -13 34 -25 27 vhcurveto
        14 14 17 11 12 11 rrcurveto
        10 9 6 10 11 vvcurveto
        18 -22 28 -37 -17 -16 -12 -58 -24 vhcurveto
        15 -31 -39 9 -43 hhcurveto
        -123 -82 -68 -97 hvcurveto
        -15 vlineto
        -52 24 -45 41 -30 vhcurveto
        return
      </CharString>
      <CharString index="15">
        -29 19 -20 28 vhcurveto
        200 hlineto
        24 24 20 29 28 -24 22 -24 hvcurveto
        -200 hlineto
        -28 -19 -22 -28 hvcurveto
        return
      </CharString>
      <CharString index="16">
        33 -39 14 -39 -39 -39 -10 callgsubr
        return
      </CharString>
      <CharString index="17">
        -55 -30 27 -61 hhcurveto
        -19 -66 -2 -71 -10 7 -39 31 hvcurveto
        23 21 21 42 hhcurveto
        return
      </CharString>
      <CharString index="18">
        213 125 rmoveto
        178 233 rlineto
        16 21 9 24 22 vvcurveto
        35 -23 16 -25 vhcurveto
        -299 hlineto
        -27 -17 -29 -33 -35 20 -28 24 hvcurveto
        153 hlineto
        -177 -233 rlineto
        -13 -17 -14 -22 -25 vvcurveto
        -25 13 -29 38 vhcurveto
        321 hlineto
        27 17 29 33 35 -20 28 -24 hvcurveto
        return
      </CharString>
      <CharString index="19">
        -21 11 19 -8 20 hhcurveto
        46 52 42 39 5 -1 7 -4 6 hvcurveto
        -122 221 rlineto
        70 27 51 64 112 vvcurveto
        163 -109 51 -137 vhcurveto
        -207 hlineto
        -29 -19 -22 -25 hvcurveto
        255 -89 rmoveto
        56 34 -23 -70 -70 -34 -23 -56 hvcurveto
        -99 186 hlineto
        return
      </CharString>
      <CharString index="20">
        -29 -31 30 43 hvcurveto
        -80 hlineto
        -74 68 -65 72 71 68 65 74 vhcurveto
        return
      </CharString>
      <CharString index="21">
        189 -296 -62 55 vvcurveto
        4 1 4 3 5 vhcurveto
        -4 18 20 -2 22 hhcurveto
        58 167 rmoveto
        -45 -21 -32 -35 -37 -20 34 44 vhcurveto
        14 vlineto
        41 20 34 36 37 20 -34 -41 vhcurveto
        return
      </CharString>
      <CharString index="22">
        -27 30 -21 39 44 32 21 27 vhcurveto
        238 vlineto
        101 -64 95 -164 vhcurveto
        73 -287 rmoveto
        return
      </CharString>
      <CharString index="23">
        54 31 -30 27 hhcurveto
        36 20 53 20 42 -83 30 -87 -142 -46 -80 -74 hvcurveto
        -168 234 47 -69 vvcurveto
        -14 -9 -19 -53 vhcurveto
        return
      </CharString>
      <CharString index="24">
        -55 -44 -49 -52 -54 46 -49 53 53 48 49 54 53 -47 48 -54 hvcurveto
        40 -102 rmoveto
        -21 -17 -21 -22 -23 -18 22 20 19 18 20 23 22 17 -19 -20 vhcurveto
        return
      </CharString>
      <CharString index="25">
        -93 -30 74 -47 hhcurveto
        -38 -30 -50 -34 -66 110 -64 131 145 105 78 144 hvcurveto
        252 -317 -19 100 vvcurveto
        31 29 29 71 vhcurveto
        return
      </CharString>
      <CharString index="26">
        81 5 callgsubr
        191 110 158 136 hstemhm
        -10 226 -156 -19 callgsubr
        156 hintmask 11101100
        128 731 rmoveto
        -41 -27 -22 -25 hvcurveto
        -247 -32 vlineto
        hintmask 11110100
        -33 callgsubr
        hintmask 11101100
        32 -280 hlineto
        -82 callsubr
        191 62 hlineto
        -23 callgsubr
        -62 158 hlineto
        endchar
      </CharString>
      <CharString index="27">
        -80 -23 45 -32 hhcurveto
        -31 -20 -44 -24 -49 85 -43 105 125 68 60 94 hvcurveto
        176 -236 -41 56 vvcurveto
        15 17 17 40 vhcurveto
        return
      </CharString>
      <CharString index="28">
        24 -10 8 -41 -36 -12 -7 -28 -48 40 -61 105 86 69 35 93 vhcurveto
        11 vlineto
        44 -25 24 -36 12 vhcurveto
        return
      </CharString>
      <CharString index="29">
        rmoveto
        6 59 rlineto
        129 hlineto
        20 9 22 22 22 -9 21 -20 hvcurveto
        -194 hlineto
        -11 -5 -11 -19 -2 hvcurveto
        -16 -135 rlineto
        -1 -8 0 -4 -6 vvcurveto
        -25 9 -15 29 vhcurveto
        92 hlineto
        30 19 -15 -32 hvcurveto
        -11 vlineto
        -31 -19 -13 -31 -28 -20 9 17 vhcurveto
        return
      </CharString>
      <CharString index="30">
        rmoveto
        59 111 rlineto
        2 4 1 5 5 vvcurveto
        31 -46 47 -52 -20 -16 -7 -12 -6 vhcurveto
        -67 -125 rlineto
        -16 -30 -12 -12 -18 vvcurveto
        -18 12 -10 16 -30 vhcurveto
        67 -125 rlineto
        -12 6 16 -7 20 hhcurveto
        52 46 47 31 5 -1 5 -2 4 hvcurveto
        return
      </CharString>
      <CharString index="31">
        -46 -36 -33 -38 -38 36 -34 46 45 36 34 38 38 -36 33 -45 hvcurveto
        return
      </CharString>
      <CharString index="32">
        -4 callsubr
        hintmask 0111010010000000
        -79 callgsubr
        hintmask 1011010100000000
        -74 callsubr
        vhcurveto
        hintmask 1010110100000000
        -59 callsubr
        hintmask 1011011000000000
        -74 callgsubr
        endchar
      </CharString>
      <CharString index="33">
        -22 -1 -7 -19 -19 vvcurveto
        -19 7 -19 22 30 24 -3 -34 vhcurveto
        -11 vlineto
        -30 -12 -11 -39 vhcurveto
        return
      </CharString>
      <CharString index="34">
        138 108 64 172 return
      </CharString>
      <CharString index="35">
        24 24 25 38 36 -24 28 -24 hvcurveto
        return
      </CharString>
      <CharString index="36">
        530 595 rmoveto
        226 hlineto
        30 17 32 37 32 -14 35 -33 hvcurveto
        -469 hlineto
        -132 -104 -64 -172 hvcurveto
        -442 vlineto
        -30 19 -23 49 69 9 23 30 vhcurveto
        253 177 -258 vlineto
        -32 34 -16 34 vhcurveto
        314 hlineto
        33 14 35 32 37 -17 32 -30 hvcurveto
        -226 170 108 hlineto
        33 14 32 27 32 -17 29 -30 hvcurveto
        -108 hlineto
        -333 69 rmoveto
        68 34 32 56 vhcurveto
        87 -169 -177 hlineto
        return
      </CharString>
      <CharString index="37">
        5 callgsubr
        170 -46 callsubr
        return
      </CharString>
      <CharString index="38">
        -17 callsubr
        hintmask 01011000
        54 25 vlineto
        hintmask 10010100
        -8 callsubr
        hintmask 10011000
        -25 21 hlineto
        hintmask 00111000
        -7 callsubr
        hintmask 10011000
        -72 callsubr
        hintmask 01011000
        2 callsubr
        endchar
      </CharString>
      <CharString index="39">
        rmoveto
        -101 callgsubr
        -200 hmoveto
        -43 callgsubr
      </CharString>
</ttFont>
